STARTFONT 2.1
COMMENT
COMMENT Converted from OpenType font "ipam.ttf" by "..\otf2bdf.exe 3.0".
COMMENT
FONT -FreeType-IPAMincho-Medium-R-Normal--20-200-72-72-P-178-ISO10646-1
SIZE 20 72 72
FONTBOUNDINGBOX 20 21 0 -3
STARTPROPERTIES 19
FOUNDRY "FreeType"
FAMILY_NAME "IPAMincho"
WEIGHT_NAME "Medium"
SLANT "R"
SETWIDTH_NAME "Normal"
ADD_STYLE_NAME ""
PIXEL_SIZE 20
POINT_SIZE 200
RESOLUTION_X 72
RESOLUTION_Y 72
SPACING "P"
AVERAGE_WIDTH 178
CHARSET_REGISTRY "ISO10646"
CHARSET_ENCODING "1"
FONT_ASCENT 17
FONT_DESCENT 2
COPYRIGHT "Copyright(c) Information-technology Promotion Agency, Japan (IPA), 2003-2011. You must accept "http://ipafont.ipa.go.jp/ipa_font_license_v1.html" to use this product."
_OTF_FONTFILE "ipam.ttf"
_OTF_PSNAME "IPAMincho"
ENDPROPERTIES
CHARS 11158
STARTCHAR 0020
ENCODING 32
SWIDTH 500 0
DWIDTH 10 0
BBX 0 0 0 0
BITMAP
ENDCHAR
STARTCHAR 0021
ENCODING 33
SWIDTH 500 0
DWIDTH 10 0
BBX 2 17 4 -1
BITMAP
C0
C0
C0
C0
C0
C0
C0
C0
C0
80
80
80
00
00
00
C0
C0
ENDCHAR
STARTCHAR 0022
ENCODING 34
SWIDTH 500 0
DWIDTH 10 0
BBX 7 6 1 11
BITMAP
66
66
66
22
44
88
ENDCHAR
STARTCHAR 0023
ENCODING 35
SWIDTH 500 0
DWIDTH 10 0
BBX 8 17 1 -1
BITMAP
14
14
24
24
7F
24
24
24
28
28
28
FE
28
28
48
48
48
ENDCHAR
STARTCHAR 0024
ENCODING 36
SWIDTH 500 0
DWIDTH 10 0
BBX 8 18 1 -1
BITMAP
08
08
3E
49
4B
4B
68
38
1C
0E
0B
C9
C9
C9
4A
3E
08
08
ENDCHAR
STARTCHAR 0025
ENCODING 37
SWIDTH 500 0
DWIDTH 10 0
BBX 8 18 1 -1
BITMAP
61
91
92
92
94
94
98
68
08
10
16
29
29
49
49
49
89
86
ENDCHAR
STARTCHAR 0026
ENCODING 38
SWIDTH 500 0
DWIDTH 10 0
BBX 9 15 1 0
BITMAP
3800
4400
4400
4400
4800
3000
2700
5200
9200
9A00
8A00
8D00
8580
4F00
3B00
ENDCHAR
STARTCHAR 0027
ENCODING 39
SWIDTH 500 0
DWIDTH 10 0
BBX 3 6 1 11
BITMAP
60
60
60
20
40
80
ENDCHAR
STARTCHAR 0028
ENCODING 40
SWIDTH 500 0
DWIDTH 10 0
BBX 5 18 3 -1
BITMAP
08
10
20
40
40
80
80
80
80
80
80
80
80
40
40
20
10
08
ENDCHAR
STARTCHAR 0029
ENCODING 41
SWIDTH 500 0
DWIDTH 10 0
BBX 5 18 2 -1
BITMAP
80
40
20
10
10
08
08
08
08
08
08
08
08
10
10
20
40
80
ENDCHAR
STARTCHAR 002A
ENCODING 42
SWIDTH 500 0
DWIDTH 10 0
BBX 8 9 1 3
BITMAP
18
18
DB
FF
3C
76
DB
18
18
ENDCHAR
STARTCHAR 002B
ENCODING 43
SWIDTH 500 0
DWIDTH 10 0
BBX 8 11 1 2
BITMAP
08
08
08
08
08
FF
08
08
08
08
08
ENDCHAR
STARTCHAR 002C
ENCODING 44
SWIDTH 500 0
DWIDTH 10 0
BBX 4 6 1 -2
BITMAP
70
70
70
20
20
C0
ENDCHAR
STARTCHAR 002D
ENCODING 45
SWIDTH 500 0
DWIDTH 10 0
BBX 8 1 1 7
BITMAP
FF
ENDCHAR
STARTCHAR 002E
ENCODING 46
SWIDTH 500 0
DWIDTH 10 0
BBX 3 3 2 0
BITMAP
E0
E0
C0
ENDCHAR
STARTCHAR 002F
ENCODING 47
SWIDTH 500 0
DWIDTH 10 0
BBX 8 18 1 -2
BITMAP
02
01
02
02
04
04
04
08
08
10
10
10
20
20
40
40
40
80
ENDCHAR
STARTCHAR 0030
ENCODING 48
SWIDTH 500 0
DWIDTH 10 0
BBX 8 15 1 0
BITMAP
3C
66
42
82
81
81
81
81
81
81
81
81
42
66
3C
ENDCHAR
STARTCHAR 0031
ENCODING 49
SWIDTH 500 0
DWIDTH 10 0
BBX 4 14 3 2
BITMAP
E0
20
20
20
20
20
20
20
20
20
20
20
20
70
ENDCHAR
STARTCHAR 0032
ENCODING 50
SWIDTH 500 0
DWIDTH 10 0
BBX 8 14 1 1
BITMAP
3C
42
C1
C1
C1
02
06
04
08
10
20
41
81
FF
ENDCHAR
STARTCHAR 0033
ENCODING 51
SWIDTH 500 0
DWIDTH 10 0
BBX 7 15 2 0
BITMAP
78
86
C2
02
02
04
38
0C
02
02
82
C2
82
44
38
ENDCHAR
STARTCHAR 0034
ENCODING 52
SWIDTH 500 0
DWIDTH 10 0
BBX 8 14 1 1
BITMAP
04
0C
0C
14
24
24
44
44
84
FF
04
04
04
1F
ENDCHAR
STARTCHAR 0035
ENCODING 53
SWIDTH 500 0
DWIDTH 10 0
BBX 8 15 1 0
BITMAP
7E
40
40
40
40
5C
62
83
01
01
C1
C1
C2
46
3C
ENDCHAR
STARTCHAR 0036
ENCODING 54
SWIDTH 500 0
DWIDTH 10 0
BBX 8 15 1 0
BITMAP
1C
22
62
40
C0
C0
FC
C2
81
81
81
81
43
62
3C
ENDCHAR
STARTCHAR 0037
ENCODING 55
SWIDTH 500 0
DWIDTH 10 0
BBX 8 15 1 0
BITMAP
FF
81
82
82
04
04
04
08
08
08
18
18
18
18
10
ENDCHAR
STARTCHAR 0038
ENCODING 56
SWIDTH 500 0
DWIDTH 10 0
BBX 8 15 1 0
BITMAP
3C
66
42
42
42
24
18
2C
42
81
81
81
81
42
3C
ENDCHAR
STARTCHAR 0039
ENCODING 57
SWIDTH 500 0
DWIDTH 10 0
BBX 8 15 1 0
BITMAP
3C
42
C2
81
81
81
81
43
3F
03
03
C2
C6
C4
78
ENDCHAR
STARTCHAR 003A
ENCODING 58
SWIDTH 500 0
DWIDTH 10 0
BBX 3 9 4 1
BITMAP
E0
E0
E0
00
00
00
E0
E0
E0
ENDCHAR
STARTCHAR 003B
ENCODING 59
SWIDTH 500 0
DWIDTH 10 0
BBX 3 12 4 -3
BITMAP
E0
E0
E0
00
00
00
00
C0
C0
40
80
80
ENDCHAR
STARTCHAR 003C
ENCODING 60
SWIDTH 500 0
DWIDTH 10 0
BBX 7 13 1 1
BITMAP
02
02
0C
18
30
60
C0
60
10
08
04
02
02
ENDCHAR
STARTCHAR 003D
ENCODING 61
SWIDTH 500 0
DWIDTH 10 0
BBX 8 5 1 5
BITMAP
FF
00
00
00
FF
ENDCHAR
STARTCHAR 003E
ENCODING 62
SWIDTH 500 0
DWIDTH 10 0
BBX 7 11 2 2
BITMAP
80
60
30
18
0C
06
0C
10
20
40
80
ENDCHAR
STARTCHAR 003F
ENCODING 63
SWIDTH 500 0
DWIDTH 10 0
BBX 9 17 1 -1
BITMAP
3E00
6100
C080
8080
E080
6100
0100
0200
0400
0800
0800
0800
0800
0000
0000
1800
1800
ENDCHAR
STARTCHAR 0040
ENCODING 64
SWIDTH 500 0
DWIDTH 10 0
BBX 8 16 1 0
BITMAP
1C
26
42
41
9B
95
A5
A5
A5
A5
AD
9E
40
41
21
1E
ENDCHAR
STARTCHAR 0041
ENCODING 65
SWIDTH 500 0
DWIDTH 10 0
BBX 8 15 1 1
BITMAP
10
10
18
18
28
28
24
24
44
7C
46
42
82
83
C7
ENDCHAR
STARTCHAR 0042
ENCODING 66
SWIDTH 500 0
DWIDTH 10 0
BBX 8 14 1 1
BITMAP
FC
46
42
42
42
44
78
46
43
41
41
41
42
FC
ENDCHAR
STARTCHAR 0043
ENCODING 67
SWIDTH 500 0
DWIDTH 10 0
BBX 7 15 1 0
BITMAP
3E
46
42
82
80
80
80
80
80
82
82
C2
42
64
38
ENDCHAR
STARTCHAR 0044
ENCODING 68
SWIDTH 500 0
DWIDTH 10 0
BBX 8 14 1 1
BITMAP
F8
46
42
41
41
41
41
41
41
41
42
42
44
F8
ENDCHAR
STARTCHAR 0045
ENCODING 69
SWIDTH 500 0
DWIDTH 10 0
BBX 8 14 1 1
BITMAP
FF
41
41
41
44
44
7C
44
44
40
41
41
41
FF
ENDCHAR
STARTCHAR 0046
ENCODING 70
SWIDTH 500 0
DWIDTH 10 0
BBX 8 14 1 1
BITMAP
FF
41
41
41
44
44
7C
44
44
40
40
40
40
E0
ENDCHAR
STARTCHAR 0047
ENCODING 71
SWIDTH 500 0
DWIDTH 10 0
BBX 8 15 1 0
BITMAP
3E
66
42
82
80
80
80
87
82
82
82
82
42
66
38
ENDCHAR
STARTCHAR 0048
ENCODING 72
SWIDTH 500 0
DWIDTH 10 0
BBX 8 14 1 1
BITMAP
E7
42
42
42
42
42
7E
42
42
42
42
42
42
E7
ENDCHAR
STARTCHAR 0049
ENCODING 73
SWIDTH 500 0
DWIDTH 10 0
BBX 5 14 2 1
BITMAP
F8
20
20
20
20
20
20
20
20
20
20
20
20
70
ENDCHAR
STARTCHAR 004A
ENCODING 74
SWIDTH 500 0
DWIDTH 10 0
BBX 8 15 2 0
BITMAP
1F
04
04
04
04
04
04
04
04
04
04
C4
84
C8
70
ENDCHAR
STARTCHAR 004B
ENCODING 75
SWIDTH 500 0
DWIDTH 10 0
BBX 9 14 1 1
BITMAP
E700
4400
4400
4800
4800
5000
5800
6800
6C00
4400
4400
4200
4200
E780
ENDCHAR
STARTCHAR 004C
ENCODING 76
SWIDTH 500 0
DWIDTH 10 0
BBX 8 14 1 1
BITMAP
F0
40
40
40
40
40
40
40
40
40
41
41
43
FF
ENDCHAR
STARTCHAR 004D
ENCODING 77
SWIDTH 500 0
DWIDTH 10 0
BBX 10 14 0 1
BITMAP
E1C0
6180
6180
7180
5280
5280
5280
5A80
4C80
4C80
4C80
4C80
4880
E9C0
ENDCHAR
STARTCHAR 004E
ENCODING 78
SWIDTH 500 0
DWIDTH 10 0
BBX 8 14 1 0
BITMAP
E7
62
62
52
52
52
4A
4A
4A
46
46
46
42
E2
ENDCHAR
STARTCHAR 004F
ENCODING 79
SWIDTH 500 0
DWIDTH 10 0
BBX 8 15 1 0
BITMAP
3C
62
42
81
81
81
81
81
81
81
81
83
42
66
3C
ENDCHAR
STARTCHAR 0050
ENCODING 80
SWIDTH 500 0
DWIDTH 10 0
BBX 8 14 1 1
BITMAP
FC
42
41
41
41
41
42
7C
40
40
40
40
40
E0
ENDCHAR
STARTCHAR 0051
ENCODING 81
SWIDTH 500 0
DWIDTH 10 0
BBX 9 16 1 -1
BITMAP
3C00
6600
4200
8100
8100
8100
8100
8100
8100
8100
9900
EA00
6600
6400
3D80
0300
ENDCHAR
STARTCHAR 0052
ENCODING 82
SWIDTH 500 0
DWIDTH 10 0
BBX 8 14 1 1
BITMAP
FC
46
42
42
42
44
78
48
48
4C
44
46
42
E3
ENDCHAR
STARTCHAR 0053
ENCODING 83
SWIDTH 500 0
DWIDTH 10 0
BBX 8 15 1 0
BITMAP
7A
86
82
82
C0
60
30
0C
02
81
81
81
C1
E2
1C
ENDCHAR
STARTCHAR 0054
ENCODING 84
SWIDTH 500 0
DWIDTH 10 0
BBX 8 14 1 1
BITMAP
FF
91
91
11
10
10
10
10
10
10
10
10
10
38
ENDCHAR
STARTCHAR 0055
ENCODING 85
SWIDTH 500 0
DWIDTH 10 0
BBX 8 15 1 0
BITMAP
E7
42
42
42
42
42
42
42
42
42
42
42
42
24
38
ENDCHAR
STARTCHAR 0056
ENCODING 86
SWIDTH 500 0
DWIDTH 10 0
BBX 10 14 0 0
BITMAP
F1C0
2080
2100
2100
3100
1200
1200
1200
1A00
0C00
0C00
0C00
0C00
0800
ENDCHAR
STARTCHAR 0057
ENCODING 87
SWIDTH 500 0
DWIDTH 10 0
BBX 10 14 0 1
BITMAP
EDC0
4480
4480
4C80
4C80
2F00
2B00
3300
3300
3300
3300
3300
1200
2200
ENDCHAR
STARTCHAR 0058
ENCODING 88
SWIDTH 500 0
DWIDTH 10 0
BBX 10 14 0 1
BITMAP
7380
2100
1200
1200
1C00
0C00
0C00
0C00
1600
1200
2200
2100
4100
E3C0
ENDCHAR
STARTCHAR 0059
ENCODING 89
SWIDTH 500 0
DWIDTH 10 0
BBX 9 14 0 1
BITMAP
F380
4100
2200
2200
2200
1400
1400
0800
0800
0800
0800
0800
0800
1C00
ENDCHAR
STARTCHAR 005A
ENCODING 90
SWIDTH 500 0
DWIDTH 10 0
BBX 8 14 1 1
BITMAP
7E
42
44
84
08
08
18
10
30
20
61
43
C3
FF
ENDCHAR
STARTCHAR 005B
ENCODING 91
SWIDTH 500 0
DWIDTH 10 0
BBX 5 18 3 -1
BITMAP
F8
80
80
80
80
80
80
80
80
80
80
80
80
80
80
80
80
F8
ENDCHAR
STARTCHAR 005C
ENCODING 92
SWIDTH 500 0
DWIDTH 10 0
BBX 10 14 0 1
BITMAP
E3C0
4100
2100
2200
1200
7F80
1400
0C00
0800
7F80
0800
0800
0800
1C00
ENDCHAR
STARTCHAR 005D
ENCODING 93
SWIDTH 500 0
DWIDTH 10 0
BBX 5 18 2 -1
BITMAP
F8
08
08
08
08
08
08
08
08
08
08
08
08
08
08
08
08
F8
ENDCHAR
STARTCHAR 005E
ENCODING 94
SWIDTH 500 0
DWIDTH 10 0
BBX 6 2 2 13
BITMAP
78
84
ENDCHAR
STARTCHAR 005F
ENCODING 95
SWIDTH 500 0
DWIDTH 10 0
BBX 0 0 0 -2
BITMAP
ENDCHAR
STARTCHAR 0060
ENCODING 96
SWIDTH 500 0
DWIDTH 10 0
BBX 6 2 1 13
BITMAP
F8
0C
ENDCHAR
STARTCHAR 0061
ENCODING 97
SWIDTH 500 0
DWIDTH 10 0
BBX 8 10 2 0
BITMAP
78
CC
C4
04
3C
44
84
84
8D
76
ENDCHAR
STARTCHAR 0062
ENCODING 98
SWIDTH 500 0
DWIDTH 10 0
BBX 8 15 1 0
BITMAP
C0
40
40
40
40
7C
42
41
41
41
41
41
43
62
9C
ENDCHAR
STARTCHAR 0063
ENCODING 99
SWIDTH 500 0
DWIDTH 10 0
BBX 7 10 2 0
BITMAP
78
C4
84
80
80
80
80
C6
44
38
ENDCHAR
STARTCHAR 0064
ENCODING 100
SWIDTH 500 0
DWIDTH 10 0
BBX 8 15 1 0
BITMAP
06
02
02
02
02
3E
42
C2
82
82
82
82
C2
47
38
ENDCHAR
STARTCHAR 0065
ENCODING 101
SWIDTH 500 0
DWIDTH 10 0
BBX 8 10 1 0
BITMAP
3C
62
C2
FE
C1
C0
C2
C2
62
3C
ENDCHAR
STARTCHAR 0066
ENCODING 102
SWIDTH 500 0
DWIDTH 10 0
BBX 6 14 2 1
BITMAP
18
24
24
20
20
F8
20
20
20
20
20
20
20
70
ENDCHAR
STARTCHAR 0067
ENCODING 103
SWIDTH 500 0
DWIDTH 10 0
BBX 9 12 1 -2
BITMAP
7F80
C600
8200
C600
7C00
4000
4000
7E00
8100
8100
C300
7E00
ENDCHAR
STARTCHAR 0068
ENCODING 104
SWIDTH 500 0
DWIDTH 10 0
BBX 8 14 1 1
BITMAP
C0
40
40
40
40
5C
62
42
42
42
42
42
42
E7
ENDCHAR
STARTCHAR 0069
ENCODING 105
SWIDTH 500 0
DWIDTH 10 0
BBX 3 14 4 1
BITMAP
C0
C0
00
00
40
C0
40
40
40
40
40
40
40
E0
ENDCHAR
STARTCHAR 006A
ENCODING 106
SWIDTH 500 0
DWIDTH 10 0
BBX 5 17 2 -2
BITMAP
18
18
00
00
08
18
08
08
08
08
08
08
08
08
C8
88
70
ENDCHAR
STARTCHAR 006B
ENCODING 107
SWIDTH 500 0
DWIDTH 10 0
BBX 8 14 1 1
BITMAP
40
C0
40
40
40
4F
44
48
50
68
4C
44
42
E7
ENDCHAR
STARTCHAR 006C
ENCODING 108
SWIDTH 500 0
DWIDTH 10 0
BBX 3 14 3 2
BITMAP
C0
40
40
40
40
40
40
40
40
40
40
40
40
E0
ENDCHAR
STARTCHAR 006D
ENCODING 109
SWIDTH 500 0
DWIDTH 10 0
BBX 10 9 0 2
BITMAP
FF00
4880
4880
4880
4880
4880
4880
4880
CDC0
ENDCHAR
STARTCHAR 006E
ENCODING 110
SWIDTH 500 0
DWIDTH 10 0
BBX 8 9 1 2
BITMAP
DC
62
42
42
42
42
42
42
E7
ENDCHAR
STARTCHAR 006F
ENCODING 111
SWIDTH 500 0
DWIDTH 10 0
BBX 8 10 1 0
BITMAP
3C
42
C3
81
81
81
81
C3
42
3C
ENDCHAR
STARTCHAR 0070
ENCODING 112
SWIDTH 500 0
DWIDTH 10 0
BBX 7 12 1 -1
BITMAP
F8
44
42
42
42
42
42
64
58
40
40
E0
ENDCHAR
STARTCHAR 0071
ENCODING 113
SWIDTH 500 0
DWIDTH 10 0
BBX 8 12 1 -1
BITMAP
3E
42
82
82
82
82
C2
66
3A
02
02
07
ENDCHAR
STARTCHAR 0072
ENCODING 114
SWIDTH 500 0
DWIDTH 10 0
BBX 6 9 2 2
BITMAP
DC
64
40
40
40
40
40
40
E0
ENDCHAR
STARTCHAR 0073
ENCODING 115
SWIDTH 500 0
DWIDTH 10 0
BBX 7 10 2 0
BITMAP
7C
84
84
80
60
1C
82
82
C6
3C
ENDCHAR
STARTCHAR 0074
ENCODING 116
SWIDTH 500 0
DWIDTH 10 0
BBX 7 13 2 0
BITMAP
20
20
60
FC
20
20
20
20
20
20
24
26
18
ENDCHAR
STARTCHAR 0075
ENCODING 117
SWIDTH 500 0
DWIDTH 10 0
BBX 8 10 1 1
BITMAP
C6
42
42
42
42
42
42
42
27
38
ENDCHAR
STARTCHAR 0076
ENCODING 118
SWIDTH 500 0
DWIDTH 10 0
BBX 8 9 1 0
BITMAP
E7
42
42
24
24
34
18
18
18
ENDCHAR
STARTCHAR 0077
ENCODING 119
SWIDTH 500 0
DWIDTH 10 0
BBX 10 9 0 0
BITMAP
EDC0
4480
4480
2D00
2B00
3300
3300
3200
1200
ENDCHAR
STARTCHAR 0078
ENCODING 120
SWIDTH 500 0
DWIDTH 10 0
BBX 8 9 1 1
BITMAP
E7
44
28
18
18
2C
24
42
E7
ENDCHAR
STARTCHAR 0079
ENCODING 121
SWIDTH 500 0
DWIDTH 10 0
BBX 9 12 1 -2
BITMAP
E780
4200
6200
2400
2400
1400
1800
0800
0800
1000
D000
E000
ENDCHAR
STARTCHAR 007A
ENCODING 122
SWIDTH 500 0
DWIDTH 10 0
BBX 8 9 1 1
BITMAP
7F
42
44
0C
18
30
61
C1
FF
ENDCHAR
STARTCHAR 007B
ENCODING 123
SWIDTH 500 0
DWIDTH 10 0
BBX 5 19 3 -2
BITMAP
08
10
20
20
20
20
20
20
40
80
60
20
20
20
20
20
20
10
08
ENDCHAR
STARTCHAR 007C
ENCODING 124
SWIDTH 500 0
DWIDTH 10 0
BBX 1 20 5 -2
BITMAP
80
80
80
80
80
80
80
80
80
80
80
80
80
80
80
80
80
80
80
80
ENDCHAR
STARTCHAR 007D
ENCODING 125
SWIDTH 500 0
DWIDTH 10 0
BBX 5 19 2 -2
BITMAP
80
40
20
20
20
20
20
20
10
08
30
20
20
20
20
20
20
40
80
ENDCHAR
STARTCHAR 007E
ENCODING 126
SWIDTH 500 0
DWIDTH 10 0
BBX 8 2 1 13
BITMAP
73
8E
ENDCHAR
STARTCHAR 00A0
ENCODING 160
SWIDTH 500 0
DWIDTH 10 0
BBX 0 0 0 0
BITMAP
ENDCHAR
STARTCHAR 00A1
ENCODING 161
SWIDTH 500 0
DWIDTH 10 0
BBX 2 17 4 -1
BITMAP
C0
C0
00
00
00
80
80
80
C0
C0
C0
C0
C0
C0
C0
C0
C0
ENDCHAR
STARTCHAR 00A2
ENCODING 162
SWIDTH 1000 0
DWIDTH 20 0
BBX 9 14 6 1
BITMAP
0600
0400
3E00
6900
4B00
8800
9000
9000
9000
6180
6300
3C00
4000
4000
ENDCHAR
STARTCHAR 00A3
ENCODING 163
SWIDTH 1000 0
DWIDTH 20 0
BBX 12 15 4 1
BITMAP
0780
08E0
10E0
10E0
1000
1000
1800
7F80
0800
0C00
0400
7400
8C10
8F20
78E0
ENDCHAR
STARTCHAR 00A4
ENCODING 164
SWIDTH 500 0
DWIDTH 10 0
BBX 8 8 1 3
BITMAP
82
5B
64
42
42
24
5A
81
ENDCHAR
STARTCHAR 00A5
ENCODING 165
SWIDTH 1000 0
DWIDTH 20 0
BBX 14 14 3 1
BITMAP
F8FC
2010
1020
1840
0880
7FF8
0500
0200
7FF8
0200
0200
0200
0200
0780
ENDCHAR
STARTCHAR 00A6
ENCODING 166
SWIDTH 500 0
DWIDTH 10 0
BBX 1 19 5 -2
BITMAP
80
80
80
80
80
80
80
80
80
00
80
80
80
80
80
80
80
80
80
ENDCHAR
STARTCHAR 00A7
ENCODING 167
SWIDTH 1000 0
DWIDTH 20 0
BBX 8 18 6 -1
BITMAP
3C
42
83
83
80
60
38
4E
83
81
41
31
0E
03
C1
C1
C3
3C
ENDCHAR
STARTCHAR 00A8
ENCODING 168
SWIDTH 1000 0
DWIDTH 20 0
BBX 8 2 6 13
BITMAP
C3
C3
ENDCHAR
STARTCHAR 00A9
ENCODING 169
SWIDTH 500 0
DWIDTH 10 0
BBX 9 9 0 3
BITMAP
3C00
6300
DF00
A280
A080
A080
B380
5F00
3E00
ENDCHAR
STARTCHAR 00AA
ENCODING 170
SWIDTH 500 0
DWIDTH 10 0
BBX 6 8 1 7
BITMAP
E0
90
30
D0
90
FC
00
F8
ENDCHAR
STARTCHAR 00AB
ENCODING 171
SWIDTH 500 0
DWIDTH 10 0
BBX 6 8 3 2
BITMAP
34
28
50
A0
A0
50
28
24
ENDCHAR
STARTCHAR 00AC
ENCODING 172
SWIDTH 1000 0
DWIDTH 20 0
BBX 17 7 1 4
BITMAP
FFFF80
000080
000080
000080
000080
000080
000080
ENDCHAR
STARTCHAR 00AD
ENCODING 173
SWIDTH 500 0
DWIDTH 10 0
BBX 8 1 1 7
BITMAP
FF
ENDCHAR
STARTCHAR 00AE
ENCODING 174
SWIDTH 500 0
DWIDTH 10 0
BBX 9 9 1 3
BITMAP
3E00
6300
FF80
A280
BC80
A880
A580
5300
3E00
ENDCHAR
STARTCHAR 00AF
ENCODING 175
SWIDTH 500 0
DWIDTH 10 0
BBX 6 1 2 13
BITMAP
FC
ENDCHAR
STARTCHAR 00B0
ENCODING 176
SWIDTH 1000 0
DWIDTH 20 0
BBX 4 4 1 13
BITMAP
60
90
90
60
ENDCHAR
STARTCHAR 00B1
ENCODING 177
SWIDTH 1000 0
DWIDTH 20 0
BBX 14 14 3 1
BITMAP
0100
0100
0100
0100
0100
FFFC
0100
0100
0100
0100
0100
0000
0000
FFFC
ENDCHAR
STARTCHAR 00B2
ENCODING 178
SWIDTH 500 0
DWIDTH 10 0
BBX 5 8 1 10
BITMAP
30
48
48
10
10
28
48
F8
ENDCHAR
STARTCHAR 00B3
ENCODING 179
SWIDTH 500 0
DWIDTH 10 0
BBX 5 8 1 9
BITMAP
70
48
08
30
18
C8
88
70
ENDCHAR
STARTCHAR 00B4
ENCODING 180
SWIDTH 1000 0
DWIDTH 20 0
BBX 6 2 8 13
BITMAP
7C
C0
ENDCHAR
STARTCHAR 00B6
ENCODING 182
SWIDTH 1000 0
DWIDTH 20 0
BBX 8 18 5 -1
BITMAP
3F
79
F9
F9
F9
79
39
09
09
09
09
09
09
09
09
09
09
09
ENDCHAR
STARTCHAR 00B7
ENCODING 183
SWIDTH 500 0
DWIDTH 10 0
BBX 3 3 4 6
BITMAP
E0
E0
C0
ENDCHAR
STARTCHAR 00B8
ENCODING 184
SWIDTH 500 0
DWIDTH 10 0
BBX 4 5 3 -1
BITMAP
40
80
F0
10
F0
ENDCHAR
STARTCHAR 00B9
ENCODING 185
SWIDTH 500 0
DWIDTH 10 0
BBX 2 7 2 11
BITMAP
C0
40
40
40
40
40
40
ENDCHAR
STARTCHAR 00BA
ENCODING 186
SWIDTH 500 0
DWIDTH 10 0
BBX 5 8 1 7
BITMAP
70
88
88
88
D8
70
00
F8
ENDCHAR
STARTCHAR 00BB
ENCODING 187
SWIDTH 500 0
DWIDTH 10 0
BBX 6 8 1 2
BITMAP
A0
50
28
14
14
28
50
A0
ENDCHAR
STARTCHAR 00BC
ENCODING 188
SWIDTH 500 0
DWIDTH 10 0
BBX 8 19 1 -1
BITMAP
C1
42
42
44
44
44
48
48
F0
12
16
2A
2A
52
52
5F
82
86
01
ENDCHAR
STARTCHAR 00BD
ENCODING 189
SWIDTH 500 0
DWIDTH 10 0
BBX 8 18 1 -1
BITMAP
C1
42
42
42
44
44
48
48
E8
16
19
29
21
42
44
45
89
8F
ENDCHAR
STARTCHAR 00BE
ENCODING 190
SWIDTH 500 0
DWIDTH 10 0
BBX 8 19 1 -2
BITMAP
61
92
92
12
64
14
18
98
F0
12
16
2A
2A
52
52
5F
82
86
01
ENDCHAR
STARTCHAR 00BF
ENCODING 191
SWIDTH 500 0
DWIDTH 10 0
BBX 9 17 1 -1
BITMAP
1800
1800
0000
0000
0800
0800
0800
0800
1000
2000
4000
4000
8380
8080
8180
4300
3E00
ENDCHAR
STARTCHAR 00C0
ENCODING 192
SWIDTH 500 0
DWIDTH 10 0
BBX 8 16 1 1
BITMAP
70
18
18
18
18
28
2C
24
24
44
7E
46
42
82
83
C7
ENDCHAR
STARTCHAR 00C1
ENCODING 193
SWIDTH 500 0
DWIDTH 10 0
BBX 8 16 1 1
BITMAP
0E
10
18
18
18
28
2C
24
24
44
7E
46
42
82
83
C7
ENDCHAR
STARTCHAR 00C2
ENCODING 194
SWIDTH 500 0
DWIDTH 10 0
BBX 8 16 1 1
BITMAP
18
34
18
18
18
28
2C
24
24
44
7E
46
42
82
83
C7
ENDCHAR
STARTCHAR 00C3
ENCODING 195
SWIDTH 500 0
DWIDTH 10 0
BBX 8 16 1 2
BITMAP
3E
50
10
18
18
28
28
24
24
44
7C
46
42
82
83
C7
ENDCHAR
STARTCHAR 00C4
ENCODING 196
SWIDTH 500 0
DWIDTH 10 0
BBX 8 17 1 1
BITMAP
66
66
10
10
18
18
28
28
24
24
44
7C
46
42
82
83
C7
ENDCHAR
STARTCHAR 00C5
ENCODING 197
SWIDTH 500 0
DWIDTH 10 0
BBX 8 17 1 1
BITMAP
18
28
28
10
18
18
28
28
24
24
44
7C
46
42
82
83
C7
ENDCHAR
STARTCHAR 00C6
ENCODING 198
SWIDTH 500 0
DWIDTH 10 0
BBX 9 14 0 1
BITMAP
0780
0C80
0C80
1400
1500
1500
1700
2500
3D00
2400
2400
4480
4480
EF80
ENDCHAR
STARTCHAR 00C7
ENCODING 199
SWIDTH 500 0
DWIDTH 10 0
BBX 7 17 1 -2
BITMAP
3E
46
42
82
80
80
80
80
80
82
82
42
42
24
18
3C
3C
ENDCHAR
STARTCHAR 00C8
ENCODING 200
SWIDTH 500 0
DWIDTH 10 0
BBX 8 16 1 1
BITMAP
70
08
FF
41
41
41
44
44
7C
44
44
40
41
41
41
FF
ENDCHAR
STARTCHAR 00C9
ENCODING 201
SWIDTH 500 0
DWIDTH 10 0
BBX 8 16 1 1
BITMAP
1E
20
FF
41
41
41
44
44
7C
44
44
40
41
41
41
FF
ENDCHAR
STARTCHAR 00CA
ENCODING 202
SWIDTH 500 0
DWIDTH 10 0
BBX 8 16 1 1
BITMAP
38
04
FF
41
41
41
44
44
7C
44
44
40
41
41
41
FF
ENDCHAR
STARTCHAR 00CB
ENCODING 203
SWIDTH 500 0
DWIDTH 10 0
BBX 8 17 1 1
BITMAP
66
66
00
FF
41
41
41
44
44
7C
44
44
40
41
41
41
FF
ENDCHAR
STARTCHAR 00CC
ENCODING 204
SWIDTH 500 0
DWIDTH 10 0
BBX 5 16 2 1
BITMAP
E0
10
F8
20
20
20
20
20
20
20
20
20
20
20
20
70
ENDCHAR
STARTCHAR 00CD
ENCODING 205
SWIDTH 500 0
DWIDTH 10 0
BBX 5 16 2 1
BITMAP
38
40
F8
20
20
20
20
20
20
20
20
20
20
20
20
70
ENDCHAR
STARTCHAR 00CE
ENCODING 206
SWIDTH 500 0
DWIDTH 10 0
BBX 5 16 2 1
BITMAP
70
88
F8
20
20
20
20
20
20
20
20
20
20
20
20
70
ENDCHAR
STARTCHAR 00CF
ENCODING 207
SWIDTH 500 0
DWIDTH 10 0
BBX 5 17 2 1
BITMAP
D8
D8
00
F8
20
20
20
20
20
20
20
20
20
20
20
20
70
ENDCHAR
STARTCHAR 00D0
ENCODING 208
SWIDTH 500 0
DWIDTH 10 0
BBX 8 14 1 1
BITMAP
F8
46
42
41
41
41
F1
41
41
41
42
42
44
F8
ENDCHAR
STARTCHAR 00D1
ENCODING 209
SWIDTH 500 0
DWIDTH 10 0
BBX 8 16 1 1
BITMAP
3C
00
E7
62
62
52
52
52
4A
4A
4A
46
46
46
42
E2
ENDCHAR
STARTCHAR 00D2
ENCODING 210
SWIDTH 500 0
DWIDTH 10 0
BBX 8 17 1 0
BITMAP
70
08
3C
62
42
81
81
81
81
81
81
81
81
83
42
66
3C
ENDCHAR
STARTCHAR 00D3
ENCODING 211
SWIDTH 500 0
DWIDTH 10 0
BBX 8 17 1 0
BITMAP
0E
10
3C
62
42
81
81
81
81
81
81
81
81
83
42
66
3C
ENDCHAR
STARTCHAR 00D4
ENCODING 212
SWIDTH 500 0
DWIDTH 10 0
BBX 8 17 1 0
BITMAP
18
24
3C
62
42
81
81
81
81
81
81
81
81
83
42
66
3C
ENDCHAR
STARTCHAR 00D5
ENCODING 213
SWIDTH 500 0
DWIDTH 10 0
BBX 8 17 1 1
BITMAP
3E
40
3C
62
42
81
81
81
81
81
81
81
81
83
42
66
3C
ENDCHAR
STARTCHAR 00D6
ENCODING 214
SWIDTH 500 0
DWIDTH 10 0
BBX 8 18 1 0
BITMAP
66
66
00
3C
62
42
81
81
81
81
81
81
81
81
83
42
66
3C
ENDCHAR
STARTCHAR 00D7
ENCODING 215
SWIDTH 1000 0
DWIDTH 20 0
BBX 12 12 4 1
BITMAP
8020
C030
6060
30C0
1980
0F00
0600
0F00
1980
30C0
6060
C030
ENDCHAR
STARTCHAR 00D8
ENCODING 216
SWIDTH 500 0
DWIDTH 10 0
BBX 8 16 1 1
BITMAP
01
3E
66
42
87
89
89
89
91
91
A1
E1
42
42
A6
9C
ENDCHAR
STARTCHAR 00D9
ENCODING 217
SWIDTH 500 0
DWIDTH 10 0
BBX 8 17 1 0
BITMAP
70
08
E7
42
42
42
42
42
42
42
42
42
42
42
42
24
38
ENDCHAR
STARTCHAR 00DA
ENCODING 218
SWIDTH 500 0
DWIDTH 10 0
BBX 8 17 1 0
BITMAP
1C
00
E7
42
42
42
42
42
42
42
42
42
42
42
42
24
38
ENDCHAR
STARTCHAR 00DB
ENCODING 219
SWIDTH 500 0
DWIDTH 10 0
BBX 8 17 1 0
BITMAP
18
24
E7
42
42
42
42
42
42
42
42
42
42
42
42
24
38
ENDCHAR
STARTCHAR 00DC
ENCODING 220
SWIDTH 500 0
DWIDTH 10 0
BBX 8 18 1 0
BITMAP
36
36
00
E7
42
42
42
42
42
42
42
42
42
42
42
42
24
38
ENDCHAR
STARTCHAR 00DD
ENCODING 221
SWIDTH 500 0
DWIDTH 10 0
BBX 9 16 0 1
BITMAP
0E00
1000
F380
4100
2200
2200
2200
1400
1400
0800
0800
0800
0800
0800
0800
1C00
ENDCHAR
STARTCHAR 00DE
ENCODING 222
SWIDTH 500 0
DWIDTH 10 0
BBX 8 14 1 1
BITMAP
F0
40
40
7C
42
41
41
41
41
42
7C
40
40
E0
ENDCHAR
STARTCHAR 00DF
ENCODING 223
SWIDTH 500 0
DWIDTH 10 0
BBX 8 15 1 0
BITMAP
3C
66
42
42
42
44
58
46
43
41
41
41
51
D2
0C
ENDCHAR
STARTCHAR 00E0
ENCODING 224
SWIDTH 500 0
DWIDTH 10 0
BBX 8 14 2 0
BITMAP
60
10
08
00
78
CC
C4
04
3C
44
84
84
8D
76
ENDCHAR
STARTCHAR 00E1
ENCODING 225
SWIDTH 500 0
DWIDTH 10 0
BBX 8 14 2 0
BITMAP
1C
20
00
00
78
CC
C4
04
3C
44
84
84
8D
76
ENDCHAR
STARTCHAR 00E2
ENCODING 226
SWIDTH 500 0
DWIDTH 10 0
BBX 8 14 2 0
BITMAP
30
48
04
00
78
CC
C4
04
3C
44
84
84
8D
76
ENDCHAR
STARTCHAR 00E3
ENCODING 227
SWIDTH 500 0
DWIDTH 10 0
BBX 8 13 2 0
BITMAP
7C
00
00
78
CC
C4
04
3C
44
84
84
8D
76
ENDCHAR
STARTCHAR 00E4
ENCODING 228
SWIDTH 500 0
DWIDTH 10 0
BBX 8 13 2 0
BITMAP
6C
6C
00
78
CC
C4
04
3C
44
84
84
8D
76
ENDCHAR
STARTCHAR 00E5
ENCODING 229
SWIDTH 500 0
DWIDTH 10 0
BBX 8 14 2 0
BITMAP
30
28
38
00
78
CC
C4
04
3C
44
84
84
8D
76
ENDCHAR
STARTCHAR 00E6
ENCODING 230
SWIDTH 500 0
DWIDTH 10 0
BBX 7 10 2 0
BITMAP
EC
92
12
3E
50
90
92
92
AA
6C
ENDCHAR
STARTCHAR 00E7
ENCODING 231
SWIDTH 500 0
DWIDTH 10 0
BBX 7 12 2 -2
BITMAP
78
C4
84
80
80
80
80
86
44
38
38
38
ENDCHAR
STARTCHAR 00E8
ENCODING 232
SWIDTH 500 0
DWIDTH 10 0
BBX 8 14 1 0
BITMAP
70
08
00
00
3C
62
C2
FE
C1
C0
C2
C2
62
3C
ENDCHAR
STARTCHAR 00E9
ENCODING 233
SWIDTH 500 0
DWIDTH 10 0
BBX 8 14 1 0
BITMAP
0E
10
00
00
3C
62
C2
FE
C1
C0
C2
C2
62
3C
ENDCHAR
STARTCHAR 00EA
ENCODING 234
SWIDTH 500 0
DWIDTH 10 0
BBX 8 14 1 0
BITMAP
18
24
00
00
3C
62
C2
FE
C1
C0
C2
C2
62
3C
ENDCHAR
STARTCHAR 00EB
ENCODING 235
SWIDTH 500 0
DWIDTH 10 0
BBX 8 13 1 0
BITMAP
66
66
00
3C
62
C2
FE
C1
C0
C2
C2
62
3C
ENDCHAR
STARTCHAR 00EC
ENCODING 236
SWIDTH 500 0
DWIDTH 10 0
BBX 4 13 3 1
BITMAP
C0
20
10
60
20
20
20
20
20
20
20
20
70
ENDCHAR
STARTCHAR 00ED
ENCODING 237
SWIDTH 500 0
DWIDTH 10 0
BBX 4 13 4 1
BITMAP
70
80
00
C0
40
40
40
40
40
40
40
40
E0
ENDCHAR
STARTCHAR 00EE
ENCODING 238
SWIDTH 500 0
DWIDTH 10 0
BBX 5 13 3 1
BITMAP
60
90
08
60
20
20
20
20
20
20
20
20
70
ENDCHAR
STARTCHAR 00EF
ENCODING 239
SWIDTH 500 0
DWIDTH 10 0
BBX 5 13 3 1
BITMAP
D8
D8
00
20
60
20
20
20
20
20
20
20
70
ENDCHAR
STARTCHAR 00F0
ENCODING 240
SWIDTH 500 0
DWIDTH 10 0
BBX 8 15 1 1
BITMAP
44
38
28
44
06
3E
43
C3
81
81
81
81
C2
66
3C
ENDCHAR
STARTCHAR 00F1
ENCODING 241
SWIDTH 500 0
DWIDTH 10 0
BBX 8 12 1 1
BITMAP
3C
40
00
DC
62
42
42
42
42
42
42
E7
ENDCHAR
STARTCHAR 00F2
ENCODING 242
SWIDTH 500 0
DWIDTH 10 0
BBX 8 14 1 0
BITMAP
70
08
00
00
3C
42
C3
81
81
81
81
C3
42
3C
ENDCHAR
STARTCHAR 00F3
ENCODING 243
SWIDTH 500 0
DWIDTH 10 0
BBX 8 14 1 0
BITMAP
0E
10
00
00
3C
42
C3
81
81
81
81
C3
42
3C
ENDCHAR
STARTCHAR 00F4
ENCODING 244
SWIDTH 500 0
DWIDTH 10 0
BBX 8 14 1 0
BITMAP
18
24
00
00
3C
42
C3
81
81
81
81
C3
42
3C
ENDCHAR
STARTCHAR 00F5
ENCODING 245
SWIDTH 500 0
DWIDTH 10 0
BBX 8 13 1 0
BITMAP
3E
40
00
3C
42
C3
81
81
81
81
C3
42
3C
ENDCHAR
STARTCHAR 00F6
ENCODING 246
SWIDTH 500 0
DWIDTH 10 0
BBX 8 13 1 0
BITMAP
66
66
00
3C
42
C3
81
81
81
81
C3
42
3C
ENDCHAR
STARTCHAR 00F7
ENCODING 247
SWIDTH 1000 0
DWIDTH 20 0
BBX 14 10 3 2
BITMAP
0300
0300
0000
0000
FFFC
0000
0000
0000
0300
0300
ENDCHAR
STARTCHAR 00F8
ENCODING 248
SWIDTH 500 0
DWIDTH 10 0
BBX 8 11 1 1
BITMAP
02
3E
46
87
89
91
91
A1
62
62
9C
ENDCHAR
STARTCHAR 00F9
ENCODING 249
SWIDTH 500 0
DWIDTH 10 0
BBX 8 14 1 0
BITMAP
70
08
00
C6
42
42
42
42
42
42
42
42
66
3D
ENDCHAR
STARTCHAR 00FA
ENCODING 250
SWIDTH 500 0
DWIDTH 10 0
BBX 8 14 1 0
BITMAP
0E
10
00
C6
42
42
42
42
42
42
42
42
66
3D
ENDCHAR
STARTCHAR 00FB
ENCODING 251
SWIDTH 500 0
DWIDTH 10 0
BBX 8 14 1 0
BITMAP
18
24
00
C6
42
42
42
42
42
42
42
42
66
3D
ENDCHAR
STARTCHAR 00FC
ENCODING 252
SWIDTH 500 0
DWIDTH 10 0
BBX 8 14 1 0
BITMAP
66
66
00
42
C6
42
42
42
42
42
42
42
66
3D
ENDCHAR
STARTCHAR 00FD
ENCODING 253
SWIDTH 500 0
DWIDTH 10 0
BBX 9 16 1 -2
BITMAP
0E00
1000
0000
0000
E780
4200
6200
2400
2400
1400
1800
0800
0800
1000
D000
E000
ENDCHAR
STARTCHAR 00FE
ENCODING 254
SWIDTH 500 0
DWIDTH 10 0
BBX 8 17 1 -2
BITMAP
40
C0
40
40
40
7C
42
41
41
41
41
41
43
62
5C
40
E0
ENDCHAR
STARTCHAR 00FF
ENCODING 255
SWIDTH 500 0
DWIDTH 10 0
BBX 9 15 1 -2
BITMAP
3600
3600
0000
E780
4200
6200
2200
2400
1400
1800
0800
0800
1000
D000
E000
ENDCHAR
STARTCHAR 0100
ENCODING 256
SWIDTH 500 0
DWIDTH 10 0
BBX 10 16 0 1
BITMAP
3F00
0000
0C00
0C00
0C00
1400
1600
1200
2200
2200
3F00
2100
4100
4080
4080
E1C0
ENDCHAR
STARTCHAR 0101
ENCODING 257
SWIDTH 500 0
DWIDTH 10 0
BBX 9 13 1 0
BITMAP
7E00
0000
0000
7C00
C600
C200
0200
3E00
4200
8200
8200
8680
7B00
ENDCHAR
STARTCHAR 0102
ENCODING 258
SWIDTH 500 0
DWIDTH 10 0
BBX 8 16 1 1
BITMAP
24
18
10
18
18
28
28
24
24
44
3C
46
42
82
83
C7
ENDCHAR
STARTCHAR 0103
ENCODING 259
SWIDTH 500 0
DWIDTH 10 0
BBX 8 14 2 0
BITMAP
44
38
00
00
78
CC
C4
04
3C
44
84
84
8D
76
ENDCHAR
STARTCHAR 0104
ENCODING 260
SWIDTH 500 0
DWIDTH 10 0
BBX 10 18 0 -2
BITMAP
0800
0800
0C00
0C00
1400
1400
1200
1200
2200
3E00
2300
2100
4100
4180
6380
8140
0200
03C0
ENDCHAR
STARTCHAR 0105
ENCODING 261
SWIDTH 500 0
DWIDTH 10 0
BBX 8 12 2 -2
BITMAP
78
CC
C4
04
3C
44
84
84
8D
76
08
0F
ENDCHAR
STARTCHAR 0106
ENCODING 262
SWIDTH 500 0
DWIDTH 10 0
BBX 7 17 1 0
BITMAP
1C
20
3E
46
42
82
80
80
80
80
80
82
82
C2
42
64
38
ENDCHAR
STARTCHAR 0107
ENCODING 263
SWIDTH 500 0
DWIDTH 10 0
BBX 7 14 2 0
BITMAP
1C
20
00
00
78
C4
84
80
80
80
80
C6
44
38
ENDCHAR
STARTCHAR 0108
ENCODING 264
SWIDTH 500 0
DWIDTH 10 0
BBX 7 17 1 0
BITMAP
38
44
3E
46
42
82
80
80
80
80
80
82
82
C2
42
64
38
ENDCHAR
STARTCHAR 0109
ENCODING 265
SWIDTH 500 0
DWIDTH 10 0
BBX 7 14 2 0
BITMAP
30
48
04
00
78
C4
84
80
80
80
80
C6
44
38
ENDCHAR
STARTCHAR 010C
ENCODING 268
SWIDTH 500 0
DWIDTH 10 0
BBX 7 17 1 0
BITMAP
7C
00
3A
66
42
82
80
80
80
80
80
80
82
82
42
64
38
ENDCHAR
STARTCHAR 010D
ENCODING 269
SWIDTH 500 0
DWIDTH 10 0
BBX 7 14 2 0
BITMAP
4C
30
00
00
78
C4
84
80
80
80
80
C6
44
38
ENDCHAR
STARTCHAR 010E
ENCODING 270
SWIDTH 500 0
DWIDTH 10 0
BBX 8 16 1 1
BITMAP
7C
00
F8
46
42
41
41
41
41
41
41
41
42
42
44
F8
ENDCHAR
STARTCHAR 010F
ENCODING 271
SWIDTH 500 0
DWIDTH 10 0
BBX 9 16 1 0
BITMAP
0180
0D80
0480
0500
0400
0400
3C00
4400
8400
8400
8400
8400
8400
8400
4C00
3A00
ENDCHAR
STARTCHAR 0111
ENCODING 273
SWIDTH 500 0
DWIDTH 10 0
BBX 8 16 1 0
BITMAP
02
06
02
0F
02
02
3E
42
C2
82
82
82
82
C2
46
3D
ENDCHAR
STARTCHAR 0112
ENCODING 274
SWIDTH 500 0
DWIDTH 10 0
BBX 8 16 1 1
BITMAP
7E
00
FF
41
41
41
44
44
7C
44
44
40
41
41
41
FF
ENDCHAR
STARTCHAR 0113
ENCODING 275
SWIDTH 500 0
DWIDTH 10 0
BBX 8 13 1 0
BITMAP
7E
00
00
3C
42
81
FF
80
80
C1
C1
62
3C
ENDCHAR
STARTCHAR 0118
ENCODING 280
SWIDTH 500 0
DWIDTH 10 0
BBX 8 17 1 -2
BITMAP
FF
41
41
41
44
44
7C
44
44
40
41
41
41
FF
10
20
3C
ENDCHAR
STARTCHAR 0119
ENCODING 281
SWIDTH 500 0
DWIDTH 10 0
BBX 8 12 1 -2
BITMAP
3C
62
C2
FE
C1
C0
C2
42
24
18
10
1C
ENDCHAR
STARTCHAR 011A
ENCODING 282
SWIDTH 500 0
DWIDTH 10 0
BBX 8 16 1 1
BITMAP
3C
00
FF
41
41
41
44
44
7C
44
44
40
41
41
41
FF
ENDCHAR
STARTCHAR 011B
ENCODING 283
SWIDTH 500 0
DWIDTH 10 0
BBX 8 14 1 0
BITMAP
24
18
00
00
3C
62
C2
FE
C1
C0
C2
C2
62
3C
ENDCHAR
STARTCHAR 011C
ENCODING 284
SWIDTH 500 0
DWIDTH 10 0
BBX 8 17 1 0
BITMAP
38
04
3E
66
42
82
80
80
80
87
82
82
82
82
42
66
38
ENDCHAR
STARTCHAR 011D
ENCODING 285
SWIDTH 500 0
DWIDTH 10 0
BBX 9 16 1 -2
BITMAP
1800
2400
4000
0000
7F80
C600
8200
C600
7C00
4000
4000
7E00
8100
8100
C300
7E00
ENDCHAR
STARTCHAR 0124
ENCODING 292
SWIDTH 500 0
DWIDTH 10 0
BBX 8 16 1 1
BITMAP
18
24
E7
42
42
42
42
42
7E
42
42
42
42
42
42
E7
ENDCHAR
STARTCHAR 0125
ENCODING 293
SWIDTH 500 0
DWIDTH 10 0
BBX 8 16 1 1
BITMAP
1C
60
C0
40
40
40
40
5C
62
42
42
42
42
42
42
E7
ENDCHAR
STARTCHAR 0127
ENCODING 295
SWIDTH 500 0
DWIDTH 10 0
BBX 9 15 0 1
BITMAP
2000
E000
2000
F800
2000
2000
2E00
3100
2100
2100
2100
2100
2100
2100
7380
ENDCHAR
STARTCHAR 012A
ENCODING 298
SWIDTH 500 0
DWIDTH 10 0
BBX 6 16 2 1
BITMAP
FC
00
F8
20
20
20
20
20
20
20
20
20
20
20
20
78
ENDCHAR
STARTCHAR 012B
ENCODING 299
SWIDTH 500 0
DWIDTH 10 0
BBX 6 12 2 1
BITMAP
FC
00
00
70
10
10
10
10
10
10
10
38
ENDCHAR
STARTCHAR 0134
ENCODING 308
SWIDTH 500 0
DWIDTH 10 0
BBX 8 17 2 0
BITMAP
0E
11
1F
04
04
04
04
04
04
04
04
04
04
C4
84
C8
70
ENDCHAR
STARTCHAR 0135
ENCODING 309
SWIDTH 500 0
DWIDTH 10 0
BBX 7 16 2 -2
BITMAP
18
24
02
18
08
08
08
08
08
08
08
08
08
C8
88
70
ENDCHAR
STARTCHAR 0139
ENCODING 313
SWIDTH 500 0
DWIDTH 10 0
BBX 8 16 1 1
BITMAP
1C
20
F0
40
40
40
40
40
40
40
40
40
41
41
43
FF
ENDCHAR
STARTCHAR 013A
ENCODING 314
SWIDTH 500 0
DWIDTH 10 0
BBX 4 16 3 1
BITMAP
70
C0
C0
40
40
40
40
40
40
40
40
40
40
40
40
E0
ENDCHAR
STARTCHAR 013D
ENCODING 317
SWIDTH 500 0
DWIDTH 10 0
BBX 8 16 1 1
BITMAP
06
06
F6
44
44
40
40
40
40
40
40
40
41
41
43
FF
ENDCHAR
STARTCHAR 013E
ENCODING 318
SWIDTH 500 0
DWIDTH 10 0
BBX 5 15 3 1
BITMAP
18
D8
48
50
40
40
40
40
40
40
40
40
40
40
E0
ENDCHAR
STARTCHAR 0141
ENCODING 321
SWIDTH 500 0
DWIDTH 10 0
BBX 9 14 0 1
BITMAP
7800
2000
2000
2000
2800
3000
2000
6000
A000
2000
2080
2080
2180
7F80
ENDCHAR
STARTCHAR 0142
ENCODING 322
SWIDTH 500 0
DWIDTH 10 0
BBX 5 14 2 2
BITMAP
60
20
20
20
28
30
20
60
A0
20
20
20
20
70
ENDCHAR
STARTCHAR 0143
ENCODING 323
SWIDTH 500 0
DWIDTH 10 0
BBX 8 16 1 0
BITMAP
0C
10
E7
62
62
52
52
52
4A
4A
4A
46
46
46
42
E2
ENDCHAR
STARTCHAR 0144
ENCODING 324
SWIDTH 500 0
DWIDTH 10 0
BBX 8 13 1 1
BITMAP
0E
10
20
40
DC
62
42
42
42
42
42
42
E7
ENDCHAR
STARTCHAR 0147
ENCODING 327
SWIDTH 500 0
DWIDTH 10 0
BBX 8 16 1 0
BITMAP
3C
00
E7
62
62
52
52
52
4A
4A
4A
46
46
46
42
E2
ENDCHAR
STARTCHAR 0148
ENCODING 328
SWIDTH 500 0
DWIDTH 10 0
BBX 8 13 1 1
BITMAP
24
18
00
40
DC
62
42
42
42
42
42
42
E7
ENDCHAR
STARTCHAR 014B
ENCODING 331
SWIDTH 500 0
DWIDTH 10 0
BBX 7 12 1 -1
BITMAP
DC
62
42
42
42
42
42
42
E2
02
12
1C
ENDCHAR
STARTCHAR 014C
ENCODING 332
SWIDTH 500 0
DWIDTH 10 0
BBX 8 17 1 0
BITMAP
7E
00
3C
62
42
81
81
81
81
81
81
81
81
83
42
66
3C
ENDCHAR
STARTCHAR 014D
ENCODING 333
SWIDTH 500 0
DWIDTH 10 0
BBX 8 13 1 0
BITMAP
7E
00
00
3C
42
C3
81
81
81
81
C3
42
3C
ENDCHAR
STARTCHAR 0150
ENCODING 336
SWIDTH 500 0
DWIDTH 10 0
BBX 9 17 1 0
BITMAP
3F80
4800
3C00
6600
4200
8100
8100
8100
8100
8100
8100
8100
8100
8100
4200
6600
3C00
ENDCHAR
STARTCHAR 0151
ENCODING 337
SWIDTH 500 0
DWIDTH 10 0
BBX 9 14 1 0
BITMAP
1F80
2400
4800
0000
3C00
4200
C300
8100
8100
8100
8100
C300
4200
3C00
ENDCHAR
STARTCHAR 0152
ENCODING 338
SWIDTH 500 0
DWIDTH 10 0
BBX 8 15 1 0
BITMAP
3F
49
49
88
8A
8A
8E
8A
8A
88
89
89
49
4F
30
ENDCHAR
STARTCHAR 0153
ENCODING 339
SWIDTH 500 0
DWIDTH 10 0
BBX 8 10 1 0
BITMAP
76
59
89
8F
88
88
89
89
DA
66
ENDCHAR
STARTCHAR 0154
ENCODING 340
SWIDTH 500 0
DWIDTH 10 0
BBX 8 16 1 1
BITMAP
1C
20
FC
46
42
42
42
44
78
48
48
4C
44
46
42
E3
ENDCHAR
STARTCHAR 0155
ENCODING 341
SWIDTH 500 0
DWIDTH 10 0
BBX 6 13 2 1
BITMAP
18
20
40
40
DC
64
40
40
40
40
40
40
E0
ENDCHAR
STARTCHAR 0158
ENCODING 344
SWIDTH 500 0
DWIDTH 10 0
BBX 8 16 1 1
BITMAP
6C
10
FC
46
42
42
42
44
78
48
48
4C
44
46
42
E3
ENDCHAR
STARTCHAR 0159
ENCODING 345
SWIDTH 500 0
DWIDTH 10 0
BBX 6 13 2 1
BITMAP
C8
30
00
40
DC
64
40
40
40
40
40
40
E0
ENDCHAR
STARTCHAR 015A
ENCODING 346
SWIDTH 500 0
DWIDTH 10 0
BBX 8 17 1 0
BITMAP
1C
20
7A
86
82
82
C0
60
30
0C
02
81
81
81
C1
E2
1C
ENDCHAR
STARTCHAR 015B
ENCODING 347
SWIDTH 500 0
DWIDTH 10 0
BBX 7 14 2 0
BITMAP
1C
20
00
00
7C
84
84
80
60
1C
82
82
C6
3C
ENDCHAR
STARTCHAR 015C
ENCODING 348
SWIDTH 500 0
DWIDTH 10 0
BBX 8 17 1 0
BITMAP
38
44
3A
C6
82
82
80
40
30
08
06
02
81
81
C1
E2
1C
ENDCHAR
STARTCHAR 015D
ENCODING 349
SWIDTH 500 0
DWIDTH 10 0
BBX 7 14 2 0
BITMAP
30
48
00
00
7C
84
84
80
60
1C
82
82
C6
3C
ENDCHAR
STARTCHAR 015E
ENCODING 350
SWIDTH 500 0
DWIDTH 10 0
BBX 8 17 1 -1
BITMAP
7A
C6
82
80
40
20
18
06
01
81
81
C2
BC
00
18
18
10
ENDCHAR
STARTCHAR 015F
ENCODING 351
SWIDTH 500 0
DWIDTH 10 0
BBX 7 12 2 -1
BITMAP
7C
84
84
40
38
84
82
C6
3C
30
30
20
ENDCHAR
STARTCHAR 0160
ENCODING 352
SWIDTH 500 0
DWIDTH 10 0
BBX 8 17 1 0
BITMAP
6C
10
3A
C6
82
82
80
40
30
08
06
01
81
81
C3
C6
3C
ENDCHAR
STARTCHAR 0161
ENCODING 353
SWIDTH 500 0
DWIDTH 10 0
BBX 7 14 2 0
BITMAP
48
30
00
00
7C
84
84
80
60
1C
82
82
C6
3C
ENDCHAR
STARTCHAR 0162
ENCODING 354
SWIDTH 500 0
DWIDTH 10 0
BBX 8 17 1 -2
BITMAP
FF
91
91
11
10
10
10
10
10
10
10
10
38
04
18
18
10
ENDCHAR
STARTCHAR 0163
ENCODING 355
SWIDTH 500 0
DWIDTH 10 0
BBX 7 15 2 -2
BITMAP
20
20
60
FC
20
20
20
20
20
24
26
18
30
30
20
ENDCHAR
STARTCHAR 0164
ENCODING 356
SWIDTH 500 0
DWIDTH 10 0
BBX 8 16 1 1
BITMAP
6C
10
FF
91
91
11
10
10
10
10
10
10
10
10
10
38
ENDCHAR
STARTCHAR 0165
ENCODING 357
SWIDTH 500 0
DWIDTH 10 0
BBX 7 16 2 0
BITMAP
0E
0E
02
24
28
60
FC
20
20
20
20
20
20
24
26
18
ENDCHAR
STARTCHAR 016A
ENCODING 362
SWIDTH 500 0
DWIDTH 10 0
BBX 8 17 1 0
BITMAP
7E
00
E3
42
42
42
42
42
42
42
42
42
42
42
42
24
38
ENDCHAR
STARTCHAR 016B
ENCODING 363
SWIDTH 500 0
DWIDTH 10 0
BBX 8 13 1 0
BITMAP
7E
00
00
C6
42
42
42
42
42
42
42
46
3D
ENDCHAR
STARTCHAR 016C
ENCODING 364
SWIDTH 500 0
DWIDTH 10 0
BBX 8 17 1 0
BITMAP
24
18
E7
42
42
42
42
42
42
42
42
42
42
42
42
24
38
ENDCHAR
STARTCHAR 016D
ENCODING 365
SWIDTH 500 0
DWIDTH 10 0
BBX 8 14 1 0
BITMAP
24
18
00
C6
42
42
42
42
42
42
42
42
66
3D
ENDCHAR
STARTCHAR 016E
ENCODING 366
SWIDTH 500 0
DWIDTH 10 0
BBX 8 18 1 0
BITMAP
18
28
28
F7
42
42
42
42
42
42
42
42
42
42
42
42
24
38
ENDCHAR
STARTCHAR 016F
ENCODING 367
SWIDTH 500 0
DWIDTH 10 0
BBX 8 14 1 0
BITMAP
38
28
10
42
C6
42
42
42
42
42
42
42
66
3D
ENDCHAR
STARTCHAR 0170
ENCODING 368
SWIDTH 500 0
DWIDTH 10 0
BBX 8 17 1 0
BITMAP
1F
28
E7
42
42
42
42
42
42
42
42
42
42
42
42
24
38
ENDCHAR
STARTCHAR 0171
ENCODING 369
SWIDTH 500 0
DWIDTH 10 0
BBX 8 14 1 0
BITMAP
1F
24
48
42
C6
42
42
42
42
42
42
42
66
3D
ENDCHAR
STARTCHAR 0179
ENCODING 377
SWIDTH 500 0
DWIDTH 10 0
BBX 8 16 1 1
BITMAP
0C
10
7E
42
44
84
08
08
18
10
30
20
61
43
C3
FF
ENDCHAR
STARTCHAR 017A
ENCODING 378
SWIDTH 500 0
DWIDTH 10 0
BBX 8 13 1 1
BITMAP
06
18
00
00
7F
42
44
0C
18
30
61
C1
FF
ENDCHAR
STARTCHAR 017B
ENCODING 379
SWIDTH 500 0
DWIDTH 10 0
BBX 8 17 1 1
BITMAP
18
18
00
7E
42
44
84
08
08
18
10
30
20
61
43
C3
FF
ENDCHAR
STARTCHAR 017C
ENCODING 380
SWIDTH 500 0
DWIDTH 10 0
BBX 8 13 1 1
BITMAP
0C
0C
00
00
7F
42
44
0C
18
30
61
C1
FF
ENDCHAR
STARTCHAR 017D
ENCODING 381
SWIDTH 500 0
DWIDTH 10 0
BBX 8 16 1 1
BITMAP
3C
00
7E
42
44
84
08
08
18
10
30
20
61
43
C3
FF
ENDCHAR
STARTCHAR 017E
ENCODING 382
SWIDTH 500 0
DWIDTH 10 0
BBX 8 13 1 1
BITMAP
26
18
00
00
7F
42
44
0C
18
30
61
C1
FF
ENDCHAR
STARTCHAR 0193
ENCODING 403
SWIDTH 500 0
DWIDTH 10 0
BBX 9 17 1 0
BITMAP
0300
0580
3D80
4400
4400
8400
8000
8000
8000
8E00
8400
8400
8400
C400
4400
6C00
3000
ENDCHAR
STARTCHAR 01C2
ENCODING 450
SWIDTH 500 0
DWIDTH 10 0
BBX 6 17 2 -2
BITMAP
20
20
20
20
20
FC
20
20
20
20
FC
20
20
20
20
20
20
ENDCHAR
STARTCHAR 01CD
ENCODING 461
SWIDTH 1000 0
DWIDTH 20 0
BBX 14 17 3 1
BITMAP
0840
0780
0000
0300
0300
0500
0580
0880
08C0
0840
1060
1FE0
2020
2030
4010
4018
E03C
ENDCHAR
STARTCHAR 01CE
ENCODING 462
SWIDTH 1000 0
DWIDTH 20 0
BBX 10 13 6 1
BITMAP
7E00
0000
0000
7C00
C600
C200
0200
3E00
4200
8200
8200
86C0
7B00
ENDCHAR
STARTCHAR 01D0
ENCODING 464
SWIDTH 1000 0
DWIDTH 20 0
BBX 5 13 7 1
BITMAP
88
70
00
20
E0
20
20
20
20
20
20
20
70
ENDCHAR
STARTCHAR 01D1
ENCODING 465
SWIDTH 1000 0
DWIDTH 20 0
BBX 14 16 3 2
BITMAP
0FC0
0000
0FC0
1020
2010
4008
8004
8004
8004
8004
8004
8004
4008
6018
3030
0FC0
ENDCHAR
STARTCHAR 01D2
ENCODING 466
SWIDTH 1000 0
DWIDTH 20 0
BBX 10 13 5 1
BITMAP
3F00
0000
0000
1E00
6180
4080
8040
8040
8040
8040
4080
6180
1E00
ENDCHAR
STARTCHAR 01D4
ENCODING 468
SWIDTH 1000 0
DWIDTH 20 0
BBX 12 14 4 0
BITMAP
1980
0600
0000
60C0
A140
2040
2040
2040
2040
2040
2040
30C0
1F60
0010
ENDCHAR
STARTCHAR 01D6
ENCODING 470
SWIDTH 1000 0
DWIDTH 20 0
BBX 12 15 4 0
BITMAP
1F80
30C0
30C0
0000
2040
E1C0
2040
2040
2040
2040
2040
2040
2040
11C0
0E70
ENDCHAR
STARTCHAR 01D8
ENCODING 472
SWIDTH 1000 0
DWIDTH 20 0
BBX 12 15 4 0
BITMAP
0380
34C0
38C0
0000
2040
E1C0
2040
2040
2040
2040
2040
2040
2040
11C0
0E70
ENDCHAR
STARTCHAR 01DA
ENCODING 474
SWIDTH 1000 0
DWIDTH 20 0
BBX 12 15 4 0
BITMAP
1980
36C0
30C0
0000
2040
E1C0
2040
2040
2040
2040
2040
2040
2040
11C0
0E70
ENDCHAR
STARTCHAR 01DC
ENCODING 476
SWIDTH 1000 0
DWIDTH 20 0
BBX 12 15 4 0
BITMAP
3C00
32C0
31C0
0000
2040
E1C0
2040
2040
2040
2040
2040
2040
2040
11C0
0E70
ENDCHAR
STARTCHAR 01F8
ENCODING 504
SWIDTH 500 0
DWIDTH 10 0
BBX 8 16 1 0
BITMAP
70
08
E7
62
62
52
52
52
4A
4A
4A
46
46
46
42
E2
ENDCHAR
STARTCHAR 01F9
ENCODING 505
SWIDTH 500 0
DWIDTH 10 0
BBX 8 13 1 1
BITMAP
70
10
08
40
DC
62
42
42
42
42
42
42
E7
ENDCHAR
STARTCHAR 01FD
ENCODING 509
SWIDTH 500 0
DWIDTH 10 0
BBX 7 14 2 0
BITMAP
1C
20
00
00
EC
92
12
3E
50
90
92
92
AA
6C
ENDCHAR
STARTCHAR 0250
ENCODING 592
SWIDTH 500 0
DWIDTH 10 0
BBX 8 10 0 0
BITMAP
6E
B1
21
21
22
3C
23
23
32
1C
ENDCHAR
STARTCHAR 0251
ENCODING 593
SWIDTH 500 0
DWIDTH 10 0
BBX 8 10 2 1
BITMAP
7C
C4
84
84
84
84
84
84
4F
36
ENDCHAR
STARTCHAR 0252
ENCODING 594
SWIDTH 500 0
DWIDTH 10 0
BBX 8 10 0 0
BITMAP
7C
A2
21
21
21
21
21
21
32
4C
ENDCHAR
STARTCHAR 0253
ENCODING 595
SWIDTH 500 0
DWIDTH 10 0
BBX 7 15 2 0
BITMAP
78
44
8C
8C
80
B8
C4
82
82
82
82
82
82
C4
38
ENDCHAR
STARTCHAR 0254
ENCODING 596
SWIDTH 500 0
DWIDTH 10 0
BBX 7 10 1 0
BITMAP
38
44
86
02
02
02
42
42
44
38
ENDCHAR
STARTCHAR 0255
ENCODING 597
SWIDTH 500 0
DWIDTH 10 0
BBX 7 10 2 0
BITMAP
78
C4
84
80
80
8E
92
E2
44
B8
ENDCHAR
STARTCHAR 0256
ENCODING 598
SWIDTH 500 0
DWIDTH 10 0
BBX 9 17 1 -2
BITMAP
0C00
0400
0400
0400
0400
3C00
4400
8400
8400
8400
8400
8400
8400
4C00
3580
0480
0300
ENDCHAR
STARTCHAR 0257
ENCODING 599
SWIDTH 500 0
DWIDTH 10 0
BBX 9 15 1 0
BITMAP
0300
0580
0580
0400
0400
3C00
4400
8400
8400
8400
8400
8400
8400
4C00
3A00
ENDCHAR
STARTCHAR 0258
ENCODING 600
SWIDTH 500 0
DWIDTH 10 0
BBX 8 10 1 0
BITMAP
3C
66
43
7F
83
03
83
42
44
38
ENDCHAR
STARTCHAR 0259
ENCODING 601
SWIDTH 500 0
DWIDTH 10 0
BBX 8 10 1 0
BITMAP
3C
46
03
03
FF
43
43
42
26
1C
ENDCHAR
STARTCHAR 025A
ENCODING 602
SWIDTH 500 0
DWIDTH 10 0
BBX 9 10 1 0
BITMAP
7000
8800
8A00
0E80
3500
4400
8400
4400
4800
3800
ENDCHAR
STARTCHAR 025C
ENCODING 604
SWIDTH 500 0
DWIDTH 10 0
BBX 7 10 1 0
BITMAP
3C
42
82
06
38
06
82
82
C6
7C
ENDCHAR
STARTCHAR 025E
ENCODING 606
SWIDTH 500 0
DWIDTH 10 0
BBX 7 10 2 0
BITMAP
3C
42
82
02
1C
02
02
82
42
3C
ENDCHAR
STARTCHAR 025F
ENCODING 607
SWIDTH 500 0
DWIDTH 10 0
BBX 7 12 1 -2
BITMAP
3C
08
08
08
08
08
7E
08
08
08
98
F0
ENDCHAR
STARTCHAR 0260
ENCODING 608
SWIDTH 500 0
DWIDTH 10 0
BBX 9 17 1 -2
BITMAP
0300
0580
0580
0400
0400
3C00
4400
8400
8400
8400
8400
4C00
7400
C400
C400
CC00
7800
ENDCHAR
STARTCHAR 0261
ENCODING 609
SWIDTH 500 0
DWIDTH 10 0
BBX 7 12 1 -1
BITMAP
3E
42
82
82
82
C2
66
3A
62
62
64
3C
ENDCHAR
STARTCHAR 0264
ENCODING 612
SWIDTH 500 0
DWIDTH 10 0
BBX 9 10 0 0
BITMAP
6180
9280
1A00
0C00
0C00
0C00
0E00
0A00
0A00
0C00
ENDCHAR
STARTCHAR 0265
ENCODING 613
SWIDTH 500 0
DWIDTH 10 0
BBX 8 12 1 -2
BITMAP
E7
42
42
42
42
42
42
42
66
3A
02
03
ENDCHAR
STARTCHAR 0266
ENCODING 614
SWIDTH 500 0
DWIDTH 10 0
BBX 8 14 1 1
BITMAP
3C
66
46
40
40
5C
62
42
42
42
42
42
42
E7
ENDCHAR
STARTCHAR 0267
ENCODING 615
SWIDTH 500 0
DWIDTH 10 0
BBX 7 17 1 -2
BITMAP
3C
66
46
40
40
5C
62
42
42
42
42
42
42
E2
02
12
1C
ENDCHAR
STARTCHAR 0268
ENCODING 616
SWIDTH 500 0
DWIDTH 10 0
BBX 5 14 3 1
BITMAP
60
60
00
00
60
20
20
20
F8
20
20
20
20
70
ENDCHAR
STARTCHAR 026C
ENCODING 620
SWIDTH 500 0
DWIDTH 10 0
BBX 7 14 1 1
BITMAP
30
10
10
10
10
F0
90
90
7E
10
10
10
10
38
ENDCHAR
STARTCHAR 026D
ENCODING 621
SWIDTH 500 0
DWIDTH 10 0
BBX 6 17 3 -1
BITMAP
C0
40
40
40
40
40
40
40
40
40
40
40
40
40
4C
4C
38
ENDCHAR
STARTCHAR 026E
ENCODING 622
SWIDTH 500 0
DWIDTH 10 0
BBX 8 17 1 -2
BITMAP
C0
40
40
40
40
7F
42
44
48
5E
42
41
41
E1
01
22
1C
ENDCHAR
STARTCHAR 026F
ENCODING 623
SWIDTH 500 0
DWIDTH 10 0
BBX 10 10 0 0
BITMAP
FDC0
4880
4880
4880
4880
4880
4880
4880
4980
3740
ENDCHAR
STARTCHAR 0270
ENCODING 624
SWIDTH 500 0
DWIDTH 10 0
BBX 10 12 0 -2
BITMAP
FDC0
4880
4880
4880
4880
4880
4880
4880
4980
3680
0080
00C0
ENDCHAR
STARTCHAR 0271
ENCODING 625
SWIDTH 500 0
DWIDTH 10 0
BBX 9 12 0 -1
BITMAP
FF00
4880
4880
4880
4880
4880
4880
4880
CC80
3080
0480
0300
ENDCHAR
STARTCHAR 0272
ENCODING 626
SWIDTH 500 0
DWIDTH 10 0
BBX 9 12 0 -1
BITMAP
3600
1900
1100
1100
1100
1100
1100
1100
1380
D000
9000
6000
ENDCHAR
STARTCHAR 0273
ENCODING 627
SWIDTH 500 0
DWIDTH 10 0
BBX 9 12 1 -1
BITMAP
D800
6400
4400
4400
4400
4400
4400
4400
E400
0580
0480
0300
ENDCHAR
STARTCHAR 0275
ENCODING 629
SWIDTH 500 0
DWIDTH 10 0
BBX 8 10 1 0
BITMAP
3C
66
C3
C3
FF
C3
C3
43
66
3C
ENDCHAR
STARTCHAR 0279
ENCODING 633
SWIDTH 500 0
DWIDTH 10 0
BBX 6 10 2 0
BITMAP
1C
08
08
08
08
08
08
98
AC
D0
ENDCHAR
STARTCHAR 027A
ENCODING 634
SWIDTH 500 0
DWIDTH 10 0
BBX 6 15 2 0
BITMAP
1C
08
08
08
08
08
08
08
08
08
08
08
98
AC
D0
ENDCHAR
STARTCHAR 027B
ENCODING 635
SWIDTH 500 0
DWIDTH 10 0
BBX 8 12 1 -2
BITMAP
1C
08
08
08
08
08
08
98
A8
EB
09
06
ENDCHAR
STARTCHAR 027D
ENCODING 637
SWIDTH 500 0
DWIDTH 10 0
BBX 6 12 2 -1
BITMAP
DC
64
40
40
40
40
40
40
40
4C
4C
38
ENDCHAR
STARTCHAR 027E
ENCODING 638
SWIDTH 500 0
DWIDTH 10 0
BBX 6 9 3 1
BITMAP
3C
4C
40
40
40
40
40
40
E0
ENDCHAR
STARTCHAR 0281
ENCODING 641
SWIDTH 500 0
DWIDTH 10 0
BBX 8 9 1 1
BITMAP
E3
46
44
48
7C
42
42
42
FC
ENDCHAR
STARTCHAR 0282
ENCODING 642
SWIDTH 500 0
DWIDTH 10 0
BBX 7 12 2 -2
BITMAP
7C
84
84
80
60
1C
82
82
C6
BC
A0
E0
ENDCHAR
STARTCHAR 0283
ENCODING 643
SWIDTH 500 0
DWIDTH 10 0
BBX 9 17 0 -2
BITMAP
0780
0980
0800
0800
0800
0800
0800
0800
0800
0800
0800
0800
0800
0800
0800
C800
7000
ENDCHAR
STARTCHAR 0284
ENCODING 644
SWIDTH 500 0
DWIDTH 10 0
BBX 10 17 0 -2
BITMAP
0780
0CC0
0800
0800
0800
0800
0800
0800
0800
0800
0800
3F00
0800
0800
0800
C800
F000
ENDCHAR
STARTCHAR 0288
ENCODING 648
SWIDTH 500 0
DWIDTH 10 0
BBX 7 15 2 -2
BITMAP
20
20
60
FC
20
20
20
20
20
20
20
20
26
22
1C
ENDCHAR
STARTCHAR 0289
ENCODING 649
SWIDTH 500 0
DWIDTH 10 0
BBX 8 11 1 1
BITMAP
C6
42
42
42
FF
42
42
42
42
66
3D
ENDCHAR
STARTCHAR 028A
ENCODING 650
SWIDTH 500 0
DWIDTH 10 0
BBX 8 10 1 0
BITMAP
E7
42
82
81
81
81
81
C3
42
3C
ENDCHAR
STARTCHAR 028B
ENCODING 651
SWIDTH 500 0
DWIDTH 10 0
BBX 7 10 1 1
BITMAP
C4
46
42
42
42
42
42
44
44
38
ENDCHAR
STARTCHAR 028C
ENCODING 652
SWIDTH 500 0
DWIDTH 10 0
BBX 8 10 1 1
BITMAP
10
18
18
28
24
24
24
42
42
E7
ENDCHAR
STARTCHAR 028D
ENCODING 653
SWIDTH 500 0
DWIDTH 10 0
BBX 10 10 0 1
BITMAP
1200
1200
3300
3500
3500
3D00
4D00
4880
4880
CDC0
ENDCHAR
STARTCHAR 028E
ENCODING 654
SWIDTH 500 0
DWIDTH 10 0
BBX 10 14 0 1
BITMAP
01C0
02C0
0400
0400
0800
0800
0800
1400
1400
2200
2200
4300
4100
E380
ENDCHAR
STARTCHAR 0290
ENCODING 656
SWIDTH 500 0
DWIDTH 10 0
BBX 9 12 1 -2
BITMAP
FC00
8800
8800
1000
2000
2000
4400
8400
FC00
0400
0580
0380
ENDCHAR
STARTCHAR 0291
ENCODING 657
SWIDTH 500 0
DWIDTH 10 0
BBX 8 11 1 -1
BITMAP
7E
42
44
08
18
30
67
C9
FF
10
20
ENDCHAR
STARTCHAR 0292
ENCODING 658
SWIDTH 500 0
DWIDTH 10 0
BBX 7 12 2 -2
BITMAP
FC
88
90
20
78
84
02
02
02
C2
84
78
ENDCHAR
STARTCHAR 0294
ENCODING 660
SWIDTH 500 0
DWIDTH 10 0
BBX 6 14 2 1
BITMAP
70
C8
C4
04
04
04
08
08
30
20
20
20
20
70
ENDCHAR
STARTCHAR 0295
ENCODING 661
SWIDTH 500 0
DWIDTH 10 0
BBX 6 14 2 1
BITMAP
38
4C
8C
80
80
80
80
40
30
10
10
10
10
38
ENDCHAR
STARTCHAR 0298
ENCODING 664
SWIDTH 500 0
DWIDTH 10 0
BBX 8 10 1 0
BITMAP
3C
66
42
99
99
99
81
42
66
3C
ENDCHAR
STARTCHAR 029D
ENCODING 669
SWIDTH 500 0
DWIDTH 10 0
BBX 7 17 1 -2
BITMAP
18
18
00
00
08
18
08
08
08
08
08
08
08
08
F8
8C
72
ENDCHAR
STARTCHAR 02A1
ENCODING 673
SWIDTH 500 0
DWIDTH 10 0
BBX 6 14 2 1
BITMAP
70
C8
C4
04
04
04
08
08
30
20
F8
20
20
70
ENDCHAR
STARTCHAR 02A2
ENCODING 674
SWIDTH 500 0
DWIDTH 10 0
BBX 6 14 2 1
BITMAP
38
4C
8C
80
80
80
80
40
30
10
7C
10
10
38
ENDCHAR
STARTCHAR 02C7
ENCODING 711
SWIDTH 500 0
DWIDTH 10 0
BBX 6 2 2 13
BITMAP
84
78
ENDCHAR
STARTCHAR 02C8
ENCODING 712
SWIDTH 500 0
DWIDTH 10 0
BBX 1 2 5 15
BITMAP
80
80
ENDCHAR
STARTCHAR 02CC
ENCODING 716
SWIDTH 500 0
DWIDTH 10 0
BBX 1 2 5 -1
BITMAP
80
80
ENDCHAR
STARTCHAR 02D0
ENCODING 720
SWIDTH 500 0
DWIDTH 10 0
BBX 2 9 4 1
BITMAP
C0
C0
80
00
00
00
80
C0
C0
ENDCHAR
STARTCHAR 02D1
ENCODING 721
SWIDTH 500 0
DWIDTH 10 0
BBX 2 3 4 7
BITMAP
C0
C0
80
ENDCHAR
STARTCHAR 02D8
ENCODING 728
SWIDTH 500 0
DWIDTH 10 0
BBX 6 3 2 12
BITMAP
84
CC
78
ENDCHAR
STARTCHAR 02D9
ENCODING 729
SWIDTH 500 0
DWIDTH 10 0
BBX 2 2 4 13
BITMAP
C0
C0
ENDCHAR
STARTCHAR 02DB
ENCODING 731
SWIDTH 500 0
DWIDTH 10 0
BBX 4 4 3 -1
BITMAP
60
80
80
F0
ENDCHAR
STARTCHAR 02DC
ENCODING 732
SWIDTH 500 0
DWIDTH 10 0
BBX 8 2 1 13
BITMAP
73
8E
ENDCHAR
STARTCHAR 02DD
ENCODING 733
SWIDTH 500 0
DWIDTH 10 0
BBX 8 2 1 13
BITMAP
77
88
ENDCHAR
STARTCHAR 02DE
ENCODING 734
SWIDTH 500 0
DWIDTH 10 0
BBX 6 4 2 5
BITMAP
40
A4
24
18
ENDCHAR
STARTCHAR 02E5
ENCODING 741
SWIDTH 500 0
DWIDTH 10 0
BBX 5 20 2 -2
BITMAP
F8
08
08
08
08
08
08
08
08
08
08
08
08
08
08
08
08
08
08
08
ENDCHAR
STARTCHAR 02E6
ENCODING 742
SWIDTH 500 0
DWIDTH 10 0
BBX 5 20 2 -2
BITMAP
08
08
08
08
08
F8
08
08
08
08
08
08
08
08
08
08
08
08
08
08
ENDCHAR
STARTCHAR 02E7
ENCODING 743
SWIDTH 500 0
DWIDTH 10 0
BBX 5 20 2 -2
BITMAP
08
08
08
08
08
08
08
08
08
08
F8
08
08
08
08
08
08
08
08
08
ENDCHAR
STARTCHAR 02E8
ENCODING 744
SWIDTH 500 0
DWIDTH 10 0
BBX 5 20 2 -2
BITMAP
08
08
08
08
08
08
08
08
08
08
08
08
08
08
08
F8
08
08
08
08
ENDCHAR
STARTCHAR 02E9
ENCODING 745
SWIDTH 500 0
DWIDTH 10 0
BBX 5 20 2 -2
BITMAP
08
08
08
08
08
08
08
08
08
08
08
08
08
08
08
08
08
08
08
F8
ENDCHAR
STARTCHAR 0300
ENCODING 768
SWIDTH 500 0
DWIDTH 10 0
BBX 3 1 2 16
BITMAP
E0
ENDCHAR
STARTCHAR 0301
ENCODING 769
SWIDTH 500 0
DWIDTH 10 0
BBX 3 1 5 16
BITMAP
E0
ENDCHAR
STARTCHAR 0302
ENCODING 770
SWIDTH 500 0
DWIDTH 10 0
BBX 2 1 4 16
BITMAP
C0
ENDCHAR
STARTCHAR 0303
ENCODING 771
SWIDTH 500 0
DWIDTH 10 0
BBX 6 2 2 16
BITMAP
7C
80
ENDCHAR
STARTCHAR 0304
ENCODING 772
SWIDTH 500 0
DWIDTH 10 0
BBX 6 1 2 16
BITMAP
FC
ENDCHAR
STARTCHAR 0306
ENCODING 774
SWIDTH 500 0
DWIDTH 10 0
BBX 4 2 3 15
BITMAP
90
60
ENDCHAR
STARTCHAR 0308
ENCODING 776
SWIDTH 500 0
DWIDTH 10 0
BBX 6 2 2 16
BITMAP
CC
CC
ENDCHAR
STARTCHAR 030B
ENCODING 779
SWIDTH 500 0
DWIDTH 10 0
BBX 7 1 3 16
BITMAP
FE
ENDCHAR
STARTCHAR 030C
ENCODING 780
SWIDTH 500 0
DWIDTH 10 0
BBX 4 1 3 16
BITMAP
F0
ENDCHAR
STARTCHAR 030F
ENCODING 783
SWIDTH 500 0
DWIDTH 10 0
BBX 7 1 0 16
BITMAP
FE
ENDCHAR
STARTCHAR 0318
ENCODING 792
SWIDTH 500 0
DWIDTH 10 0
BBX 3 2 3 -2
BITMAP
E0
20
ENDCHAR
STARTCHAR 0319
ENCODING 793
SWIDTH 500 0
DWIDTH 10 0
BBX 3 2 4 -2
BITMAP
E0
80
ENDCHAR
STARTCHAR 031A
ENCODING 794
SWIDTH 500 0
DWIDTH 10 0
BBX 3 2 6 15
BITMAP
E0
20
ENDCHAR
STARTCHAR 031C
ENCODING 796
SWIDTH 500 0
DWIDTH 10 0
BBX 2 4 4 -3
BITMAP
40
80
80
40
ENDCHAR
STARTCHAR 031D
ENCODING 797
SWIDTH 500 0
DWIDTH 10 0
BBX 4 2 3 -2
BITMAP
20
F0
ENDCHAR
STARTCHAR 031E
ENCODING 798
SWIDTH 500 0
DWIDTH 10 0
BBX 4 2 3 -2
BITMAP
F0
20
ENDCHAR
STARTCHAR 031F
ENCODING 799
SWIDTH 500 0
DWIDTH 10 0
BBX 4 2 3 -2
BITMAP
F0
20
ENDCHAR
STARTCHAR 0320
ENCODING 800
SWIDTH 500 0
DWIDTH 10 0
BBX 4 1 3 -1
BITMAP
F0
ENDCHAR
STARTCHAR 0324
ENCODING 804
SWIDTH 500 0
DWIDTH 10 0
BBX 6 2 2 -2
BITMAP
CC
CC
ENDCHAR
STARTCHAR 0325
ENCODING 805
SWIDTH 500 0
DWIDTH 10 0
BBX 2 2 4 -2
BITMAP
C0
C0
ENDCHAR
STARTCHAR 0329
ENCODING 809
SWIDTH 500 0
DWIDTH 10 0
BBX 1 2 5 -2
BITMAP
80
80
ENDCHAR
STARTCHAR 032A
ENCODING 810
SWIDTH 500 0
DWIDTH 10 0
BBX 4 2 3 -2
BITMAP
F0
90
ENDCHAR
STARTCHAR 032C
ENCODING 812
SWIDTH 500 0
DWIDTH 10 0
BBX 4 2 3 -2
BITMAP
90
60
ENDCHAR
STARTCHAR 032F
ENCODING 815
SWIDTH 500 0
DWIDTH 10 0
BBX 4 2 3 -2
BITMAP
60
90
ENDCHAR
STARTCHAR 0330
ENCODING 816
SWIDTH 500 0
DWIDTH 10 0
BBX 6 2 2 -2
BITMAP
64
98
ENDCHAR
STARTCHAR 0334
ENCODING 820
SWIDTH 500 0
DWIDTH 10 0
BBX 6 2 2 7
BITMAP
60
9C
ENDCHAR
STARTCHAR 0339
ENCODING 825
SWIDTH 500 0
DWIDTH 10 0
BBX 2 3 4 -2
BITMAP
C0
40
80
ENDCHAR
STARTCHAR 033A
ENCODING 826
SWIDTH 500 0
DWIDTH 10 0
BBX 4 2 3 -2
BITMAP
90
F0
ENDCHAR
STARTCHAR 033B
ENCODING 827
SWIDTH 500 0
DWIDTH 10 0
BBX 4 2 3 -2
BITMAP
F0
F0
ENDCHAR
STARTCHAR 033C
ENCODING 828
SWIDTH 500 0
DWIDTH 10 0
BBX 6 2 2 -2
BITMAP
78
A4
ENDCHAR
STARTCHAR 033D
ENCODING 829
SWIDTH 500 0
DWIDTH 10 0
BBX 6 2 2 15
BITMAP
FC
78
ENDCHAR
STARTCHAR 0361
ENCODING 865
SWIDTH 500 0
DWIDTH 10 0
BBX 8 2 1 14
BITMAP
7E
81
ENDCHAR
STARTCHAR 0391
ENCODING 913
SWIDTH 1000 0
DWIDTH 20 0
BBX 14 15 3 1
BITMAP
0200
0300
0300
0580
0480
0880
08C0
0840
1060
1FE0
2020
2030
4010
4018
E03C
ENDCHAR
STARTCHAR 0392
ENCODING 914
SWIDTH 1000 0
DWIDTH 20 0
BBX 12 14 4 1
BITMAP
FF80
2040
2020
2020
2020
20C0
3F00
20E0
2030
2010
2010
2010
2060
FFC0
ENDCHAR
STARTCHAR 0393
ENCODING 915
SWIDTH 1000 0
DWIDTH 20 0
BBX 12 14 4 1
BITMAP
FFF0
2030
2010
2010
2000
2000
2000
2000
2000
2000
2000
2000
2000
7800
ENDCHAR
STARTCHAR 0394
ENCODING 916
SWIDTH 1000 0
DWIDTH 20 0
BBX 14 14 3 2
BITMAP
0200
0300
0500
0580
0880
08C0
0840
1060
1020
2030
2010
4018
4018
FFFC
ENDCHAR
STARTCHAR 0395
ENCODING 917
SWIDTH 1000 0
DWIDTH 20 0
BBX 12 14 4 1
BITMAP
FFE0
2020
2020
2020
2080
2080
3F80
2080
2080
2000
2010
2010
2030
FFF0
ENDCHAR
STARTCHAR 0396
ENCODING 918
SWIDTH 1000 0
DWIDTH 20 0
BBX 12 14 4 1
BITMAP
7FE0
6060
40C0
4180
0100
0300
0600
0C00
1800
1810
3010
6030
C070
FFF0
ENDCHAR
STARTCHAR 0397
ENCODING 919
SWIDTH 1000 0
DWIDTH 20 0
BBX 14 14 3 1
BITMAP
F87C
2010
2010
2010
2010
2010
3FF0
2010
2010
2010
2010
2010
2010
7038
ENDCHAR
STARTCHAR 0398
ENCODING 920
SWIDTH 1000 0
DWIDTH 20 0
BBX 14 14 3 1
BITMAP
0FC0
1030
2010
4008
8004
9024
9FE4
9024
8004
800C
4008
6018
3070
0FC0
ENDCHAR
STARTCHAR 0399
ENCODING 921
SWIDTH 1000 0
DWIDTH 20 0
BBX 5 14 7 1
BITMAP
F8
20
20
20
20
20
20
20
20
20
20
20
20
F8
ENDCHAR
STARTCHAR 039A
ENCODING 922
SWIDTH 1000 0
DWIDTH 20 0
BBX 14 14 3 1
BITMAP
F8F8
2040
2080
2100
2200
2400
2E00
3300
2180
20C0
20C0
2060
2030
707C
ENDCHAR
STARTCHAR 039B
ENCODING 923
SWIDTH 1000 0
DWIDTH 20 0
BBX 14 14 3 2
BITMAP
0300
0300
0500
0580
0880
08C0
0840
1040
1060
2020
2030
4010
4010
F03C
ENDCHAR
STARTCHAR 039C
ENCODING 924
SWIDTH 1000 0
DWIDTH 20 0
BBX 18 14 1 1
BITMAP
F001C0
380300
280500
2C0500
240500
260900
260900
221100
231100
212100
21A100
20C100
20C100
F84780
ENDCHAR
STARTCHAR 039D
ENCODING 925
SWIDTH 1000 0
DWIDTH 20 0
BBX 16 14 2 0
BITMAP
F01F
3804
2C04
2604
2204
2304
2184
20C4
2064
2024
2034
201C
200C
F804
ENDCHAR
STARTCHAR 039E
ENCODING 926
SWIDTH 1000 0
DWIDTH 20 0
BBX 12 14 4 1
BITMAP
7FE0
4020
4020
0000
0000
1080
1F80
1080
2080
0000
0000
8010
8010
FFF0
ENDCHAR
STARTCHAR 039F
ENCODING 927
SWIDTH 1000 0
DWIDTH 20 0
BBX 14 14 3 1
BITMAP
0FC0
1030
2010
4008
800C
8004
8004
8004
8004
8004
4008
6018
3030
0FC0
ENDCHAR
STARTCHAR 03A0
ENCODING 928
SWIDTH 1000 0
DWIDTH 20 0
BBX 14 14 3 1
BITMAP
FFFC
2010
2010
2010
2010
2010
2010
2010
2010
2010
2010
2010
2010
7038
ENDCHAR
STARTCHAR 03A1
ENCODING 929
SWIDTH 1000 0
DWIDTH 20 0
BBX 12 14 4 1
BITMAP
FF80
2060
2010
2010
2010
2030
2060
3F80
2000
2000
2000
2000
2000
7000
ENDCHAR
STARTCHAR 03A3
ENCODING 931
SWIDTH 1000 0
DWIDTH 20 0
BBX 13 14 3 1
BITMAP
FFF0
6010
3010
1810
0C00
0600
0300
0200
0400
0800
1008
2008
4018
FFF8
ENDCHAR
STARTCHAR 03A4
ENCODING 932
SWIDTH 1000 0
DWIDTH 20 0
BBX 13 14 4 1
BITMAP
FFF8
8418
8408
0408
0400
0400
0400
0400
0400
0400
0400
0400
0400
0F00
ENDCHAR
STARTCHAR 03A5
ENCODING 933
SWIDTH 1000 0
DWIDTH 20 0
BBX 13 14 3 1
BITMAP
38E0
4510
8610
8208
8208
0200
0200
0200
0200
0200
0200
0200
0200
0700
ENDCHAR
STARTCHAR 03A6
ENCODING 934
SWIDTH 1000 0
DWIDTH 20 0
BBX 13 14 3 1
BITMAP
0F80
0200
0F80
3260
4210
8208
8208
8208
8208
4210
2220
1FC0
0200
0700
ENDCHAR
STARTCHAR 03A7
ENCODING 935
SWIDTH 1000 0
DWIDTH 20 0
BBX 14 14 3 1
BITMAP
FC7C
3020
1840
0C40
0C80
0700
0300
0300
0480
08C0
1060
1030
2018
F07C
ENDCHAR
STARTCHAR 03A8
ENCODING 936
SWIDTH 1000 0
DWIDTH 20 0
BBX 16 14 2 1
BITMAP
63C6
910A
1109
1108
1108
1108
1108
1110
0910
0520
03C0
0100
0100
03C0
ENDCHAR
STARTCHAR 03A9
ENCODING 937
SWIDTH 1000 0
DWIDTH 20 0
BBX 12 14 4 1
BITMAP
1F00
30C0
4020
4020
8010
8010
8010
8010
8010
4020
6060
1090
8910
F9F0
ENDCHAR
STARTCHAR 03B1
ENCODING 945
SWIDTH 1000 0
DWIDTH 20 0
BBX 11 9 4 1
BITMAP
0E60
3140
2180
4180
C100
8100
8300
8D20
78C0
ENDCHAR
STARTCHAR 03B2
ENCODING 946
SWIDTH 1000 0
DWIDTH 20 0
BBX 10 17 4 -2
BITMAP
0780
0CC0
0840
1040
1040
1080
2F00
2100
2080
2080
4080
4080
4300
7E00
4000
C000
C000
ENDCHAR
STARTCHAR 03B3
ENCODING 947
SWIDTH 1000 0
DWIDTH 20 0
BBX 11 12 4 -2
BITMAP
7060
8840
0880
0880
0500
0600
0600
0400
0400
0C00
0C00
0C00
ENDCHAR
STARTCHAR 03B4
ENCODING 948
SWIDTH 1000 0
DWIDTH 20 0
BBX 9 14 5 1
BITMAP
1E00
2300
2080
1000
0C00
0F00
3100
4080
C080
8080
8180
8100
4600
3C00
ENDCHAR
STARTCHAR 03B5
ENCODING 949
SWIDTH 1000 0
DWIDTH 20 0
BBX 9 9 5 1
BITMAP
3E00
6180
4000
4000
3C00
C000
8000
C080
7F00
ENDCHAR
STARTCHAR 03B6
ENCODING 950
SWIDTH 1000 0
DWIDTH 20 0
BBX 9 17 5 -1
BITMAP
1980
2300
2600
1800
1000
2000
4000
4000
8000
8000
8000
C000
6000
1E00
0100
1100
1E00
ENDCHAR
STARTCHAR 03B7
ENCODING 951
SWIDTH 1000 0
DWIDTH 20 0
BBX 10 12 4 -2
BITMAP
7380
9C40
1840
1040
10C0
3080
2080
2080
6100
0100
0100
0300
ENDCHAR
STARTCHAR 03B8
ENCODING 952
SWIDTH 1000 0
DWIDTH 20 0
BBX 9 14 5 1
BITMAP
0F00
1980
3080
6080
6080
4080
FF80
C080
8100
8100
8300
8200
4C00
3800
ENDCHAR
STARTCHAR 03B9
ENCODING 953
SWIDTH 1000 0
DWIDTH 20 0
BBX 5 9 7 1
BITMAP
30
20
40
40
80
80
80
88
70
ENDCHAR
STARTCHAR 03BA
ENCODING 954
SWIDTH 1000 0
DWIDTH 20 0
BBX 10 9 5 1
BITMAP
10C0
1300
3400
2800
3C00
6400
4400
44C0
C300
ENDCHAR
STARTCHAR 03BB
ENCODING 955
SWIDTH 1000 0
DWIDTH 20 0
BBX 11 14 4 1
BITMAP
0C00
1600
0200
0200
0200
0200
0600
0E00
0A00
1A00
3200
2220
6320
C1C0
ENDCHAR
STARTCHAR 03BC
ENCODING 956
SWIDTH 1000 0
DWIDTH 20 0
BBX 12 13 4 -2
BITMAP
1040
1840
1040
3080
2080
2100
6100
6110
7320
5CC0
8000
8000
8000
ENDCHAR
STARTCHAR 03BD
ENCODING 957
SWIDTH 1000 0
DWIDTH 20 0
BBX 11 10 4 0
BITMAP
3060
C860
0820
0820
0840
08C0
0980
1700
1C00
1000
ENDCHAR
STARTCHAR 03BE
ENCODING 958
SWIDTH 1000 0
DWIDTH 20 0
BBX 8 18 6 -2
BITMAP
20
27
3C
10
20
20
20
2E
3C
40
80
80
80
40
38
04
64
38
ENDCHAR
STARTCHAR 03BF
ENCODING 959
SWIDTH 1000 0
DWIDTH 20 0
BBX 8 9 6 1
BITMAP
3C
62
41
81
81
81
82
46
3C
ENDCHAR
STARTCHAR 03C0
ENCODING 960
SWIDTH 1000 0
DWIDTH 20 0
BBX 10 10 5 1
BITMAP
0040
7FC0
9200
1200
2400
2400
2400
6480
44C0
C380
ENDCHAR
STARTCHAR 03C1
ENCODING 961
SWIDTH 1000 0
DWIDTH 20 0
BBX 10 12 4 -2
BITMAP
0700
1880
1040
2040
2040
2040
5080
4F00
4000
4000
C000
C000
ENDCHAR
STARTCHAR 03C2
ENCODING 962
SWIDTH 500 0
DWIDTH 10 0
BBX 8 12 1 -2
BITMAP
3E
61
43
43
40
20
10
08
04
04
CC
78
ENDCHAR
STARTCHAR 03C3
ENCODING 963
SWIDTH 1000 0
DWIDTH 20 0
BBX 10 10 6 1
BITMAP
1FC0
6200
4100
8100
8100
8100
8100
8200
4600
3C00
ENDCHAR
STARTCHAR 03C4
ENCODING 964
SWIDTH 1000 0
DWIDTH 20 0
BBX 10 10 5 1
BITMAP
0040
7FC0
8800
0800
1000
1000
2000
2000
2300
1C00
ENDCHAR
STARTCHAR 03C5
ENCODING 965
SWIDTH 1000 0
DWIDTH 20 0
BBX 11 9 4 1
BITMAP
70C0
90E0
1020
1020
2020
2020
2040
3080
1F00
ENDCHAR
STARTCHAR 03C6
ENCODING 966
SWIDTH 1000 0
DWIDTH 20 0
BBX 10 16 5 -2
BITMAP
0300
0200
0200
0200
3D80
4480
C440
8840
8840
8840
8880
5180
3E00
1000
1000
3000
ENDCHAR
STARTCHAR 03C7
ENCODING 967
SWIDTH 1000 0
DWIDTH 20 0
BBX 10 12 5 -2
BITMAP
70C0
9180
0900
0A00
0C00
0C00
0800
1400
3400
6440
4480
8380
ENDCHAR
STARTCHAR 03C8
ENCODING 968
SWIDTH 1000 0
DWIDTH 20 0
BBX 11 16 5 -2
BITMAP
0300
0300
0200
1280
2240
4420
8420
8420
8420
8820
8840
4880
3F00
1000
1000
3000
ENDCHAR
STARTCHAR 03C9
ENCODING 969
SWIDTH 1000 0
DWIDTH 20 0
BBX 12 10 4 1
BITMAP
1040
2020
2010
4210
8610
8610
8610
8430
CE60
73C0
ENDCHAR
STARTCHAR 0401
ENCODING 1025
SWIDTH 1000 0
DWIDTH 20 0
BBX 12 17 4 1
BITMAP
18C0
18C0
0000
FFE0
2020
2020
2020
2080
2080
3F80
2080
2080
2000
2010
2010
2030
FFF0
ENDCHAR
STARTCHAR 0410
ENCODING 1040
SWIDTH 1000 0
DWIDTH 20 0
BBX 14 15 3 1
BITMAP
0200
0300
0300
0580
0480
0880
08C0
0840
1060
1FE0
2020
2030
4010
4018
E03C
ENDCHAR
STARTCHAR 0411
ENCODING 1041
SWIDTH 1000 0
DWIDTH 20 0
BBX 12 14 4 1
BITMAP
FFE0
2060
2020
2020
2000
2000
3FC0
2060
2010
2010
2010
2010
2060
FFC0
ENDCHAR
STARTCHAR 0412
ENCODING 1042
SWIDTH 1000 0
DWIDTH 20 0
BBX 12 14 4 1
BITMAP
FF80
2040
2020
2020
2020
20C0
3F00
20E0
2030
2010
2010
2010
2060
FFC0
ENDCHAR
STARTCHAR 0413
ENCODING 1043
SWIDTH 1000 0
DWIDTH 20 0
BBX 12 14 4 1
BITMAP
FFF0
2030
2010
2010
2000
2000
2000
2000
2000
2000
2000
2000
2000
7800
ENDCHAR
STARTCHAR 0414
ENCODING 1044
SWIDTH 1000 0
DWIDTH 20 0
BBX 14 16 3 -2
BITMAP
3FFC
0810
0810
0810
0810
0810
0810
1010
1010
1010
2010
2010
4010
FFFC
8004
8004
ENDCHAR
STARTCHAR 0415
ENCODING 1045
SWIDTH 1000 0
DWIDTH 20 0
BBX 12 14 4 1
BITMAP
FFE0
2020
2020
2020
2080
2080
3F80
2080
2080
2000
2010
2010
2030
FFF0
ENDCHAR
STARTCHAR 0416
ENCODING 1046
SWIDTH 1000 0
DWIDTH 20 0
BBX 17 14 1 1
BITMAP
E3E380
D08580
108400
108800
088800
089000
07E000
06B000
0C9800
088800
188C00
308600
208200
F1C780
ENDCHAR
STARTCHAR 0417
ENCODING 1047
SWIDTH 1000 0
DWIDTH 20 0
BBX 10 14 5 1
BITMAP
1F00
6080
4040
0040
0040
0180
1E00
0180
00C0
0040
8040
C040
E080
7F00
ENDCHAR
STARTCHAR 0418
ENCODING 1048
SWIDTH 1000 0
DWIDTH 20 0
BBX 14 14 3 1
BITMAP
F87C
2010
2010
2030
2050
2090
2110
2210
2C10
3010
2010
2010
2010
7878
ENDCHAR
STARTCHAR 0419
ENCODING 1049
SWIDTH 1000 0
DWIDTH 20 0
BBX 14 16 3 1
BITMAP
0CC0
0780
F87C
2010
2010
2030
2050
2090
2110
2210
2C10
3010
2010
2010
2010
7878
ENDCHAR
STARTCHAR 041A
ENCODING 1050
SWIDTH 1000 0
DWIDTH 20 0
BBX 14 14 3 2
BITMAP
F838
2058
2098
2080
2100
2200
3E00
2300
2180
20C0
20C0
2060
2030
707C
ENDCHAR
STARTCHAR 041B
ENCODING 1051
SWIDTH 1000 0
DWIDTH 20 0
BBX 14 14 3 1
BITMAP
0FFC
0410
0410
0410
0410
0410
0410
0410
0410
0410
C410
C410
8810
7038
ENDCHAR
STARTCHAR 041C
ENCODING 1052
SWIDTH 1000 0
DWIDTH 20 0
BBX 16 14 2 1
BITMAP
F00F
3814
2814
2824
2C24
2424
4644
4644
4286
4386
4186
4106
4006
F00F
ENDCHAR
STARTCHAR 041D
ENCODING 1053
SWIDTH 1000 0
DWIDTH 20 0
BBX 14 14 3 1
BITMAP
F87C
2010
2010
2010
2010
2010
3FF0
2010
2010
2010
2010
2010
2010
7038
ENDCHAR
STARTCHAR 041E
ENCODING 1054
SWIDTH 1000 0
DWIDTH 20 0
BBX 14 14 3 1
BITMAP
0FC0
1030
2010
4008
800C
8004
8004
8004
8004
8004
4008
6018
3030
0FC0
ENDCHAR
STARTCHAR 041F
ENCODING 1055
SWIDTH 1000 0
DWIDTH 20 0
BBX 14 14 3 1
BITMAP
FFFC
2010
2010
2010
2010
2010
2010
2010
2010
2010
2010
2010
2010
7038
ENDCHAR
STARTCHAR 0420
ENCODING 1056
SWIDTH 1000 0
DWIDTH 20 0
BBX 12 14 4 1
BITMAP
FF80
2060
2010
2010
2010
2030
2060
3F80
2000
2000
2000
2000
2000
7000
ENDCHAR
STARTCHAR 0421
ENCODING 1057
SWIDTH 1000 0
DWIDTH 20 0
BBX 13 14 3 1
BITMAP
07E0
1818
3008
6008
C000
8000
8000
8000
8000
8008
4008
6008
3838
0FE0
ENDCHAR
STARTCHAR 0422
ENCODING 1058
SWIDTH 1000 0
DWIDTH 20 0
BBX 13 14 4 1
BITMAP
FFF8
8418
8408
0408
0400
0400
0400
0400
0400
0400
0400
0400
0400
0F00
ENDCHAR
STARTCHAR 0423
ENCODING 1059
SWIDTH 1000 0
DWIDTH 20 0
BBX 14 14 3 1
BITMAP
FC7C
3010
1820
0820
0C40
0440
0680
0280
0380
0100
0100
6200
6400
3800
ENDCHAR
STARTCHAR 0424
ENCODING 1060
SWIDTH 1000 0
DWIDTH 20 0
BBX 13 14 3 1
BITMAP
0F80
0200
0F80
3260
4210
8208
8208
8208
8208
4210
2220
1FC0
0200
0700
ENDCHAR
STARTCHAR 0425
ENCODING 1061
SWIDTH 1000 0
DWIDTH 20 0
BBX 14 14 3 1
BITMAP
FC7C
3020
1840
0C40
0C80
0700
0300
0300
0480
08C0
1060
1030
2018
F07C
ENDCHAR
STARTCHAR 0426
ENCODING 1062
SWIDTH 1000 0
DWIDTH 20 0
BBX 14 16 3 -2
BITMAP
F87C
2010
2010
2010
2010
2010
2010
2010
2010
2010
2010
2010
2010
FFFC
0004
0004
ENDCHAR
STARTCHAR 0427
ENCODING 1063
SWIDTH 1000 0
DWIDTH 20 0
BBX 14 14 3 1
BITMAP
F87C
2010
2010
2010
2010
2010
2010
1030
0FD0
0010
0010
0010
0010
0078
ENDCHAR
STARTCHAR 0428
ENCODING 1064
SWIDTH 1000 0
DWIDTH 20 0
BBX 18 14 1 1
BITMAP
FBE7C0
208100
208100
208100
208100
208100
208100
208100
208100
208100
208100
208100
208100
FFFFC0
ENDCHAR
STARTCHAR 0429
ENCODING 1065
SWIDTH 1000 0
DWIDTH 20 0
BBX 18 16 1 -2
BITMAP
FBEFC0
208200
208200
208200
208200
208200
208200
208200
208200
208200
208200
208200
208200
FFFFC0
0000C0
000040
ENDCHAR
STARTCHAR 042A
ENCODING 1066
SWIDTH 1000 0
DWIDTH 20 0
BBX 14 14 3 1
BITMAP
FE00
8800
8800
0800
0800
0800
0FE0
0818
0804
0804
0804
0804
0818
3FF0
ENDCHAR
STARTCHAR 042B
ENCODING 1067
SWIDTH 1000 0
DWIDTH 20 0
BBX 16 14 2 1
BITMAP
F81F
2004
2004
2004
2004
2004
3F84
20C4
2024
2024
2024
2024
20C4
FF9F
ENDCHAR
STARTCHAR 042C
ENCODING 1068
SWIDTH 1000 0
DWIDTH 20 0
BBX 12 14 4 1
BITMAP
F800
2000
2000
2000
2000
2000
3F80
2060
2010
2010
2010
2010
2060
FFC0
ENDCHAR
STARTCHAR 042D
ENCODING 1069
SWIDTH 1000 0
DWIDTH 20 0
BBX 13 14 4 1
BITMAP
3F00
E0C0
8060
8030
0018
0018
1E18
63F8
0018
0018
0030
8030
C0E0
3F80
ENDCHAR
STARTCHAR 042E
ENCODING 1070
SWIDTH 1000 0
DWIDTH 20 0
BBX 16 14 1 1
BITMAP
F8F8
2184
2302
2202
2201
2201
3E01
2601
2201
2201
2302
2302
2184
70F8
ENDCHAR
STARTCHAR 042F
ENCODING 1071
SWIDTH 1000 0
DWIDTH 20 0
BBX 13 15 4 0
BITMAP
0FF8
1020
2020
2020
2020
1020
0FE0
0620
0420
0C20
0820
1020
2020
C070
0088
ENDCHAR
STARTCHAR 0430
ENCODING 1072
SWIDTH 1000 0
DWIDTH 20 0
BBX 10 9 6 0
BITMAP
7C00
C600
C200
0200
3E00
C200
8200
8200
FFC0
ENDCHAR
STARTCHAR 0431
ENCODING 1073
SWIDTH 1000 0
DWIDTH 20 0
BBX 10 14 5 2
BITMAP
0040
0F80
3F00
6000
4000
DE00
A180
C0C0
8040
8040
8040
40C0
6180
1F00
ENDCHAR
STARTCHAR 0432
ENCODING 1074
SWIDTH 1000 0
DWIDTH 20 0
BBX 10 9 4 1
BITMAP
FF00
2080
2080
2080
3F00
20C0
2040
2080
FF00
ENDCHAR
STARTCHAR 0433
ENCODING 1075
SWIDTH 1000 0
DWIDTH 20 0
BBX 10 9 5 1
BITMAP
FFC0
2040
2040
2040
2000
2000
2000
2000
7000
ENDCHAR
STARTCHAR 0434
ENCODING 1076
SWIDTH 1000 0
DWIDTH 20 0
BBX 12 11 4 -2
BITMAP
3FF0
0840
0840
1040
1040
1040
2040
4040
FFF0
8010
8010
ENDCHAR
STARTCHAR 0435
ENCODING 1077
SWIDTH 1000 0
DWIDTH 20 0
BBX 9 9 5 1
BITMAP
3E00
6180
C080
FF80
C000
C000
C080
6180
3E00
ENDCHAR
STARTCHAR 0436
ENCODING 1078
SWIDTH 1000 0
DWIDTH 20 0
BBX 15 9 2 1
BITMAP
638C
5114
1120
0920
0FE0
1110
3118
2108
F39E
ENDCHAR
STARTCHAR 0437
ENCODING 1079
SWIDTH 1000 0
DWIDTH 20 0
BBX 8 9 6 1
BITMAP
7C
42
82
02
3C
07
81
C1
FA
ENDCHAR
STARTCHAR 0438
ENCODING 1080
SWIDTH 1000 0
DWIDTH 20 0
BBX 12 9 4 1
BITMAP
F9F0
2040
20C0
2340
2440
2840
3040
2040
70E0
ENDCHAR
STARTCHAR 0439
ENCODING 1081
SWIDTH 1000 0
DWIDTH 20 0
BBX 12 12 4 1
BITMAP
1980
0F00
0000
F9F0
2040
20C0
2340
2440
2840
3040
2040
70E0
ENDCHAR
STARTCHAR 043A
ENCODING 1082
SWIDTH 1000 0
DWIDTH 20 0
BBX 11 9 4 1
BITMAP
F8E0
2160
2100
2600
3A00
2300
2180
2080
71E0
ENDCHAR
STARTCHAR 043B
ENCODING 1083
SWIDTH 1000 0
DWIDTH 20 0
BBX 12 9 4 1
BITMAP
1FF0
0840
0840
0840
0840
0840
C840
C840
70E0
ENDCHAR
STARTCHAR 043C
ENCODING 1084
SWIDTH 1000 0
DWIDTH 20 0
BBX 14 9 3 1
BITMAP
F03C
3830
2850
2C50
2490
2490
2310
2310
7238
ENDCHAR
STARTCHAR 043D
ENCODING 1085
SWIDTH 1000 0
DWIDTH 20 0
BBX 12 9 4 1
BITMAP
F9F0
2040
2040
2040
3FC0
2040
2040
2040
70E0
ENDCHAR
STARTCHAR 043E
ENCODING 1086
SWIDTH 1000 0
DWIDTH 20 0
BBX 10 9 5 1
BITMAP
1E00
6180
C0C0
8040
8040
8040
C0C0
6180
1E00
ENDCHAR
STARTCHAR 043F
ENCODING 1087
SWIDTH 1000 0
DWIDTH 20 0
BBX 12 9 4 1
BITMAP
FFF0
2040
2040
2040
2040
2040
2040
2040
70E0
ENDCHAR
STARTCHAR 0440
ENCODING 1088
SWIDTH 1000 0
DWIDTH 20 0
BBX 10 12 4 -1
BITMAP
EF00
3080
2040
2040
2040
2040
2080
3F00
2000
2000
2000
7000
ENDCHAR
STARTCHAR 0441
ENCODING 1089
SWIDTH 1000 0
DWIDTH 20 0
BBX 9 9 5 1
BITMAP
1F00
6180
4180
8000
8000
8000
8000
6080
1F00
ENDCHAR
STARTCHAR 0442
ENCODING 1090
SWIDTH 1000 0
DWIDTH 20 0
BBX 10 9 5 1
BITMAP
FFC0
88C0
8840
0800
0800
0800
0800
0800
1C00
ENDCHAR
STARTCHAR 0443
ENCODING 1091
SWIDTH 1000 0
DWIDTH 20 0
BBX 12 12 4 -2
BITMAP
F8F0
3040
1840
1880
0C80
0500
0700
0200
0200
3400
3400
1800
ENDCHAR
STARTCHAR 0444
ENCODING 1092
SWIDTH 1000 0
DWIDTH 20 0
BBX 11 17 4 -1
BITMAP
1C00
0400
0400
0400
0400
3F80
4440
8420
8420
8420
8420
4440
3F80
0400
0400
0400
0E00
ENDCHAR
STARTCHAR 0445
ENCODING 1093
SWIDTH 1000 0
DWIDTH 20 0
BBX 11 9 4 1
BITMAP
F9E0
1080
0900
0600
0600
0B00
1180
20C0
F1E0
ENDCHAR
STARTCHAR 0446
ENCODING 1094
SWIDTH 1000 0
DWIDTH 20 0
BBX 12 11 4 -2
BITMAP
F9F0
2040
2040
2040
2040
2040
2040
2040
FFF0
0010
0010
ENDCHAR
STARTCHAR 0447
ENCODING 1095
SWIDTH 1000 0
DWIDTH 20 0
BBX 12 9 4 1
BITMAP
F9F0
2040
2040
2040
3040
1FC0
0040
0040
00E0
ENDCHAR
STARTCHAR 0448
ENCODING 1096
SWIDTH 1000 0
DWIDTH 20 0
BBX 16 9 2 1
BITMAP
F3DF
2104
2104
2104
2104
2104
2104
2104
FFFF
ENDCHAR
STARTCHAR 0449
ENCODING 1097
SWIDTH 1000 0
DWIDTH 20 0
BBX 16 11 2 -2
BITMAP
F3DF
2104
2104
2104
2104
2104
2104
2104
FFFF
0001
0001
ENDCHAR
STARTCHAR 044A
ENCODING 1098
SWIDTH 1000 0
DWIDTH 20 0
BBX 11 9 4 1
BITMAP
FC00
9000
1000
1000
1F80
1060
1020
1060
7FC0
ENDCHAR
STARTCHAR 044B
ENCODING 1099
SWIDTH 1000 0
DWIDTH 20 0
BBX 14 9 3 1
BITMAP
F87C
2010
2010
2010
3F10
2090
2090
2190
FF7C
ENDCHAR
STARTCHAR 044C
ENCODING 1100
SWIDTH 1000 0
DWIDTH 20 0
BBX 10 9 5 1
BITMAP
F800
2000
2000
2000
3F80
20C0
2040
20C0
FF80
ENDCHAR
STARTCHAR 044D
ENCODING 1101
SWIDTH 1000 0
DWIDTH 20 0
BBX 10 9 5 1
BITMAP
3F00
6180
40C0
0040
3FC0
4040
0080
C180
3E00
ENDCHAR
STARTCHAR 044E
ENCODING 1102
SWIDTH 1000 0
DWIDTH 20 0
BBX 15 9 2 1
BITMAP
F9F0
238C
2306
2602
3E02
2602
2306
238C
71F8
ENDCHAR
STARTCHAR 044F
ENCODING 1103
SWIDTH 1000 0
DWIDTH 20 0
BBX 11 10 5 0
BITMAP
3FE0
6080
4080
6080
3F80
0880
1880
3080
41C0
8220
ENDCHAR
STARTCHAR 0451
ENCODING 1105
SWIDTH 1000 0
DWIDTH 20 0
BBX 9 13 5 1
BITMAP
3180
3180
0000
0000
3E00
6180
C080
FF80
C000
C000
C080
6180
3E00
ENDCHAR
STARTCHAR 1E3E
ENCODING 7742
SWIDTH 500 0
DWIDTH 10 0
BBX 10 16 0 1
BITMAP
0700
0800
E1C0
6180
6180
7180
5280
5280
5280
5A80
4C80
4C80
4C80
4C80
4880
E9C0
ENDCHAR
STARTCHAR 1E3F
ENCODING 7743
SWIDTH 500 0
DWIDTH 10 0
BBX 10 13 0 1
BITMAP
0F00
0800
1000
4000
FF00
4880
4880
4880
4880
4880
4880
4880
CDC0
ENDCHAR
STARTCHAR 1F70
ENCODING 8048
SWIDTH 500 0
DWIDTH 10 0
BBX 8 14 2 0
BITMAP
60
10
08
04
7C
C4
84
84
84
84
84
84
4F
36
ENDCHAR
STARTCHAR 1F71
ENCODING 8049
SWIDTH 500 0
DWIDTH 10 0
BBX 8 14 2 0
BITMAP
1C
20
00
04
7C
C4
84
84
84
84
84
84
4F
36
ENDCHAR
STARTCHAR 1F72
ENCODING 8050
SWIDTH 500 0
DWIDTH 10 0
BBX 7 14 2 0
BITMAP
60
10
08
00
78
84
84
C0
38
C0
82
82
C6
7C
ENDCHAR
STARTCHAR 1F73
ENCODING 8051
SWIDTH 500 0
DWIDTH 10 0
BBX 7 14 2 0
BITMAP
1C
20
00
00
78
84
84
C0
38
C0
82
82
C6
7C
ENDCHAR
STARTCHAR 2010
ENCODING 8208
SWIDTH 1000 0
DWIDTH 20 0
BBX 6 1 7 7
BITMAP
FC
ENDCHAR
STARTCHAR 2013
ENCODING 8211
SWIDTH 500 0
DWIDTH 10 0
BBX 4 1 3 7
BITMAP
F0
ENDCHAR
STARTCHAR 2014
ENCODING 8212
SWIDTH 1000 0
DWIDTH 20 0
BBX 18 1 1 7
BITMAP
FFFFC0
ENDCHAR
STARTCHAR 2015
ENCODING 8213
SWIDTH 1000 0
DWIDTH 20 0
BBX 18 1 1 7
BITMAP
FFFFC0
ENDCHAR
STARTCHAR 2016
ENCODING 8214
SWIDTH 1000 0
DWIDTH 20 0
BBX 4 20 8 -2
BITMAP
90
90
90
90
90
90
90
90
90
90
90
90
90
90
90
90
90
90
90
90
ENDCHAR
STARTCHAR 2018
ENCODING 8216
SWIDTH 1000 0
DWIDTH 20 0
BBX 2 6 16 11
BITMAP
40
40
80
C0
C0
C0
ENDCHAR
STARTCHAR 2019
ENCODING 8217
SWIDTH 1000 0
DWIDTH 20 0
BBX 3 6 1 11
BITMAP
60
60
60
20
40
80
ENDCHAR
STARTCHAR 201C
ENCODING 8220
SWIDTH 1000 0
DWIDTH 20 0
BBX 6 6 12 11
BITMAP
44
44
88
CC
CC
CC
ENDCHAR
STARTCHAR 201D
ENCODING 8221
SWIDTH 1000 0
DWIDTH 20 0
BBX 7 6 1 11
BITMAP
66
66
66
22
44
88
ENDCHAR
STARTCHAR 2020
ENCODING 8224
SWIDTH 1000 0
DWIDTH 20 0
BBX 9 18 6 -1
BITMAP
1C00
1C00
1C00
EB80
FF80
EB80
0800
1C00
0800
0800
0800
0800
0800
0800
0800
0800
0800
0800
ENDCHAR
STARTCHAR 2021
ENCODING 8225
SWIDTH 1000 0
DWIDTH 20 0
BBX 8 19 6 -2
BITMAP
18
18
18
F7
FF
18
18
10
10
10
10
10
18
18
F7
FF
18
18
18
ENDCHAR
STARTCHAR 2022
ENCODING 8226
SWIDTH 500 0
DWIDTH 10 0
BBX 4 4 3 6
BITMAP
60
F0
F0
70
ENDCHAR
STARTCHAR 2025
ENCODING 8229
SWIDTH 1000 0
DWIDTH 20 0
BBX 13 3 4 6
BITMAP
E038
E038
E038
ENDCHAR
STARTCHAR 2026
ENCODING 8230
SWIDTH 1000 0
DWIDTH 20 0
BBX 15 2 2 6
BITMAP
C186
C186
ENDCHAR
STARTCHAR 2030
ENCODING 8240
SWIDTH 1000 0
DWIDTH 20 0
BBX 18 18 1 -1
BITMAP
006000
784000
CC8000
848000
850000
850000
CE0000
7A0000
040000
040000
05C780
0A2CC0
0A2840
122840
122840
222CC0
21C780
400000
ENDCHAR
STARTCHAR 2032
ENCODING 8242
SWIDTH 1000 0
DWIDTH 20 0
BBX 3 5 1 11
BITMAP
60
40
40
80
80
ENDCHAR
STARTCHAR 2033
ENCODING 8243
SWIDTH 1000 0
DWIDTH 20 0
BBX 6 5 1 11
BITMAP
6C
48
48
90
90
ENDCHAR
STARTCHAR 203B
ENCODING 8251
SWIDTH 1000 0
DWIDTH 20 0
BBX 16 16 2 -1
BITMAP
81C2
C1C3
6186
300C
1818
0C30
0660
E3C7
E187
E3C7
0660
0C30
1818
31CC
61C6
C183
ENDCHAR
STARTCHAR 203C
ENCODING 8252
SWIDTH 500 0
DWIDTH 10 0
BBX 6 17 2 -1
BITMAP
CC
CC
CC
CC
CC
CC
CC
CC
CC
88
88
88
00
00
00
CC
CC
ENDCHAR
STARTCHAR 203E
ENCODING 8254
SWIDTH 1000 0
DWIDTH 20 0
BBX 20 1 0 17
BITMAP
FFFFF0
ENDCHAR
STARTCHAR 203F
ENCODING 8255
SWIDTH 500 0
DWIDTH 10 0
BBX 8 2 1 -1
BITMAP
81
7E
ENDCHAR
STARTCHAR 2042
ENCODING 8258
SWIDTH 500 0
DWIDTH 10 0
BBX 9 11 1 2
BITMAP
3400
1800
1800
3400
1000
0000
4200
DA80
6700
FF80
4200
ENDCHAR
STARTCHAR 2047
ENCODING 8263
SWIDTH 500 0
DWIDTH 10 0
BBX 10 17 0 -1
BITMAP
7180
DAC0
8C40
8C40
CA40
0840
1080
1080
2100
2100
2100
2100
2100
0000
0000
6300
6300
ENDCHAR
STARTCHAR 2048
ENCODING 8264
SWIDTH 500 0
DWIDTH 10 0
BBX 8 17 1 -1
BITMAP
71
99
89
89
C9
09
11
11
21
21
21
21
21
00
00
63
63
ENDCHAR
STARTCHAR 2049
ENCODING 8265
SWIDTH 500 0
DWIDTH 10 0
BBX 8 17 1 -1
BITMAP
CE
D3
D1
D1
D9
C1
C2
C2
44
44
44
44
44
00
00
CC
CC
ENDCHAR
STARTCHAR 2051
ENCODING 8273
SWIDTH 1000 0
DWIDTH 20 0
BBX 6 15 7 0
BITMAP
30
B4
78
68
B4
30
00
00
00
30
B4
78
58
B4
30
ENDCHAR
STARTCHAR 20AC
ENCODING 8364
SWIDTH 500 0
DWIDTH 10 0
BBX 8 15 1 0
BITMAP
0F
13
21
21
20
FE
20
20
FC
20
21
21
31
12
0E
ENDCHAR
STARTCHAR 2103
ENCODING 8451
SWIDTH 1000 0
DWIDTH 20 0
BBX 17 16 1 1
BITMAP
600000
900000
90FD00
638700
070100
060100
0C0000
0C0000
0C0000
0C0000
0C0000
0C0080
060100
070100
038200
00FC00
ENDCHAR
STARTCHAR 210F
ENCODING 8463
SWIDTH 500 0
DWIDTH 10 0
BBX 8 15 1 0
BITMAP
30
50
14
18
60
AE
32
22
42
42
44
44
85
85
06
ENDCHAR
STARTCHAR 2113
ENCODING 8467
SWIDTH 500 0
DWIDTH 10 0
BBX 9 15 0 0
BITMAP
0700
0D00
0900
1900
1100
1200
3200
3200
3400
3800
3080
3080
D100
1300
0E00
ENDCHAR
STARTCHAR 2116
ENCODING 8470
SWIDTH 1000 0
DWIDTH 20 0
BBX 18 14 1 0
BITMAP
E38000
610000
710000
510000
511E00
491200
492100
4D2100
452100
452100
432100
432100
4112C0
E11CC0
ENDCHAR
STARTCHAR 2121
ENCODING 8481
SWIDTH 1000 0
DWIDTH 20 0
BBX 18 14 1 1
BITMAP
FE0000
920000
920000
100000
13F700
111200
110200
112200
11E200
112200
110200
111240
111240
39F7C0
ENDCHAR
STARTCHAR 2127
ENCODING 8487
SWIDTH 500 0
DWIDTH 10 0
BBX 8 15 1 0
BITMAP
E7
A9
A5
42
42
81
81
81
81
81
81
81
42
66
3C
ENDCHAR
STARTCHAR 212B
ENCODING 8491
SWIDTH 1000 0
DWIDTH 20 0
BBX 13 16 3 1
BITMAP
0300
0480
0480
0300
0300
0500
0580
0480
0880
08C0
1040
1FE0
1060
2020
2030
F078
ENDCHAR
STARTCHAR 2135
ENCODING 8501
SWIDTH 500 0
DWIDTH 10 0
BBX 8 15 1 1
BITMAP
44
46
42
63
25
34
58
48
8C
86
82
43
41
41
82
ENDCHAR
STARTCHAR 2153
ENCODING 8531
SWIDTH 500 0
DWIDTH 10 0
BBX 8 19 1 -1
BITMAP
C1
42
42
44
44
44
48
48
F0
16
19
29
21
26
43
41
89
89
86
ENDCHAR
STARTCHAR 2154
ENCODING 8532
SWIDTH 500 0
DWIDTH 10 0
BBX 8 18 1 -1
BITMAP
61
92
92
14
24
24
48
98
F0
16
19
21
26
43
41
49
89
86
ENDCHAR
STARTCHAR 2155
ENCODING 8533
SWIDTH 500 0
DWIDTH 10 0
BBX 9 19 1 -1
BITMAP
C100
4100
4200
4200
4200
4400
4400
4800
E800
1700
1800
1800
2B00
2480
4080
4080
8C80
8980
8700
ENDCHAR
STARTCHAR 2160
ENCODING 8544
SWIDTH 1000 0
DWIDTH 20 0
BBX 5 14 7 1
BITMAP
F8
20
20
20
20
20
20
20
20
20
20
20
20
F8
ENDCHAR
STARTCHAR 2161
ENCODING 8545
SWIDTH 1000 0
DWIDTH 20 0
BBX 12 14 4 1
BITMAP
FFF0
2040
2040
2040
2040
2040
2040
2040
2040
2040
2040
2040
2040
FFF0
ENDCHAR
STARTCHAR 2162
ENCODING 8546
SWIDTH 1000 0
DWIDTH 20 0
BBX 16 14 2 1
BITMAP
FFFF
2104
2104
2104
2104
2104
2104
2104
2104
2104
2104
2104
2104
FFFF
ENDCHAR
STARTCHAR 2163
ENCODING 8547
SWIDTH 1000 0
DWIDTH 20 0
BBX 17 14 2 0
BITMAP
FF8780
220200
220200
230200
210400
210400
208800
208800
20C800
205000
205000
207000
202000
F82000
ENDCHAR
STARTCHAR 2164
ENCODING 8548
SWIDTH 1000 0
DWIDTH 20 0
BBX 14 14 3 0
BITMAP
F87C
2018
2010
3030
1020
1820
0840
0C40
0C40
0480
0680
0300
0300
0100
ENDCHAR
STARTCHAR 2165
ENCODING 8549
SWIDTH 1000 0
DWIDTH 20 0
BBX 17 14 1 0
BITMAP
F87F80
202200
202200
306200
104200
104200
188200
088200
0C8200
050200
050200
070200
020200
020F80
ENDCHAR
STARTCHAR 2166
ENCODING 8550
SWIDTH 1000 0
DWIDTH 20 0
BBX 18 15 1 0
BITMAP
F8FFC0
204900
204900
308900
108900
108900
110900
090900
090900
090900
0E0900
060900
060900
041F80
002040
ENDCHAR
STARTCHAR 2167
ENCODING 8551
SWIDTH 1000 0
DWIDTH 20 0
BBX 18 14 1 0
BITMAP
F9FFC0
209480
209480
309480
111480
111480
111480
191480
0A1480
0A1480
0E1480
0C1480
041480
043FC0
ENDCHAR
STARTCHAR 2168
ENCODING 8552
SWIDTH 1000 0
DWIDTH 20 0
BBX 17 14 2 1
BITMAP
FFCF00
218400
208400
20C800
205000
207000
202000
205000
205800
208800
210C00
210400
220600
FF8F80
ENDCHAR
STARTCHAR 2169
ENCODING 8553
SWIDTH 1000 0
DWIDTH 20 0
BBX 14 14 3 1
BITMAP
FC7C
3020
1840
0C40
0C80
0700
0300
0300
0480
08C0
1060
1030
2018
F07C
ENDCHAR
STARTCHAR 216A
ENCODING 8554
SWIDTH 1000 0
DWIDTH 20 0
BBX 16 14 2 1
BITMAP
FBFF
2084
3104
1104
1A04
0A04
0C04
0404
0A04
1304
2104
2184
4084
E1FE
ENDCHAR
STARTCHAR 216B
ENCODING 8555
SWIDTH 1000 0
DWIDTH 20 0
BBX 18 14 1 1
BITMAP
F9FFC0
308900
188900
090900
0A0900
060900
060900
060900
0B0900
090900
108900
10C900
204900
F1FF80
ENDCHAR
STARTCHAR 2170
ENCODING 8560
SWIDTH 1000 0
DWIDTH 20 0
BBX 4 14 7 2
BITMAP
30
30
00
00
20
E0
20
20
20
20
20
20
20
70
ENDCHAR
STARTCHAR 2171
ENCODING 8561
SWIDTH 1000 0
DWIDTH 20 0
BBX 11 14 4 2
BITMAP
30C0
30C0
0000
0000
20C0
E140
2040
2040
2040
2040
2040
2040
2040
70E0
ENDCHAR
STARTCHAR 2172
ENCODING 8562
SWIDTH 1000 0
DWIDTH 20 0
BBX 16 14 2 2
BITMAP
630C
630C
0000
0000
631C
A504
2104
2104
2104
2104
2104
2104
2104
FFFF
ENDCHAR
STARTCHAR 2173
ENCODING 8563
SWIDTH 1000 0
DWIDTH 20 0
BBX 15 15 3 1
BITMAP
6000
6000
0000
0000
2000
EF9E
2204
2308
2108
2190
2090
20A0
2060
7040
8800
ENDCHAR
STARTCHAR 2174
ENCODING 8564
SWIDTH 1000 0
DWIDTH 20 0
BBX 12 9 4 0
BITMAP
F8F0
2040
1080
1080
1900
0900
0D00
0600
0600
ENDCHAR
STARTCHAR 2175
ENCODING 8565
SWIDTH 1000 0
DWIDTH 20 0
BBX 16 15 2 1
BITMAP
000C
000C
0000
0000
0004
F9FC
2044
1084
1084
1904
0904
0E04
0604
040E
0011
ENDCHAR
STARTCHAR 2176
ENCODING 8566
SWIDTH 1000 0
DWIDTH 20 0
BBX 17 15 2 1
BITMAP
003300
003300
000000
000000
001200
F3F600
609200
211200
311200
121200
1A1200
0A1200
0C1200
0C3F00
004080
ENDCHAR
STARTCHAR 2177
ENCODING 8567
SWIDTH 1000 0
DWIDTH 20 0
BBX 18 14 1 0
BITMAP
006D80
006D80
000000
000000
002480
F3FF80
20A480
212480
312480
122480
1A2480
0C2480
0C2480
0C7FC0
ENDCHAR
STARTCHAR 2178
ENCODING 8568
SWIDTH 1000 0
DWIDTH 20 0
BBX 15 14 3 2
BITMAP
6000
6000
0000
0000
2000
E79E
2110
2090
2060
2060
20B0
2110
2208
7F1E
ENDCHAR
STARTCHAR 2179
ENCODING 8569
SWIDTH 1000 0
DWIDTH 20 0
BBX 11 9 4 1
BITMAP
F9E0
1080
0900
0600
0600
0B00
1180
20C0
F1E0
ENDCHAR
STARTCHAR 217A
ENCODING 8570
SWIDTH 1000 0
DWIDTH 20 0
BBX 14 14 3 2
BITMAP
0018
0018
0000
0000
0008
F3F8
2208
1208
0C08
0C08
1608
2208
4108
E3FC
ENDCHAR
STARTCHAR 217B
ENCODING 8571
SWIDTH 1000 0
DWIDTH 20 0
BBX 16 14 2 2
BITMAP
0033
0033
0000
0000
0012
FBF6
1212
1A12
0C12
0C12
1212
2312
4192
F3FF
ENDCHAR
STARTCHAR 2190
ENCODING 8592
SWIDTH 1000 0
DWIDTH 20 0
BBX 18 7 1 4
BITMAP
0C0000
100000
200000
FFFFC0
200000
100000
0C0000
ENDCHAR
STARTCHAR 2191
ENCODING 8593
SWIDTH 1000 0
DWIDTH 20 0
BBX 7 18 7 -1
BITMAP
10
10
38
54
92
92
10
10
10
10
10
10
10
10
10
10
10
10
ENDCHAR
STARTCHAR 2192
ENCODING 8594
SWIDTH 1000 0
DWIDTH 20 0
BBX 18 7 1 4
BITMAP
000C00
000200
000100
FFFFC0
000100
000200
000C00
ENDCHAR
STARTCHAR 2193
ENCODING 8595
SWIDTH 1000 0
DWIDTH 20 0
BBX 7 18 7 -2
BITMAP
10
10
10
10
10
10
10
10
10
10
10
10
92
92
54
38
10
10
ENDCHAR
STARTCHAR 2194
ENCODING 8596
SWIDTH 500 0
DWIDTH 10 0
BBX 10 7 0 4
BITMAP
3300
2100
4080
FFC0
4080
2100
3300
ENDCHAR
STARTCHAR 2196
ENCODING 8598
SWIDTH 500 0
DWIDTH 10 0
BBX 8 15 1 1
BITMAP
20
78
56
52
90
88
08
08
04
04
04
02
02
01
01
ENDCHAR
STARTCHAR 2197
ENCODING 8599
SWIDTH 500 0
DWIDTH 10 0
BBX 8 15 1 1
BITMAP
04
1E
6A
4A
09
11
10
10
20
20
20
40
40
80
80
ENDCHAR
STARTCHAR 2198
ENCODING 8600
SWIDTH 500 0
DWIDTH 10 0
BBX 8 15 1 0
BITMAP
80
40
40
40
20
20
20
10
12
11
09
4A
36
1C
04
ENDCHAR
STARTCHAR 2199
ENCODING 8601
SWIDTH 500 0
DWIDTH 10 0
BBX 8 15 1 0
BITMAP
01
02
02
02
04
04
04
08
88
88
90
52
6C
38
20
ENDCHAR
STARTCHAR 21C4
ENCODING 8644
SWIDTH 500 0
DWIDTH 10 0
BBX 8 15 1 0
BITMAP
18
04
02
FF
02
04
08
10
18
20
40
FF
40
20
10
ENDCHAR
STARTCHAR 21D2
ENCODING 8658
SWIDTH 1000 0
DWIDTH 20 0
BBX 17 11 1 2
BITMAP
001000
000800
000400
FFFE00
000100
000080
000100
FFFE00
000400
000800
001000
ENDCHAR
STARTCHAR 21D4
ENCODING 8660
SWIDTH 1000 0
DWIDTH 20 0
BBX 18 11 1 2
BITMAP
041000
0C0C00
180600
3FFF00
600180
C000C0
600180
3FFF00
180600
0C0C00
041000
ENDCHAR
STARTCHAR 21E6
ENCODING 8678
SWIDTH 500 0
DWIDTH 10 0
BBX 8 6 1 5
BITMAP
10
70
9F
81
5E
30
ENDCHAR
STARTCHAR 21E7
ENCODING 8679
SWIDTH 500 0
DWIDTH 10 0
BBX 6 16 2 1
BITMAP
20
30
50
88
84
CC
50
50
50
50
50
50
50
50
50
50
ENDCHAR
STARTCHAR 21E8
ENCODING 8680
SWIDTH 500 0
DWIDTH 10 0
BBX 8 6 1 5
BITMAP
08
0C
FA
81
7A
0C
ENDCHAR
STARTCHAR 21E9
ENCODING 8681
SWIDTH 500 0
DWIDTH 10 0
BBX 6 16 2 -1
BITMAP
70
50
50
50
50
50
50
50
50
50
CC
84
88
50
30
20
ENDCHAR
STARTCHAR 2200
ENCODING 8704
SWIDTH 1000 0
DWIDTH 20 0
BBX 18 17 1 -1
BITMAP
800040
400080
400100
200100
200200
100200
0FFC00
080400
040800
040800
021000
021000
012000
012000
00C000
00C000
008000
ENDCHAR
STARTCHAR 2202
ENCODING 8706
SWIDTH 1000 0
DWIDTH 20 0
BBX 10 15 5 0
BITMAP
0F00
1080
00C0
0040
0040
0040
1E40
63C0
41C0
81C0
8180
8380
8300
4600
3C00
ENDCHAR
STARTCHAR 2203
ENCODING 8707
SWIDTH 1000 0
DWIDTH 20 0
BBX 14 15 3 0
BITMAP
FFFC
0004
0004
0004
0004
0004
0004
FFFC
0004
0004
0004
0004
0004
0004
FFFC
ENDCHAR
STARTCHAR 2205
ENCODING 8709
SWIDTH 500 0
DWIDTH 10 0
BBX 8 11 1 3
BITMAP
02
3A
66
C7
89
91
91
62
7C
40
40
ENDCHAR
STARTCHAR 2207
ENCODING 8711
SWIDTH 1000 0
DWIDTH 20 0
BBX 16 15 2 -1
BITMAP
FFFF
4002
2004
2004
1008
1008
0810
0810
0420
0420
0240
0240
0180
0180
0100
ENDCHAR
STARTCHAR 2208
ENCODING 8712
SWIDTH 1000 0
DWIDTH 20 0
BBX 15 14 3 1
BITMAP
0FFE
1800
2000
4000
8000
8000
8000
FFFE
8000
8000
4000
2000
1000
0FFE
ENDCHAR
STARTCHAR 2209
ENCODING 8713
SWIDTH 500 0
DWIDTH 10 0
BBX 8 14 1 1
BITMAP
02
02
1F
34
44
C4
88
FF
88
C8
50
30
1F
10
ENDCHAR
STARTCHAR 220B
ENCODING 8715
SWIDTH 1000 0
DWIDTH 20 0
BBX 15 14 2 1
BITMAP
FFE0
0030
0008
0004
0002
0002
0002
FFFE
0002
0002
0004
0008
0010
FFE0
ENDCHAR
STARTCHAR 2212
ENCODING 8722
SWIDTH 500 0
DWIDTH 10 0
BBX 8 1 1 7
BITMAP
FF
ENDCHAR
STARTCHAR 2213
ENCODING 8723
SWIDTH 500 0
DWIDTH 10 0
BBX 8 13 1 1
BITMAP
FF
00
00
08
08
08
08
08
FF
08
08
08
08
ENDCHAR
STARTCHAR 221A
ENCODING 8730
SWIDTH 1000 0
DWIDTH 20 0
BBX 19 19 1 -2
BITMAP
007FE0
00C000
008000
008000
010000
010000
010000
020000
020000
020000
440000
440000
440000
E80000
A80000
280000
300000
100000
100000
ENDCHAR
STARTCHAR 221D
ENCODING 8733
SWIDTH 1000 0
DWIDTH 20 0
BBX 16 7 2 4
BITMAP
3C1E
4661
8180
8180
8180
4661
3C1E
ENDCHAR
STARTCHAR 221E
ENCODING 8734
SWIDTH 1000 0
DWIDTH 20 0
BBX 16 8 2 4
BITMAP
381C
4422
8241
8181
8181
81C1
4262
3C1C
ENDCHAR
STARTCHAR 221F
ENCODING 8735
SWIDTH 1000 0
DWIDTH 20 0
BBX 16 16 3 0
BITMAP
8000
8000
8000
8000
8000
8000
8000
8000
8000
8000
8000
8000
8000
8000
8000
FFFF
ENDCHAR
STARTCHAR 2220
ENCODING 8736
SWIDTH 1000 0
DWIDTH 20 0
BBX 16 16 2 1
BITMAP
0001
0002
0004
0008
0010
0020
0040
0080
0100
0200
0400
0800
1000
2000
4000
FFFF
ENDCHAR
STARTCHAR 2225
ENCODING 8741
SWIDTH 1000 0
DWIDTH 20 0
BBX 10 18 5 -2
BITMAP
0480
0240
0480
0480
0480
0900
0900
0900
1200
1200
1200
2400
2400
2800
4800
4800
5000
9000
ENDCHAR
STARTCHAR 2226
ENCODING 8742
SWIDTH 500 0
DWIDTH 10 0
BBX 8 18 1 -2
BITMAP
09
0D
09
09
12
92
52
34
34
2C
2C
4C
4A
49
90
90
90
A0
ENDCHAR
STARTCHAR 2227
ENCODING 8743
SWIDTH 1000 0
DWIDTH 20 0
BBX 18 16 1 0
BITMAP
00C000
00C000
012000
012000
021000
021000
040800
040800
080400
080400
100200
100200
200100
200100
400080
800040
ENDCHAR
STARTCHAR 2228
ENCODING 8744
SWIDTH 1000 0
DWIDTH 20 0
BBX 18 16 1 -1
BITMAP
800040
400080
200100
200100
100200
100200
080400
080400
040800
040800
021000
021000
012000
012000
00C000
00C000
ENDCHAR
STARTCHAR 2229
ENCODING 8745
SWIDTH 1000 0
DWIDTH 20 0
BBX 14 15 3 0
BITMAP
0FC0
1820
2010
4008
C004
8004
8004
8004
8004
8004
8004
8004
8004
8004
8004
ENDCHAR
STARTCHAR 222A
ENCODING 8746
SWIDTH 1000 0
DWIDTH 20 0
BBX 14 15 3 0
BITMAP
8004
8004
8004
8004
8004
8004
8004
8004
8004
8004
C00C
4008
2010
1860
0FC0
ENDCHAR
STARTCHAR 222B
ENCODING 8747
SWIDTH 1000 0
DWIDTH 20 0
BBX 10 18 5 -1
BITMAP
0380
0240
04C0
0400
0400
0400
0C00
0C00
0C00
0C00
0C00
0C00
0800
0800
0800
0800
D000
F000
ENDCHAR
STARTCHAR 222C
ENCODING 8748
SWIDTH 1000 0
DWIDTH 20 0
BBX 16 18 2 -1
BITMAP
038E
0649
04D9
0410
0410
0C10
0C10
0C10
0C30
0C30
0830
0830
0830
0820
0820
0820
9360
F1C0
ENDCHAR
STARTCHAR 222E
ENCODING 8750
SWIDTH 1000 0
DWIDTH 20 0
BBX 10 18 5 -1
BITMAP
0180
0240
04C0
0400
0400
0400
0400
1E00
2D00
2D00
2D00
1A00
0C00
0800
0800
0800
D000
F000
ENDCHAR
STARTCHAR 2234
ENCODING 8756
SWIDTH 1000 0
DWIDTH 20 0
BBX 13 13 4 1
BITMAP
0700
0700
0700
0000
0000
0000
0000
0000
0000
0000
E038
E038
E038
ENDCHAR
STARTCHAR 2235
ENCODING 8757
SWIDTH 1000 0
DWIDTH 20 0
BBX 13 13 4 1
BITMAP
E038
E038
E038
0000
0000
0000
0000
0000
0000
0000
0700
0700
0700
ENDCHAR
STARTCHAR 223D
ENCODING 8765
SWIDTH 1000 0
DWIDTH 20 0
BBX 18 8 1 4
BITMAP
380F00
441080
802040
804040
808040
810040
420080
3C0F00
ENDCHAR
STARTCHAR 2243
ENCODING 8771
SWIDTH 500 0
DWIDTH 10 0
BBX 8 6 1 5
BITMAP
70
99
0E
00
00
FF
ENDCHAR
STARTCHAR 2245
ENCODING 8773
SWIDTH 500 0
DWIDTH 10 0
BBX 8 7 1 4
BITMAP
71
8E
00
00
FF
00
FF
ENDCHAR
STARTCHAR 2248
ENCODING 8776
SWIDTH 500 0
DWIDTH 10 0
BBX 8 6 1 4
BITMAP
71
8E
00
00
71
8E
ENDCHAR
STARTCHAR 2252
ENCODING 8786
SWIDTH 1000 0
DWIDTH 20 0
BBX 14 13 3 1
BITMAP
3000
3000
0000
0000
FFFC
0000
0000
0000
FFFC
0000
0000
0060
0020
ENDCHAR
STARTCHAR 2260
ENCODING 8800
SWIDTH 1000 0
DWIDTH 20 0
BBX 14 14 3 1
BITMAP
0020
0040
0040
0080
0080
FFFC
0100
0300
0200
FFFC
0400
0800
0800
1000
ENDCHAR
STARTCHAR 2261
ENCODING 8801
SWIDTH 1000 0
DWIDTH 20 0
BBX 14 9 3 3
BITMAP
FFFC
0000
0000
0000
FFFC
0000
0000
0000
FFFC
ENDCHAR
STARTCHAR 2262
ENCODING 8802
SWIDTH 500 0
DWIDTH 10 0
BBX 8 13 1 1
BITMAP
02
04
FF
04
08
08
FF
10
10
20
FF
20
40
ENDCHAR
STARTCHAR 2266
ENCODING 8806
SWIDTH 1000 0
DWIDTH 20 0
BBX 14 16 3 0
BITMAP
0004
0018
00E0
0700
1800
E000
3800
0700
00C0
0038
0004
0000
FFFC
0000
0000
FFFC
ENDCHAR
STARTCHAR 2267
ENCODING 8807
SWIDTH 1000 0
DWIDTH 20 0
BBX 14 15 3 1
BITMAP
E000
1C00
0380
0060
001C
0070
0380
0C00
7000
8000
0000
FFFC
0000
0000
FFFC
ENDCHAR
STARTCHAR 226A
ENCODING 8810
SWIDTH 1000 0
DWIDTH 20 0
BBX 16 17 2 -1
BITMAP
0033
00C4
0188
0230
0440
1880
3100
4600
8800
4600
3100
1880
0440
0230
0188
00C4
0022
ENDCHAR
STARTCHAR 226B
ENCODING 8811
SWIDTH 1000 0
DWIDTH 20 0
BBX 16 17 2 -1
BITMAP
CC00
2300
1180
0C40
0220
0118
008C
0062
0011
0062
008C
0118
0220
0C40
1180
2300
4400
ENDCHAR
STARTCHAR 2276
ENCODING 8822
SWIDTH 500 0
DWIDTH 10 0
BBX 9 14 0 0
BITMAP
0080
0180
0600
1800
6000
1800
8600
6180
1800
0600
0180
0600
1800
6000
ENDCHAR
STARTCHAR 2277
ENCODING 8823
SWIDTH 500 0
DWIDTH 10 0
BBX 9 14 0 0
BITMAP
8000
6000
1800
0600
0180
0600
1880
6180
0600
1800
6000
1800
0600
0180
ENDCHAR
STARTCHAR 2282
ENCODING 8834
SWIDTH 1000 0
DWIDTH 20 0
BBX 15 14 3 1
BITMAP
0FFE
1000
2000
4000
8000
8000
8000
8000
8000
C000
4000
2000
1800
0FFE
ENDCHAR
STARTCHAR 2283
ENCODING 8835
SWIDTH 1000 0
DWIDTH 20 0
BBX 15 14 2 1
BITMAP
FFE0
0030
0008
0004
0006
0002
0002
0002
0002
0002
0004
0008
0010
FFE0
ENDCHAR
STARTCHAR 2284
ENCODING 8836
SWIDTH 500 0
DWIDTH 10 0
BBX 8 14 1 1
BITMAP
02
02
1F
24
44
84
88
88
88
88
50
30
1F
10
ENDCHAR
STARTCHAR 2285
ENCODING 8837
SWIDTH 500 0
DWIDTH 10 0
BBX 8 13 1 1
BITMAP
08
F8
0C
0A
11
11
11
11
21
22
24
F8
40
ENDCHAR
STARTCHAR 2286
ENCODING 8838
SWIDTH 1000 0
DWIDTH 20 0
BBX 16 15 2 0
BITMAP
0FFF
3000
4000
8000
8000
8000
8000
8000
4000
3000
0FFF
0000
0000
0000
FFFF
ENDCHAR
STARTCHAR 2287
ENCODING 8839
SWIDTH 1000 0
DWIDTH 20 0
BBX 16 15 2 0
BITMAP
FFF0
000C
0002
0001
0001
0001
0001
0001
0002
000C
FFF0
0000
0000
0000
FFFF
ENDCHAR
STARTCHAR 228A
ENCODING 8842
SWIDTH 500 0
DWIDTH 10 0
BBX 8 14 1 0
BITMAP
1F
60
40
80
80
80
80
40
60
1F
00
08
FF
10
ENDCHAR
STARTCHAR 228B
ENCODING 8843
SWIDTH 500 0
DWIDTH 10 0
BBX 8 14 1 0
BITMAP
F8
06
02
01
01
01
01
02
06
F8
00
08
FF
10
ENDCHAR
STARTCHAR 2295
ENCODING 8853
SWIDTH 500 0
DWIDTH 10 0
BBX 10 10 0 3
BITMAP
1E00
6180
4480
8440
8440
BF40
8440
4480
6100
1E00
ENDCHAR
STARTCHAR 2296
ENCODING 8854
SWIDTH 500 0
DWIDTH 10 0
BBX 10 9 0 3
BITMAP
1E00
6180
4080
8040
BF40
8040
C080
6100
1E00
ENDCHAR
STARTCHAR 2297
ENCODING 8855
SWIDTH 500 0
DWIDTH 10 0
BBX 9 9 1 3
BITMAP
3C00
6300
C500
A680
9880
9880
A500
4300
3C00
ENDCHAR
STARTCHAR 22A5
ENCODING 8869
SWIDTH 1000 0
DWIDTH 20 0
BBX 18 16 1 0
BITMAP
004000
004000
004000
004000
004000
004000
004000
004000
004000
004000
004000
004000
004000
004000
004000
FFFFC0
ENDCHAR
STARTCHAR 22BF
ENCODING 8895
SWIDTH 1000 0
DWIDTH 20 0
BBX 16 16 2 1
BITMAP
0001
0003
0005
0009
0011
0021
0041
0081
0101
0201
0401
0801
1001
2001
4001
FFFF
ENDCHAR
STARTCHAR 22DA
ENCODING 8922
SWIDTH 500 0
DWIDTH 10 0
BBX 8 15 1 0
BITMAP
03
1C
60
E0
1C
03
00
FF
00
C0
38
06
07
38
C0
ENDCHAR
STARTCHAR 22DB
ENCODING 8923
SWIDTH 500 0
DWIDTH 10 0
BBX 8 15 1 0
BITMAP
C0
38
06
07
38
C0
00
FF
00
03
1C
60
E0
1C
03
ENDCHAR
STARTCHAR 2305
ENCODING 8965
SWIDTH 500 0
DWIDTH 10 0
BBX 8 9 1 2
BITMAP
FF
10
18
18
24
24
42
42
81
ENDCHAR
STARTCHAR 2306
ENCODING 8966
SWIDTH 500 0
DWIDTH 10 0
BBX 8 12 1 1
BITMAP
FF
00
00
FF
10
18
18
24
24
42
42
81
ENDCHAR
STARTCHAR 2312
ENCODING 8978
SWIDTH 1000 0
DWIDTH 20 0
BBX 18 4 1 11
BITMAP
07F800
180600
600180
800040
ENDCHAR
STARTCHAR 2318
ENCODING 8984
SWIDTH 1000 0
DWIDTH 20 0
BBX 18 19 1 -2
BITMAP
780780
CC0CC0
840840
840840
C408C0
7FFF80
040800
040800
040800
040800
040800
040800
040800
7FFF00
C40880
840840
840840
CC0CC0
780780
ENDCHAR
STARTCHAR 23BE
ENCODING 9150
SWIDTH 1000 0
DWIDTH 20 0
BBX 10 20 10 -2
BITMAP
FFC0
8000
8000
8000
8000
8000
8000
8000
8000
8000
8000
8000
8000
8000
8000
8000
8000
8000
8000
8000
ENDCHAR
STARTCHAR 23BF
ENCODING 9151
SWIDTH 1000 0
DWIDTH 20 0
BBX 10 20 10 -2
BITMAP
8000
8000
8000
8000
8000
8000
8000
8000
8000
8000
8000
8000
8000
8000
8000
8000
8000
8000
8000
FFC0
ENDCHAR
STARTCHAR 23C0
ENCODING 9152
SWIDTH 1000 0
DWIDTH 20 0
BBX 15 20 3 -2
BITMAP
0100
0100
0380
1D60
3118
610C
4104
8102
8102
8102
8102
8102
8102
4104
4104
2108
1930
07C0
0100
0100
ENDCHAR
STARTCHAR 23C1
ENCODING 9153
SWIDTH 1000 0
DWIDTH 20 0
BBX 20 20 0 -2
BITMAP
FFFFF0
002000
002000
01FC00
062300
0C2100
082080
1020C0
102040
102040
102040
102040
102040
082080
082180
042300
032600
00F800
002000
002000
ENDCHAR
STARTCHAR 23C2
ENCODING 9154
SWIDTH 1000 0
DWIDTH 20 0
BBX 20 20 0 -2
BITMAP
002000
002000
007000
03AC00
062300
0C2180
082080
102040
102040
102040
102040
102040
102040
082080
042100
062300
01AC00
007000
002000
FFFFF0
ENDCHAR
STARTCHAR 23C3
ENCODING 9155
SWIDTH 1000 0
DWIDTH 20 0
BBX 17 20 2 -2
BITMAP
008000
008000
008000
008000
01C000
02A000
02A000
049000
049000
088800
108800
108400
208200
208200
408100
808100
FFFF80
008000
008000
008000
ENDCHAR
STARTCHAR 23C4
ENCODING 9156
SWIDTH 1000 0
DWIDTH 20 0
BBX 20 20 0 -2
BITMAP
FFFFF0
002000
002000
002000
007000
00B000
00A800
012800
012400
022200
042200
042100
082100
102080
102080
202040
3FFFC0
402020
002000
002000
ENDCHAR
STARTCHAR 23C5
ENCODING 9157
SWIDTH 1000 0
DWIDTH 20 0
BBX 20 20 0 -2
BITMAP
002000
002000
002000
002000
007000
00B000
00A800
012400
012400
022200
042200
042100
082100
102080
102080
202040
3FFFC0
402020
002000
FFFFF0
ENDCHAR
STARTCHAR 23C6
ENCODING 9158
SWIDTH 1000 0
DWIDTH 20 0
BBX 17 20 2 -2
BITMAP
008000
008000
008000
008000
008000
008000
008000
008000
7C8000
838000
00E080
009F00
008000
008000
008000
008000
008000
008000
008000
008000
ENDCHAR
STARTCHAR 23C7
ENCODING 9159
SWIDTH 1000 0
DWIDTH 20 0
BBX 20 20 0 -2
BITMAP
FFFFF0
002000
002000
002000
002000
002000
002000
002000
1F2000
60E000
003820
0027C0
002000
002000
002000
002000
002000
002000
002000
002000
ENDCHAR
STARTCHAR 23C8
ENCODING 9160
SWIDTH 1000 0
DWIDTH 20 0
BBX 20 20 0 -2
BITMAP
002000
002000
002000
002000
002000
002000
002000
002000
1F2000
60E000
003820
0027C0
002000
002000
002000
002000
002000
002000
002000
FFFFF0
ENDCHAR
STARTCHAR 23C9
ENCODING 9161
SWIDTH 1000 0
DWIDTH 20 0
BBX 20 20 0 -2
BITMAP
FFFFF0
002000
002000
002000
002000
002000
002000
002000
002000
002000
002000
002000
002000
002000
002000
002000
002000
002000
002000
002000
ENDCHAR
STARTCHAR 23CA
ENCODING 9162
SWIDTH 1000 0
DWIDTH 20 0
BBX 20 20 0 -2
BITMAP
002000
002000
002000
002000
002000
002000
002000
002000
002000
002000
002000
002000
002000
002000
002000
002000
002000
002000
002000
FFFFF0
ENDCHAR
STARTCHAR 23CB
ENCODING 9163
SWIDTH 1000 0
DWIDTH 20 0
BBX 10 20 0 -2
BITMAP
FFC0
0040
0040
0040
0040
0040
0040
0040
0040
0040
0040
0040
0040
0040
0040
0040
0040
0040
0040
0040
ENDCHAR
STARTCHAR 23CC
ENCODING 9164
SWIDTH 1000 0
DWIDTH 20 0
BBX 10 20 0 -2
BITMAP
0040
0040
0040
0040
0040
0040
0040
0040
0040
0040
0040
0040
0040
0040
0040
0040
0040
0040
0040
FFC0
ENDCHAR
STARTCHAR 23CE
ENCODING 9166
SWIDTH 1000 0
DWIDTH 20 0
BBX 17 17 1 -2
BITMAP
001F80
001080
001080
001080
001080
001080
021080
061080
1A1080
23F080
400080
800080
400100
33FE00
0A0000
060000
020000
ENDCHAR
STARTCHAR 2423
ENCODING 9251
SWIDTH 1000 0
DWIDTH 20 0
BBX 16 4 2 0
BITMAP
8001
8001
8001
FFFF
ENDCHAR
STARTCHAR 2460
ENCODING 9312
SWIDTH 1000 0
DWIDTH 20 0
BBX 18 18 1 -1
BITMAP
03F000
040C00
180200
20C100
414080
404080
804040
804040
804040
804040
804040
804040
404080
404080
20E100
111200
0C0400
03F800
ENDCHAR
STARTCHAR 2461
ENCODING 9313
SWIDTH 1000 0
DWIDTH 20 0
BBX 18 18 1 -1
BITMAP
03F000
0C0C00
100600
21E100
421080
460880
860840
800840
801040
802040
804040
808840
810880
420880
27F900
100200
0C0C00
03F000
ENDCHAR
STARTCHAR 2462
ENCODING 9314
SWIDTH 1000 0
DWIDTH 20 0
BBX 19 18 0 -2
BITMAP
03F800
0C0E00
10E300
211880
4208C0
430840
800820
801020
80E020
801820
800420
860420
460440
660840
21F080
180100
0E0600
03F800
ENDCHAR
STARTCHAR 2463
ENCODING 9315
SWIDTH 1000 0
DWIDTH 20 0
BBX 18 18 1 -1
BITMAP
03E000
041800
180600
202100
406080
40A080
812040
812040
822040
842040
882040
8FF840
402080
402080
207100
108200
0C0C00
03F000
ENDCHAR
STARTCHAR 2464
ENCODING 9316
SWIDTH 1000 0
DWIDTH 20 0
BBX 18 18 1 -1
BITMAP
03F000
0C0C00
100600
23F100
420080
420080
820040
83E040
821040
800840
800840
860840
460880
461080
21E100
100200
0C0C00
03F000
ENDCHAR
STARTCHAR 2465
ENCODING 9317
SWIDTH 1000 0
DWIDTH 20 0
BBX 18 18 1 -1
BITMAP
03F000
040800
180600
20F100
411980
421880
820040
840040
85E040
861040
840840
840840
840880
420880
231100
11E200
0C0400
03F800
ENDCHAR
STARTCHAR 2466
ENCODING 9318
SWIDTH 1000 0
DWIDTH 20 0
BBX 19 18 0 -2
BITMAP
03F800
0C0E00
100300
23FC80
420840
420840
821020
801020
801020
802020
802020
C06020
406040
606040
304080
180100
0E0600
03F800
ENDCHAR
STARTCHAR 2467
ENCODING 9319
SWIDTH 1000 0
DWIDTH 20 0
BBX 18 18 1 -1
BITMAP
03F000
040800
180600
21E100
461980
440880
840840
821040
81A040
81E040
821040
840840
840880
440880
221100
11E200
0C0400
03F800
ENDCHAR
STARTCHAR 2468
ENCODING 9320
SWIDTH 1000 0
DWIDTH 20 0
BBX 18 18 1 -1
BITMAP
03F000
040800
180600
21E100
421180
441080
840840
840840
840840
821840
81E840
800840
861880
461080
263100
13C200
0C0400
03F800
ENDCHAR
STARTCHAR 2469
ENCODING 9321
SWIDTH 1000 0
DWIDTH 20 0
BBX 18 18 1 -1
BITMAP
03F000
0C0C00
100600
243900
4C4580
444480
848240
848240
848240
848240
848240
848240
84C480
444480
2E3900
100200
0C0400
03F800
ENDCHAR
STARTCHAR 246A
ENCODING 9322
SWIDTH 1000 0
DWIDTH 20 0
BBX 18 18 1 -1
BITMAP
03F000
0C0C00
100600
240900
5C3980
440880
840840
840840
840840
840840
840840
840840
840880
440880
2E1D00
112200
0C0400
03F800
ENDCHAR
STARTCHAR 246B
ENCODING 9323
SWIDTH 1000 0
DWIDTH 20 0
BBX 18 18 1 -1
BITMAP
03E000
0C1800
100600
247900
4CCD80
44C480
84C440
840440
840840
841040
841040
842040
844480
448480
2EFD00
100200
0C0400
03F800
ENDCHAR
STARTCHAR 246C
ENCODING 9324
SWIDTH 1000 0
DWIDTH 20 0
BBX 18 17 1 -1
BITMAP
03F000
0C0C00
300300
2C7900
44C480
C4C480
840440
840840
843040
840C40
840440
84C480
44CC80
2E7900
100200
0C0400
03F800
ENDCHAR
STARTCHAR 246D
ENCODING 9325
SWIDTH 1000 0
DWIDTH 20 0
BBX 18 17 1 -1
BITMAP
03F000
0C0C00
100200
2C0900
441880
442880
842840
844840
844840
848840
84FE40
840880
440880
2E1D00
110200
0C0400
03F800
ENDCHAR
STARTCHAR 246E
ENCODING 9326
SWIDTH 1000 0
DWIDTH 20 0
BBX 18 17 1 -1
BITMAP
03F000
0C0C00
100200
2C7D00
444080
444080
844040
84BC40
844640
840240
840240
84C280
44C480
2E7900
100200
0C0400
03F800
ENDCHAR
STARTCHAR 246F
ENCODING 9327
SWIDTH 1000 0
DWIDTH 20 0
BBX 18 18 1 -1
BITMAP
03F000
0C0C00
100600
243900
4C6580
444480
84C040
84C040
84FC40
84C640
848240
848240
448280
444480
2E3900
100200
0C0400
03F800
ENDCHAR
STARTCHAR 2470
ENCODING 9328
SWIDTH 1000 0
DWIDTH 20 0
BBX 19 17 1 -1
BITMAP
03F000
0C0E00
100300
2CFE80
448440
C48440
840820
840820
841820
841020
841020
843040
443040
2E3080
100100
0C0600
03F800
ENDCHAR
STARTCHAR 2471
ENCODING 9329
SWIDTH 1000 0
DWIDTH 20 0
BBX 18 18 1 -1
BITMAP
03F000
0C0C00
100600
243900
4C4580
444480
844440
846840
843040
843840
84CC40
848240
848280
44C280
2E7D00
100200
0C0400
03F800
ENDCHAR
STARTCHAR 2472
ENCODING 9330
SWIDTH 1000 0
DWIDTH 20 0
BBX 18 18 1 -1
BITMAP
03F000
0C0C00
100600
247100
4C4980
448480
848440
848440
848440
844C40
847440
840440
84C880
44C880
2E7100
100200
0C0400
03F800
ENDCHAR
STARTCHAR 2473
ENCODING 9331
SWIDTH 1000 0
DWIDTH 20 0
BBX 19 18 1 -1
BITMAP
03F000
0C0C00
100300
2F0D80
599280
58A140
98A120
80A120
812120
822120
842120
842120
88A140
509240
3F8C80
100100
0C0600
03F800
ENDCHAR
STARTCHAR 24D0
ENCODING 9424
SWIDTH 1000 0
DWIDTH 20 0
BBX 18 18 1 -1
BITMAP
01F000
060C00
080200
300100
200080
41E080
C31040
831040
803040
81D040
821040
821040
423480
41D880
200100
100200
0C0400
03F800
ENDCHAR
STARTCHAR 24D1
ENCODING 9425
SWIDTH 1000 0
DWIDTH 20 0
BBX 18 18 1 -1
BITMAP
03E000
0C1800
100600
220100
460100
420080
820040
82E040
831040
820840
820840
820840
820880
821080
43E100
300200
0C0400
03F800
ENDCHAR
STARTCHAR 24D2
ENCODING 9426
SWIDTH 1000 0
DWIDTH 20 0
BBX 18 18 1 -1
BITMAP
03F000
040800
180600
200100
400180
41E080
821040
843040
840040
840040
840040
841040
821080
41E080
200100
100200
0C0400
03F800
ENDCHAR
STARTCHAR 24D3
ENCODING 9427
SWIDTH 1000 0
DWIDTH 20 0
BBX 18 18 1 -1
BITMAP
01F000
060C00
080200
301100
203080
401080
C01040
81F040
821040
841040
841040
841040
441080
423080
21D900
100200
0C0400
03F800
ENDCHAR
STARTCHAR 24D4
ENCODING 9428
SWIDTH 1000 0
DWIDTH 20 0
BBX 18 17 1 -1
BITMAP
03F000
0C0C00
300300
200100
400080
C1E080
821040
861840
85E040
860040
831840
81E080
400080
200100
100200
0C0400
03F800
ENDCHAR
STARTCHAR 24D5
ENCODING 9429
SWIDTH 1000 0
DWIDTH 20 0
BBX 18 18 1 -1
BITMAP
03F000
0C0C00
100600
207100
409180
408080
808040
83E040
808040
808040
808040
808040
808080
408080
21C100
100200
0C0400
03F800
ENDCHAR
STARTCHAR 24D6
ENCODING 9430
SWIDTH 1000 0
DWIDTH 20 0
BBX 18 18 1 -1
BITMAP
03F000
040800
180600
200100
41D980
422880
821040
821040
812040
82C040
83E040
821840
840880
461880
23F100
100200
0C0400
03F800
ENDCHAR
STARTCHAR 24D7
ENCODING 9431
SWIDTH 1000 0
DWIDTH 20 0
BBX 18 18 1 -1
BITMAP
03F000
0C0C00
100600
220100
460180
420080
820040
82F040
831840
820840
820840
820840
820880
420880
471D00
300200
0C0400
03F800
ENDCHAR
STARTCHAR 24D8
ENCODING 9432
SWIDTH 1000 0
DWIDTH 20 0
BBX 18 18 1 -1
BITMAP
01F000
060C00
080200
306100
206080
400080
C00040
80C040
804040
804040
804040
804040
404080
404080
20E100
100200
0C0400
03F800
ENDCHAR
STARTCHAR 24D9
ENCODING 9433
SWIDTH 1000 0
DWIDTH 20 0
BBX 18 18 1 -1
BITMAP
03E000
0C1800
106600
206100
400100
400080
80C040
804040
804040
804040
804040
804040
804080
404080
424100
328200
0D0400
03F800
ENDCHAR
STARTCHAR 24DA
ENCODING 9434
SWIDTH 1000 0
DWIDTH 20 0
BBX 18 19 1 -2
BITMAP
03E000
0C1800
100400
220200
460100
420080
820080
827840
822040
824040
828040
834040
8220C0
823080
473980
200500
100600
0C0C00
03F000
ENDCHAR
STARTCHAR 24DB
ENCODING 9435
SWIDTH 1000 0
DWIDTH 20 0
BBX 18 18 1 -1
BITMAP
01F000
060C00
080200
304100
20C080
404080
C04040
804040
804040
804040
804040
804040
404080
404080
20E100
100200
0C0400
03F800
ENDCHAR
STARTCHAR 24DC
ENCODING 9436
SWIDTH 1000 0
DWIDTH 20 0
BBX 18 18 1 -1
BITMAP
03E000
0C1800
100600
200100
400180
5B9880
8C6440
884440
884440
884440
884440
884440
9CEE80
400080
400100
300200
0C0400
03F800
ENDCHAR
STARTCHAR 24DD
ENCODING 9437
SWIDTH 1000 0
DWIDTH 20 0
BBX 18 18 1 -1
BITMAP
03F000
0C0C00
100600
200100
400180
46F080
831840
820840
820840
820840
820840
820840
871C80
400080
200100
100200
0C0400
03F800
ENDCHAR
STARTCHAR 24DE
ENCODING 9438
SWIDTH 1000 0
DWIDTH 20 0
BBX 18 18 1 -1
BITMAP
03F000
040800
180600
200100
400180
41E080
821040
840840
840840
840840
840840
841040
823080
41E080
200100
100200
0C0400
03F800
ENDCHAR
STARTCHAR 24DF
ENCODING 9439
SWIDTH 1000 0
DWIDTH 20 0
BBX 18 18 1 -1
BITMAP
03E000
0C1800
100400
200300
400100
47E080
821040
820840
820840
820840
821040
83E040
820080
820080
470100
200200
180400
07F800
ENDCHAR
STARTCHAR 24E0
ENCODING 9440
SWIDTH 1000 0
DWIDTH 20 0
BBX 18 18 1 -1
BITMAP
01F000
060C00
080200
300100
200080
41F080
C21040
841040
841040
841040
821040
81F040
401080
401080
203900
100200
0C0400
03F800
ENDCHAR
STARTCHAR 24E1
ENCODING 9441
SWIDTH 1000 0
DWIDTH 20 0
BBX 18 18 1 -1
BITMAP
01F000
060C00
180200
200100
400080
41B880
80C840
808040
808040
808040
808040
808040
41C080
400080
200100
100200
0C0400
03F800
ENDCHAR
STARTCHAR 24E2
ENCODING 9442
SWIDTH 1000 0
DWIDTH 20 0
BBX 18 18 1 -1
BITMAP
03F000
040800
180600
200100
600180
41C080
823040
821040
810040
80E040
821040
820840
831880
40F080
200100
100200
0C0400
03F800
ENDCHAR
STARTCHAR 24E3
ENCODING 9443
SWIDTH 1000 0
DWIDTH 20 0
BBX 18 19 1 -2
BITMAP
01F000
060C00
180200
200100
408180
408080
83F040
808040
808040
808040
808040
808040
C09040
40E080
600080
300100
180200
0E0C00
03F000
ENDCHAR
STARTCHAR 24E4
ENCODING 9444
SWIDTH 1000 0
DWIDTH 20 0
BBX 18 18 1 -1
BITMAP
03F000
040800
180600
200100
600180
421080
C63040
821040
821040
821040
821040
821040
433080
41E880
200100
100200
0C0400
03F800
ENDCHAR
STARTCHAR 24E5
ENCODING 9445
SWIDTH 1000 0
DWIDTH 20 0
BBX 18 18 1 -1
BITMAP
03F000
040800
180600
200100
400180
400080
8F3C40
821040
831040
812040
812040
80C040
80C080
408080
400100
300200
0C0400
03F800
ENDCHAR
STARTCHAR 24E6
ENCODING 9446
SWIDTH 1000 0
DWIDTH 20 0
BBX 18 18 1 -1
BITMAP
03F000
040800
180600
200100
400180
400080
9CEE40
884440
84C440
84A840
852840
833040
831080
421080
400100
300200
0C0400
03F800
ENDCHAR
STARTCHAR 24E7
ENCODING 9447
SWIDTH 1000 0
DWIDTH 20 0
BBX 18 17 1 -1
BITMAP
03F000
0C0C00
100200
200100
400080
4F3880
812040
80C040
80C040
812040
821040
861880
492480
200100
100200
0C0400
03F800
ENDCHAR
STARTCHAR 24E8
ENCODING 9448
SWIDTH 1000 0
DWIDTH 20 0
BBX 18 18 1 -1
BITMAP
03F000
040800
180600
200100
400180
47BC80
820840
811040
809040
80A040
806040
804040
804080
428080
438100
300200
0C0400
03F800
ENDCHAR
STARTCHAR 24E9
ENCODING 9449
SWIDTH 1000 0
DWIDTH 20 0
BBX 18 17 1 -1
BITMAP
03F000
0C0C00
100200
200100
400080
43F080
826040
804040
808040
819040
811040
421080
41E080
200100
100200
0C0C00
03F000
ENDCHAR
STARTCHAR 24EB
ENCODING 9451
SWIDTH 1000 0
DWIDTH 20 0
BBX 18 18 1 -1
BITMAP
03F000
0FF800
1FFE00
3BF700
73E780
7BF780
FBF7C0
FBF7C0
FBF7C0
FBF7C0
FBF7C0
FBF7C0
7BF780
7BF780
31E300
1FFE00
0FFC00
03F000
ENDCHAR
STARTCHAR 24EC
ENCODING 9452
SWIDTH 1000 0
DWIDTH 20 0
BBX 18 18 1 -1
BITMAP
03F000
07FC00
1FFE00
3BC300
739980
7BAD80
FB8DC0
FBFDC0
FBFBC0
FBFFC0
FBF7C0
FBEFC0
7BDD80
7BFD80
318100
1FFE00
0FFC00
03F000
ENDCHAR
STARTCHAR 24ED
ENCODING 9453
SWIDTH 1000 0
DWIDTH 20 0
BBX 18 17 1 -1
BITMAP
03F000
0FFC00
3FFE00
33F700
7BBB80
FBBB80
FBFBC0
FBF7C0
FBFFC0
FBFBC0
FBFBC0
7B3B80
7B3B80
31B700
1FFE00
0FFC00
03F000
ENDCHAR
STARTCHAR 24EE
ENCODING 9454
SWIDTH 1000 0
DWIDTH 20 0
BBX 18 17 1 -1
BITMAP
03F000
0FFC00
1FFE00
33F700
7BE780
7BF780
FBD7C0
FBF7C0
FBB7C0
FB77C0
FB01C0
7BF780
7BF780
31E300
1FFE00
0FFC00
03F000
ENDCHAR
STARTCHAR 24EF
ENCODING 9455
SWIDTH 1000 0
DWIDTH 20 0
BBX 18 17 1 -1
BITMAP
03F000
0FFC00
1FFF00
338300
7BBF80
7BBF80
FBBFC0
FBC3C0
FBB9C0
FBFDC0
FBFDC0
7BBD80
7BBF80
31FF00
1FFE00
0FFC00
03F000
ENDCHAR
STARTCHAR 24F0
ENCODING 9456
SWIDTH 1000 0
DWIDTH 20 0
BBX 18 18 1 -1
BITMAP
03F000
07FC00
1FFE00
3BE300
73D980
7BD980
FBBFC0
FBBFC0
FBBBC0
FBBDC0
FBBDC0
FBBDC0
7BBD80
7BDF80
31FB00
1FFE00
0FFC00
03F000
ENDCHAR
STARTCHAR 24F1
ENCODING 9457
SWIDTH 1000 0
DWIDTH 20 0
BBX 18 17 1 -1
BITMAP
03F000
0FFE00
1FFF00
338100
7BBD80
7BBB80
FBFBC0
FBFFC0
FBF7C0
FBF7C0
FBE7C0
7BE780
7BEF80
31EF00
1FFE00
0FFC00
03F000
ENDCHAR
STARTCHAR 24F2
ENCODING 9458
SWIDTH 1000 0
DWIDTH 20 0
BBX 18 18 1 -1
BITMAP
03F000
07FC00
1FFE00
3BC300
739980
7BBD80
FBBDC0
FBDBC0
FBC7C0
FBFBC0
FBBBC0
FB7DC0
7B7D80
7B7D80
31BB00
1FFE00
0FFC00
03F000
ENDCHAR
STARTCHAR 24F3
ENCODING 9459
SWIDTH 1000 0
DWIDTH 20 0
BBX 18 18 1 -1
BITMAP
03F000
07FC00
1FFE00
3BC700
73DB80
7BBD80
FBBDC0
FBBDC0
FBBDC0
FB9DC0
FBC5C0
FBF9C0
7B9B80
7B9B80
31F700
1FFE00
0FFC00
03F000
ENDCHAR
STARTCHAR 24F4
ENCODING 9460
SWIDTH 1000 0
DWIDTH 20 0
BBX 18 18 1 -1
BITMAP
03E000
0FF800
1FFE00
31E300
6EEB80
66DD80
E6DDC0
FEDDC0
FDDDC0
FDDDC0
FBDDC0
FFDDC0
77DD80
6EFF80
20EB00
1FFE00
0FFC00
03F000
ENDCHAR
STARTCHAR 24F5
ENCODING 9461
SWIDTH 1000 0
DWIDTH 20 0
BBX 19 19 1 -2
BITMAP
03F800
0FF600
1E0D00
384280
71C140
604140
E040A0
C040A0
C040A0
C040A0
C040A0
C040A0
E04140
604140
70E280
391500
1E1A00
0FEC00
03F000
ENDCHAR
STARTCHAR 24F6
ENCODING 9462
SWIDTH 1000 0
DWIDTH 20 0
BBX 19 19 0 -2
BITMAP
03F800
0DFE00
160700
28F180
5108C0
6304C0
A30460
C00460
C00860
C01060
C02060
C04060
6084A0
6104C0
73FD40
380280
1E0D00
07F600
01F800
ENDCHAR
STARTCHAR 24F7
ENCODING 9463
SWIDTH 1000 0
DWIDTH 20 0
BBX 19 19 1 -2
BITMAP
03F000
0FFE00
1E0F00
380380
71F1C0
6218C0
E308E0
C00860
C01060
C0E060
C01860
C00460
E204C0
620D40
71F180
380780
1E1B00
0FEC00
03F000
ENDCHAR
STARTCHAR 24F8
ENCODING 9464
SWIDTH 1000 0
DWIDTH 20 0
BBX 18 19 1 -2
BITMAP
07F000
1BFC00
2C0E00
502300
A06180
A0A180
4120C0
4120C0
4220C0
4420C0
4820C0
4FF8C0
A02140
A02180
507280
288500
161A00
0DEC00
03F000
ENDCHAR
STARTCHAR 24F9
ENCODING 9465
SWIDTH 1000 0
DWIDTH 20 0
BBX 18 19 1 -2
BITMAP
03F000
0C0C00
17F200
380D00
63F280
C20180
C20140
8200C0
83E0C0
8210C0
8008C0
8008C0
C60940
C61180
63E280
300500
1C1A00
0FEC00
03F000
ENDCHAR
STARTCHAR 24FA
ENCODING 9466
SWIDTH 1000 0
DWIDTH 20 0
BBX 18 19 1 -2
BITMAP
07F000
1BFC00
2C0E00
50F300
A11980
C21980
4600C0
8600C0
84E0C0
8718C0
8408C0
8408C0
C20940
C21180
61E280
300500
1C1A00
0FEC00
03F000
ENDCHAR
STARTCHAR 24FB
ENCODING 9467
SWIDTH 1000 0
DWIDTH 20 0
BBX 18 19 1 -2
BITMAP
03F000
0C0C00
13F200
2C0D00
53FA80
A20980
A21140
4410C0
4020C0
4020C0
4020C0
4020C0
A04140
A04180
504280
284500
161A00
0DEC00
03F000
ENDCHAR
STARTCHAR 24FC
ENCODING 9468
SWIDTH 1000 0
DWIDTH 20 0
BBX 18 19 1 -2
BITMAP
07F000
1BFC00
2C0E00
51E300
A31180
C21180
4210C0
8310C0
81A0C0
8260C0
8410C0
8408C0
C40940
C61980
61E280
300500
1C1A00
0FEC00
03F000
ENDCHAR
STARTCHAR 24FD
ENCODING 9469
SWIDTH 1000 0
DWIDTH 20 0
BBX 18 19 1 -2
BITMAP
07F000
1BFC00
2C0E00
51E300
A23180
C41180
4408C0
8408C0
8408C0
8218C0
81E8C0
8018C0
C61140
C63180
63C280
300500
1C1A00
0FEC00
03F000
ENDCHAR
STARTCHAR 24FE
ENCODING 9470
SWIDTH 1000 0
DWIDTH 20 0
BBX 19 19 0 -2
BITMAP
03F800
0DFE00
160F00
280380
5619C0
6224C0
A242E0
C24260
C24260
C24260
C24260
C24260
E242C0
6224C0
771980
380380
1E0F00
0FFC00
03F000
ENDCHAR
STARTCHAR 2500
ENCODING 9472
SWIDTH 1000 0
DWIDTH 20 0
BBX 20 1 0 7
BITMAP
FFFFF0
ENDCHAR
STARTCHAR 2501
ENCODING 9473
SWIDTH 1000 0
DWIDTH 20 0
BBX 20 2 0 7
BITMAP
FFFFF0
FFFFF0
ENDCHAR
STARTCHAR 2502
ENCODING 9474
SWIDTH 1000 0
DWIDTH 20 0
BBX 1 20 10 -2
BITMAP
80
80
80
80
80
80
80
80
80
80
80
80
80
80
80
80
80
80
80
80
ENDCHAR
STARTCHAR 2503
ENCODING 9475
SWIDTH 1000 0
DWIDTH 20 0
BBX 2 20 9 -2
BITMAP
C0
C0
C0
C0
C0
C0
C0
C0
C0
C0
C0
C0
C0
C0
C0
C0
C0
C0
C0
C0
ENDCHAR
STARTCHAR 250C
ENCODING 9484
SWIDTH 1000 0
DWIDTH 20 0
BBX 10 10 10 -2
BITMAP
FFC0
8000
8000
8000
8000
8000
8000
8000
8000
8000
ENDCHAR
STARTCHAR 250F
ENCODING 9487
SWIDTH 1000 0
DWIDTH 20 0
BBX 11 11 9 -2
BITMAP
FFE0
FFE0
C000
C000
C000
C000
C000
C000
C000
C000
C000
ENDCHAR
STARTCHAR 2510
ENCODING 9488
SWIDTH 1000 0
DWIDTH 20 0
BBX 10 10 0 -2
BITMAP
FFC0
0040
0040
0040
0040
0040
0040
0040
0040
0040
ENDCHAR
STARTCHAR 2513
ENCODING 9491
SWIDTH 1000 0
DWIDTH 20 0
BBX 11 11 0 -2
BITMAP
FFE0
FFE0
0060
0060
0060
0060
0060
0060
0060
0060
0060
ENDCHAR
STARTCHAR 2514
ENCODING 9492
SWIDTH 1000 0
DWIDTH 20 0
BBX 10 11 10 7
BITMAP
8000
8000
8000
8000
8000
8000
8000
8000
8000
8000
FFC0
ENDCHAR
STARTCHAR 2517
ENCODING 9495
SWIDTH 1000 0
DWIDTH 20 0
BBX 11 11 9 7
BITMAP
C000
C000
C000
C000
C000
C000
C000
C000
C000
FFE0
FFE0
ENDCHAR
STARTCHAR 2518
ENCODING 9496
SWIDTH 1000 0
DWIDTH 20 0
BBX 10 11 0 7
BITMAP
0040
0040
0040
0040
0040
0040
0040
0040
0040
0040
FFC0
ENDCHAR
STARTCHAR 251B
ENCODING 9499
SWIDTH 1000 0
DWIDTH 20 0
BBX 11 11 0 7
BITMAP
0060
0060
0060
0060
0060
0060
0060
0060
0060
FFE0
FFE0
ENDCHAR
STARTCHAR 251C
ENCODING 9500
SWIDTH 1000 0
DWIDTH 20 0
BBX 10 20 10 -2
BITMAP
8000
8000
8000
8000
8000
8000
8000
8000
8000
8000
FFC0
8000
8000
8000
8000
8000
8000
8000
8000
8000
ENDCHAR
STARTCHAR 251D
ENCODING 9501
SWIDTH 1000 0
DWIDTH 20 0
BBX 10 20 10 -2
BITMAP
8000
8000
8000
8000
8000
8000
8000
8000
8000
FFC0
FFC0
8000
8000
8000
8000
8000
8000
8000
8000
8000
ENDCHAR
STARTCHAR 2520
ENCODING 9504
SWIDTH 1000 0
DWIDTH 20 0
BBX 11 20 9 -2
BITMAP
C000
C000
C000
C000
C000
C000
C000
C000
C000
C000
FFE0
C000
C000
C000
C000
C000
C000
C000
C000
C000
ENDCHAR
STARTCHAR 2523
ENCODING 9507
SWIDTH 1000 0
DWIDTH 20 0
BBX 11 20 9 -2
BITMAP
C000
C000
C000
C000
C000
C000
C000
C000
C000
FFE0
FFE0
C000
C000
C000
C000
C000
C000
C000
C000
C000
ENDCHAR
STARTCHAR 2524
ENCODING 9508
SWIDTH 1000 0
DWIDTH 20 0
BBX 10 20 0 -2
BITMAP
0040
0040
0040
0040
0040
0040
0040
0040
0040
0040
FFC0
0040
0040
0040
0040
0040
0040
0040
0040
0040
ENDCHAR
STARTCHAR 2525
ENCODING 9509
SWIDTH 1000 0
DWIDTH 20 0
BBX 10 20 0 -2
BITMAP
0040
0040
0040
0040
0040
0040
0040
0040
0040
FFC0
FFC0
0040
0040
0040
0040
0040
0040
0040
0040
0040
ENDCHAR
STARTCHAR 2528
ENCODING 9512
SWIDTH 1000 0
DWIDTH 20 0
BBX 11 20 0 -2
BITMAP
0060
0060
0060
0060
0060
0060
0060
0060
0060
0060
FFE0
0060
0060
0060
0060
0060
0060
0060
0060
0060
ENDCHAR
STARTCHAR 252B
ENCODING 9515
SWIDTH 1000 0
DWIDTH 20 0
BBX 11 20 0 -2
BITMAP
0060
0060
0060
0060
0060
0060
0060
0060
0060
FFE0
FFE0
0060
0060
0060
0060
0060
0060
0060
0060
0060
ENDCHAR
STARTCHAR 252C
ENCODING 9516
SWIDTH 1000 0
DWIDTH 20 0
BBX 20 10 0 -2
BITMAP
FFFFF0
002000
002000
002000
002000
002000
002000
002000
002000
002000
ENDCHAR
STARTCHAR 252F
ENCODING 9519
SWIDTH 1000 0
DWIDTH 20 0
BBX 20 11 0 -2
BITMAP
FFFFF0
FFFFF0
002000
002000
002000
002000
002000
002000
002000
002000
002000
ENDCHAR
STARTCHAR 2530
ENCODING 9520
SWIDTH 1000 0
DWIDTH 20 0
BBX 20 10 0 -2
BITMAP
FFFFF0
006000
006000
006000
006000
006000
006000
006000
006000
006000
ENDCHAR
STARTCHAR 2533
ENCODING 9523
SWIDTH 1000 0
DWIDTH 20 0
BBX 20 11 0 -2
BITMAP
FFFFF0
FFFFF0
006000
006000
006000
006000
006000
006000
006000
006000
006000
ENDCHAR
STARTCHAR 2534
ENCODING 9524
SWIDTH 1000 0
DWIDTH 20 0
BBX 20 11 0 7
BITMAP
002000
002000
002000
002000
002000
002000
002000
002000
002000
002000
FFFFF0
ENDCHAR
STARTCHAR 2537
ENCODING 9527
SWIDTH 1000 0
DWIDTH 20 0
BBX 20 11 0 7
BITMAP
002000
002000
002000
002000
002000
002000
002000
002000
002000
FFFFF0
FFFFF0
ENDCHAR
STARTCHAR 2538
ENCODING 9528
SWIDTH 1000 0
DWIDTH 20 0
BBX 20 11 0 7
BITMAP
006000
006000
006000
006000
006000
006000
006000
006000
006000
006000
FFFFF0
ENDCHAR
STARTCHAR 253B
ENCODING 9531
SWIDTH 1000 0
DWIDTH 20 0
BBX 20 11 0 7
BITMAP
006000
006000
006000
006000
006000
006000
006000
006000
006000
FFFFF0
FFFFF0
ENDCHAR
STARTCHAR 253C
ENCODING 9532
SWIDTH 1000 0
DWIDTH 20 0
BBX 20 20 0 -2
BITMAP
002000
002000
002000
002000
002000
002000
002000
002000
002000
002000
FFFFF0
002000
002000
002000
002000
002000
002000
002000
002000
002000
ENDCHAR
STARTCHAR 253F
ENCODING 9535
SWIDTH 1000 0
DWIDTH 20 0
BBX 20 20 0 -2
BITMAP
002000
002000
002000
002000
002000
002000
002000
002000
002000
FFFFF0
FFFFF0
002000
002000
002000
002000
002000
002000
002000
002000
002000
ENDCHAR
STARTCHAR 2542
ENCODING 9538
SWIDTH 1000 0
DWIDTH 20 0
BBX 20 20 0 -2
BITMAP
006000
006000
006000
006000
006000
006000
006000
006000
006000
006000
FFFFF0
006000
006000
006000
006000
006000
006000
006000
006000
006000
ENDCHAR
STARTCHAR 254B
ENCODING 9547
SWIDTH 1000 0
DWIDTH 20 0
BBX 20 20 0 -2
BITMAP
006000
006000
006000
006000
006000
006000
006000
006000
006000
FFFFF0
FFFFF0
006000
006000
006000
006000
006000
006000
006000
006000
006000
ENDCHAR
STARTCHAR 25A0
ENCODING 9632
SWIDTH 1000 0
DWIDTH 20 0
BBX 14 15 3 0
BITMAP
FFFC
FFFC
FFFC
FFFC
FFFC
FFFC
FFFC
FFFC
FFFC
FFFC
FFFC
FFFC
FFFC
FFFC
FFFC
ENDCHAR
STARTCHAR 25A1
ENCODING 9633
SWIDTH 1000 0
DWIDTH 20 0
BBX 14 15 3 0
BITMAP
FFFC
8004
8004
8004
8004
8004
8004
8004
8004
8004
8004
8004
8004
8004
FFFC
ENDCHAR
STARTCHAR 25B1
ENCODING 9649
SWIDTH 500 0
DWIDTH 10 0
BBX 8 5 1 5
BITMAP
3F
41
42
82
FC
ENDCHAR
STARTCHAR 25B2
ENCODING 9650
SWIDTH 1000 0
DWIDTH 20 0
BBX 16 16 2 0
BITMAP
0100
0180
0180
03C0
03C0
07E0
07E0
0FF0
0FF0
1FF8
1FF8
3FFC
3FFC
7FFE
7FFE
FFFF
ENDCHAR
STARTCHAR 25B3
ENCODING 9651
SWIDTH 1000 0
DWIDTH 20 0
BBX 16 16 2 0
BITMAP
0100
0180
0180
0240
0240
0420
0420
0810
0810
1008
1008
2004
2004
4002
4002
FFFF
ENDCHAR
STARTCHAR 25B6
ENCODING 9654
SWIDTH 500 0
DWIDTH 10 0
BBX 8 11 1 2
BITMAP
80
E0
F0
F8
FE
FF
FE
F8
F0
C0
80
ENDCHAR
STARTCHAR 25B7
ENCODING 9655
SWIDTH 500 0
DWIDTH 10 0
BBX 8 11 1 2
BITMAP
80
E0
90
8C
82
81
86
88
B0
C0
80
ENDCHAR
STARTCHAR 25BC
ENCODING 9660
SWIDTH 1000 0
DWIDTH 20 0
BBX 16 16 2 -1
BITMAP
FFFF
7FFE
7FFE
3FFC
3FFC
1FF8
1FF8
0FF0
0FF0
07E0
07E0
03C0
03C0
0180
0180
0100
ENDCHAR
STARTCHAR 25BD
ENCODING 9661
SWIDTH 1000 0
DWIDTH 20 0
BBX 16 16 2 -1
BITMAP
FFFF
4002
4002
2004
2004
1008
1008
0810
0810
0420
0420
0240
0240
0180
0180
0100
ENDCHAR
STARTCHAR 25C0
ENCODING 9664
SWIDTH 500 0
DWIDTH 10 0
BBX 8 11 1 2
BITMAP
01
07
0F
1F
7F
FF
7F
1F
0F
03
01
ENDCHAR
STARTCHAR 25C1
ENCODING 9665
SWIDTH 500 0
DWIDTH 10 0
BBX 8 11 1 2
BITMAP
01
07
09
31
41
81
61
11
0D
03
01
ENDCHAR
STARTCHAR 25C6
ENCODING 9670
SWIDTH 1000 0
DWIDTH 20 0
BBX 18 18 1 -2
BITMAP
008000
00C000
01E000
03F000
07F800
0FFC00
1FFE00
3FFF00
7FFF80
FFFFC0
7FFF80
3FFF00
1FFE00
0FFC00
07F800
03F000
01E000
00C000
ENDCHAR
STARTCHAR 25C7
ENCODING 9671
SWIDTH 1000 0
DWIDTH 20 0
BBX 18 18 1 -2
BITMAP
008000
00C000
012000
021000
040800
080400
100200
200100
400080
800040
400080
200100
100200
080400
040800
021000
012000
00C000
ENDCHAR
STARTCHAR 25C9
ENCODING 9673
SWIDTH 500 0
DWIDTH 10 0
BBX 10 9 0 3
BITMAP
1E00
6180
4E80
9F40
9F40
9F40
4E80
6180
1E00
ENDCHAR
STARTCHAR 25CB
ENCODING 9675
SWIDTH 1000 0
DWIDTH 20 0
BBX 16 17 2 -1
BITMAP
07E0
1C30
300C
2004
4002
C003
8001
8001
8001
8001
8001
8002
4002
4004
200C
1838
07E0
ENDCHAR
STARTCHAR 25CE
ENCODING 9678
SWIDTH 1000 0
DWIDTH 20 0
BBX 16 17 2 -1
BITMAP
07E0
0C30
300C
23C4
4C32
C812
9009
9009
9009
9009
8811
4C31
43C2
2002
3004
0C18
07E0
ENDCHAR
STARTCHAR 25CF
ENCODING 9679
SWIDTH 1000 0
DWIDTH 20 0
BBX 17 17 2 -1
BITMAP
03E000
0FF800
3FFC00
3FFE00
7FFF00
7FFF00
FFFF80
FFFF80
FFFF80
FFFF80
FFFF80
7FFF00
7FFF00
3FFE00
1FFC00
0FF800
03E000
ENDCHAR
STARTCHAR 25D0
ENCODING 9680
SWIDTH 500 0
DWIDTH 10 0
BBX 10 9 0 3
BITMAP
1E00
7980
78C0
F840
F840
F840
F880
7900
1E00
ENDCHAR
STARTCHAR 25D1
ENCODING 9681
SWIDTH 500 0
DWIDTH 10 0
BBX 10 9 0 3
BITMAP
1E00
6780
47C0
87C0
87C0
87C0
C780
6780
1E00
ENDCHAR
STARTCHAR 25D2
ENCODING 9682
SWIDTH 500 0
DWIDTH 10 0
BBX 9 10 1 3
BITMAP
1C00
6300
8100
8180
0080
FF80
FF80
7F00
7F00
3E00
ENDCHAR
STARTCHAR 25D3
ENCODING 9683
SWIDTH 500 0
DWIDTH 10 0
BBX 9 10 1 3
BITMAP
1E00
7F00
7F00
FF80
FF80
0080
8180
8100
4200
3C00
ENDCHAR
STARTCHAR 25E6
ENCODING 9702
SWIDTH 500 0
DWIDTH 10 0
BBX 4 5 3 5
BITMAP
60
90
90
90
60
ENDCHAR
STARTCHAR 25EF
ENCODING 9711
SWIDTH 1000 0
DWIDTH 20 0
BBX 18 18 1 -1
BITMAP
03F000
040800
180600
200100
400180
400080
800040
800040
800040
800040
800040
800040
800080
400080
200100
100200
0C0400
03F800
ENDCHAR
STARTCHAR 2600
ENCODING 9728
SWIDTH 1000 0
DWIDTH 20 0
BBX 18 19 1 -2
BITMAP
004000
004000
004000
204100
11E200
0FFC00
07F800
0FFC00
0FFC00
EFFDC0
0FFC00
07F800
07F800
09E400
100200
204100
004000
004000
004000
ENDCHAR
STARTCHAR 2601
ENCODING 9729
SWIDTH 1000 0
DWIDTH 20 0
BBX 18 14 1 -1
BITMAP
03C000
07E000
0FF000
0FF380
0FFFC0
0FFFC0
3FFFC0
7FFF80
FFFF00
FFFFC0
FF7FC0
7E7FC0
3C3F80
001F00
ENDCHAR
STARTCHAR 2602
ENCODING 9730
SWIDTH 1000 0
DWIDTH 20 0
BBX 19 19 1 -2
BITMAP
004000
004000
03F800
0FFE00
3FFF80
7FFF80
7FFFC0
CCE620
884220
884420
004000
004000
004000
004000
004000
004000
024000
024000
018000
ENDCHAR
STARTCHAR 2603
ENCODING 9731
SWIDTH 1000 0
DWIDTH 20 0
BBX 18 18 1 -1
BITMAP
819040
082840
184400
004300
C18200
064380
083C00
11B200
D1B200
500400
09E8C0
900600
A0C100
40C100
400100
40C100
20C200
100400
ENDCHAR
STARTCHAR 2605
ENCODING 9733
SWIDTH 1000 0
DWIDTH 20 0
BBX 20 19 0 -2
BITMAP
004000
004000
006000
006000
006000
00F000
00F000
FFFFF0
1FFF80
0FFF00
07FE00
03FC00
03FC00
07FE00
079E00
070E00
0E0700
080100
100100
ENDCHAR
STARTCHAR 2606
ENCODING 9734
SWIDTH 1000 0
DWIDTH 20 0
BBX 20 19 0 -2
BITMAP
004000
004000
006000
006000
00A000
009000
009000
FF9FF0
200040
180180
040200
020400
020400
044400
04F200
050A00
0A0600
0C0300
100100
ENDCHAR
STARTCHAR 260E
ENCODING 9742
SWIDTH 1000 0
DWIDTH 20 0
BBX 20 15 0 0
BITMAP
1FFF80
3FFFC0
7B0DE0
730CE0
F3FCF0
07FE00
0F0F00
0E0700
0C0300
1C0380
3C03C0
3E07C0
7F0FE0
7FFFE0
7FFFE0
ENDCHAR
STARTCHAR 2616
ENCODING 9750
SWIDTH 1000 0
DWIDTH 20 0
BBX 16 16 2 1
BITMAP
0180
0660
1818
2004
4002
4002
4002
4002
4002
4002
4002
8002
8001
8001
8001
FFFF
ENDCHAR
STARTCHAR 2617
ENCODING 9751
SWIDTH 1000 0
DWIDTH 20 0
BBX 16 16 2 1
BITMAP
0180
07E0
0FF0
3FFC
7FFE
7FFE
7FFE
7FFE
7FFE
7FFE
7FFE
7FFE
FFFF
FFFF
FFFF
FFFF
ENDCHAR
STARTCHAR 261E
ENCODING 9758
SWIDTH 1000 0
DWIDTH 20 0
BBX 18 8 1 4
BITMAP
71CF80
963040
881080
91FF00
9E5200
906C00
9CD400
937800
ENDCHAR
STARTCHAR 2640
ENCODING 9792
SWIDTH 1000 0
DWIDTH 20 0
BBX 12 18 4 -1
BITMAP
0F00
1980
30C0
2040
2040
2040
2040
1080
0980
0600
0200
0200
FFF0
0200
0200
0200
0200
0200
ENDCHAR
STARTCHAR 2642
ENCODING 9794
SWIDTH 1000 0
DWIDTH 20 0
BBX 16 16 2 -1
BITMAP
007F
0003
0005
0009
0011
0021
0041
3C80
6300
C100
8080
8080
8080
C180
6300
3E00
ENDCHAR
STARTCHAR 2660
ENCODING 9824
SWIDTH 500 0
DWIDTH 10 0
BBX 8 12 1 2
BITMAP
10
18
3C
3C
7E
7E
FF
FF
FF
7E
18
3C
ENDCHAR
STARTCHAR 2661
ENCODING 9825
SWIDTH 500 0
DWIDTH 10 0
BBX 8 11 1 1
BITMAP
66
99
91
81
81
82
42
42
24
18
10
ENDCHAR
STARTCHAR 2662
ENCODING 9826
SWIDTH 500 0
DWIDTH 10 0
BBX 8 13 1 2
BITMAP
10
18
24
24
42
81
81
82
42
24
24
18
10
ENDCHAR
STARTCHAR 2663
ENCODING 9827
SWIDTH 500 0
DWIDTH 10 0
BBX 10 11 0 2
BITMAP
0C00
1E00
1E00
1E00
7F80
FFC0
FFC0
FFC0
7F80
0C00
1E00
ENDCHAR
STARTCHAR 2664
ENCODING 9828
SWIDTH 500 0
DWIDTH 10 0
BBX 8 12 1 2
BITMAP
10
18
24
42
42
81
81
99
FF
28
28
3C
ENDCHAR
STARTCHAR 2665
ENCODING 9829
SWIDTH 500 0
DWIDTH 10 0
BBX 8 11 1 1
BITMAP
66
FF
FF
FF
FF
FE
7E
7E
3C
18
10
ENDCHAR
STARTCHAR 2666
ENCODING 9830
SWIDTH 500 0
DWIDTH 10 0
BBX 8 13 1 2
BITMAP
10
18
3C
3C
7E
FF
FF
7E
7E
3C
3C
18
10
ENDCHAR
STARTCHAR 2667
ENCODING 9831
SWIDTH 500 0
DWIDTH 10 0
BBX 10 11 0 2
BITMAP
0C00
1200
1200
1200
7380
8040
8040
FFC0
1400
1400
1E00
ENDCHAR
STARTCHAR 2668
ENCODING 9832
SWIDTH 1000 0
DWIDTH 20 0
BBX 16 15 2 1
BITMAP
0100
1210
1210
1210
1210
1110
0908
0888
488C
888B
8889
9111
C102
7004
0FF8
ENDCHAR
STARTCHAR 2669
ENCODING 9833
SWIDTH 500 0
DWIDTH 10 0
BBX 4 11 2 2
BITMAP
10
10
10
10
10
10
10
10
F0
F0
E0
ENDCHAR
STARTCHAR 266A
ENCODING 9834
SWIDTH 1000 0
DWIDTH 20 0
BBX 13 17 4 0
BITMAP
0400
0600
0700
0580
04C0
0460
0430
0418
0408
0408
0410
0420
0400
7C00
FC00
FC00
F000
ENDCHAR
STARTCHAR 266B
ENCODING 9835
SWIDTH 500 0
DWIDTH 10 0
BBX 9 11 0 3
BITMAP
0380
1F80
1080
1080
1080
1080
1080
1080
1380
F380
E000
ENDCHAR
STARTCHAR 266C
ENCODING 9836
SWIDTH 500 0
DWIDTH 10 0
BBX 9 11 0 3
BITMAP
0380
1E80
1380
1E80
1080
1080
1080
1080
1380
F380
E000
ENDCHAR
STARTCHAR 266D
ENCODING 9837
SWIDTH 1000 0
DWIDTH 20 0
BBX 8 17 7 -1
BITMAP
80
80
80
80
80
80
BE
C7
83
83
83
82
86
8C
98
A0
C0
ENDCHAR
STARTCHAR 266E
ENCODING 9838
SWIDTH 500 0
DWIDTH 10 0
BBX 4 11 3 2
BITMAP
80
80
B0
F0
90
90
90
F0
90
10
10
ENDCHAR
STARTCHAR 266F
ENCODING 9839
SWIDTH 1000 0
DWIDTH 20 0
BBX 12 17 4 -1
BITMAP
1080
1080
1080
10B0
17E0
FE80
D080
1080
1080
10B0
17F0
7E80
D080
1080
1080
1080
1000
ENDCHAR
STARTCHAR 2713
ENCODING 10003
SWIDTH 1000 0
DWIDTH 20 0
BBX 13 14 5 1
BITMAP
0010
0018
0020
0020
0040
0080
0180
0300
8600
C400
CC00
5800
7000
2000
ENDCHAR
STARTCHAR 2756
ENCODING 10070
SWIDTH 1000 0
DWIDTH 20 0
BBX 18 18 1 -2
BITMAP
008000
00C000
01E000
03F000
07F800
13F400
19E600
3CCF00
7E1F80
FF3FC0
7E9F80
3CCF00
19E600
03F000
07F800
03F000
01E000
00C000
ENDCHAR
STARTCHAR 2776
ENCODING 10102
SWIDTH 1000 0
DWIDTH 20 0
BBX 18 18 1 -1
BITMAP
03F000
07FC00
1FFE00
3F3F00
7FBF80
7FBF80
FFBFC0
FFBFC0
FFBFC0
FFBFC0
FFBFC0
FFBFC0
7FBF80
7FBF80
3F1F00
1FFE00
0FFC00
03F000
ENDCHAR
STARTCHAR 2777
ENCODING 10103
SWIDTH 1000 0
DWIDTH 20 0
BBX 18 18 1 -1
BITMAP
03F000
0FFC00
1FFE00
3FDF00
7DEF80
79E780
F9E7C0
FFC7C0
FFCFC0
FF9FC0
FF3FC0
FE7FC0
7EF780
7DF780
3A0700
1FFE00
0FFC00
03F000
ENDCHAR
STARTCHAR 2778
ENCODING 10104
SWIDTH 1000 0
DWIDTH 20 0
BBX 19 18 0 -2
BITMAP
03F800
0FFE00
1E1F00
3CE780
7DF7C0
7CF7C0
FFF7E0
FFEFE0
FF1FE0
FFE7E0
FFF3E0
F9F3E0
79F3C0
79F7C0
3EEF80
1FFF00
0FFE00
03F800
ENDCHAR
STARTCHAR 2779
ENCODING 10105
SWIDTH 1000 0
DWIDTH 20 0
BBX 18 18 1 -1
BITMAP
03E000
07F800
1FFE00
3FDF00
7F9F80
7F5F80
FFDFC0
FEDFC0
FDDFC0
FBDFC0
FFDFC0
F007C0
7FDF80
7FDF80
3F8F00
1FFE00
0FFC00
03F000
ENDCHAR
STARTCHAR 277A
ENCODING 10106
SWIDTH 1000 0
DWIDTH 20 0
BBX 18 19 1 -2
BITMAP
03F000
0FFC00
1FFE00
3C0F00
7C0F80
7DFF80
FDFFC0
FDFFC0
FE1FC0
FDEFC0
FFF7C0
FFF7C0
F9F7C0
79F780
7BEF80
3FDF00
1FFE00
0FFC00
03F000
ENDCHAR
STARTCHAR 277B
ENCODING 10107
SWIDTH 1000 0
DWIDTH 20 0
BBX 18 18 1 -1
BITMAP
03F000
07F800
1FFE00
3F1F00
7EE780
7DE780
FDFFC0
FBFFC0
FA1FC0
F9EFC0
FBF7C0
FBF7C0
7BF780
7DF780
3CEF00
1E1E00
0FFC00
03F000
ENDCHAR
STARTCHAR 277C
ENCODING 10108
SWIDTH 1000 0
DWIDTH 20 0
BBX 19 18 0 -2
BITMAP
03F800
0FFE00
1FFF00
3C0380
7DFFC0
7DF7C0
FDFFE0
FFEFE0
FFEFE0
FFDFE0
FFDFE0
FF9FE0
7F9FC0
7FBFC0
3FBF80
1FFF00
0FFE00
03F800
ENDCHAR
STARTCHAR 277D
ENCODING 10109
SWIDTH 1000 0
DWIDTH 20 0
BBX 18 18 1 -1
BITMAP
03F000
07F800
1FFE00
3E1F00
78C780
79E780
F9E7C0
FDEFC0
FEDFC0
FFBFC0
FDEFC0
FBF7C0
7BF780
7BF780
3DEF00
1E1E00
0FFC00
03F000
ENDCHAR
STARTCHAR 277E
ENCODING 10110
SWIDTH 1000 0
DWIDTH 20 0
BBX 18 18 1 -1
BITMAP
03F000
07F800
1FFE00
3E1F00
7DCF80
7BEF80
FBF7C0
FBF7C0
FBF7C0
FDF7C0
FE17C0
FFF7C0
79E780
79EF80
3DCF00
1E3E00
0FFC00
03F000
ENDCHAR
STARTCHAR 277F
ENCODING 10111
SWIDTH 1000 0
DWIDTH 20 0
BBX 18 18 1 -1
BITMAP
01F000
07FC00
1FFE00
3BE700
73DB80
7BBD80
FBBDC0
FBBDC0
FBBDC0
FBBDC0
FBBDC0
FBBDC0
7BBD80
7BFF80
31FF00
1FFE00
0FFC00
03F000
ENDCHAR
STARTCHAR 2934
ENCODING 10548
SWIDTH 500 0
DWIDTH 10 0
BBX 8 15 1 1
BITMAP
08
1C
2A
29
49
08
08
08
08
08
08
08
08
10
F0
ENDCHAR
STARTCHAR 2935
ENCODING 10549
SWIDTH 500 0
DWIDTH 10 0
BBX 8 15 1 -1
BITMAP
F0
10
08
08
08
08
08
08
08
08
49
29
2A
1C
08
ENDCHAR
STARTCHAR 29BF
ENCODING 10687
SWIDTH 1000 0
DWIDTH 20 0
BBX 16 17 2 -1
BITMAP
07E0
0C30
300C
2004
4002
C3C2
87E1
87E1
87E1
87E1
83C1
4001
4002
2002
3004
0C18
07E0
ENDCHAR
STARTCHAR 29FA
ENCODING 10746
SWIDTH 500 0
DWIDTH 10 0
BBX 8 11 1 2
BITMAP
24
24
24
24
24
FF
24
24
24
24
24
ENDCHAR
STARTCHAR 29FB
ENCODING 10747
SWIDTH 500 0
DWIDTH 10 0
BBX 8 11 1 2
BITMAP
4A
4A
4A
4A
4A
FF
4A
4A
4A
4A
4A
ENDCHAR
STARTCHAR 3000
ENCODING 12288
SWIDTH 1000 0
DWIDTH 20 0
BBX 0 0 0 0
BITMAP
ENDCHAR
STARTCHAR 3001
ENCODING 12289
SWIDTH 1000 0
DWIDTH 20 0
BBX 4 4 1 -1
BITMAP
80
60
30
30
ENDCHAR
STARTCHAR 3002
ENCODING 12290
SWIDTH 1000 0
DWIDTH 20 0
BBX 5 5 1 -1
BITMAP
70
88
88
88
70
ENDCHAR
STARTCHAR 3003
ENCODING 12291
SWIDTH 1000 0
DWIDTH 20 0
BBX 9 9 5 4
BITMAP
1980
1100
1300
3300
2200
2200
4400
8800
8800
ENDCHAR
STARTCHAR 3005
ENCODING 12293
SWIDTH 1000 0
DWIDTH 20 0
BBX 13 12 3 3
BITMAP
0600
0600
0400
0C30
1BF8
1020
2040
4080
8F00
0180
00C0
0040
ENDCHAR
STARTCHAR 3006
ENCODING 12294
SWIDTH 1000 0
DWIDTH 20 0
BBX 14 15 3 0
BITMAP
0018
000C
0018
0020
0C40
1280
2100
2280
2480
48C0
4840
5000
6000
C000
4000
ENDCHAR
STARTCHAR 3007
ENCODING 12295
SWIDTH 1000 0
DWIDTH 20 0
BBX 16 16 2 0
BITMAP
03E0
0C18
100C
2006
4002
8001
8001
8001
8001
8001
8001
4002
6006
300C
1818
07E0
ENDCHAR
STARTCHAR 3008
ENCODING 12296
SWIDTH 1000 0
DWIDTH 20 0
BBX 8 18 11 -1
BITMAP
03
02
04
08
18
10
20
40
C0
C0
40
20
10
18
08
04
02
03
ENDCHAR
STARTCHAR 3009
ENCODING 12297
SWIDTH 1000 0
DWIDTH 20 0
BBX 8 18 1 -1
BITMAP
C0
40
20
10
18
08
04
02
03
03
02
04
08
18
10
20
40
C0
ENDCHAR
STARTCHAR 300A
ENCODING 12298
SWIDTH 1000 0
DWIDTH 20 0
BBX 8 18 11 -1
BITMAP
0D
0A
12
14
24
28
48
90
A0
A0
90
48
28
24
14
12
0A
09
ENDCHAR
STARTCHAR 300B
ENCODING 12299
SWIDTH 1000 0
DWIDTH 20 0
BBX 8 18 1 -1
BITMAP
A0
90
48
28
24
14
12
0A
09
0D
0A
12
14
24
28
48
90
A0
ENDCHAR
STARTCHAR 300C
ENCODING 12300
SWIDTH 1000 0
DWIDTH 20 0
BBX 5 15 13 2
BITMAP
F8
80
80
80
80
80
80
80
80
80
80
80
80
80
80
ENDCHAR
STARTCHAR 300D
ENCODING 12301
SWIDTH 1000 0
DWIDTH 20 0
BBX 5 14 2 -1
BITMAP
08
08
08
08
08
08
08
08
08
08
08
08
08
F8
ENDCHAR
STARTCHAR 300E
ENCODING 12302
SWIDTH 1000 0
DWIDTH 20 0
BBX 6 15 12 2
BITMAP
FC
84
84
BC
A0
A0
A0
A0
A0
A0
A0
A0
A0
A0
E0
ENDCHAR
STARTCHAR 300F
ENCODING 12303
SWIDTH 1000 0
DWIDTH 20 0
BBX 6 14 2 -1
BITMAP
1C
14
14
14
14
14
14
14
14
14
14
F4
84
FC
ENDCHAR
STARTCHAR 3010
ENCODING 12304
SWIDTH 1000 0
DWIDTH 20 0
BBX 4 18 14 -1
BITMAP
F0
E0
C0
C0
C0
80
80
80
80
80
80
80
80
C0
C0
C0
E0
F0
ENDCHAR
STARTCHAR 3011
ENCODING 12305
SWIDTH 1000 0
DWIDTH 20 0
BBX 4 18 2 -1
BITMAP
F0
70
30
30
30
10
10
10
10
10
10
10
10
30
30
30
70
F0
ENDCHAR
STARTCHAR 3012
ENCODING 12306
SWIDTH 1000 0
DWIDTH 20 0
BBX 14 16 3 -1
BITMAP
FFFC
FFFC
0000
0000
0000
FFFC
FFFC
0300
0300
0300
0300
0300
0300
0300
0300
0300
ENDCHAR
STARTCHAR 3013
ENCODING 12307
SWIDTH 1000 0
DWIDTH 20 0
BBX 14 9 3 3
BITMAP
FFFC
FFFC
FFFC
0000
0000
0000
FFFC
FFFC
FFFC
ENDCHAR
STARTCHAR 3014
ENCODING 12308
SWIDTH 1000 0
DWIDTH 20 0
BBX 4 19 14 -2
BITMAP
10
20
C0
80
80
80
80
80
80
80
80
80
80
80
80
80
C0
30
10
ENDCHAR
STARTCHAR 3015
ENCODING 12309
SWIDTH 1000 0
DWIDTH 20 0
BBX 4 18 2 -2
BITMAP
80
40
30
10
10
10
10
10
10
10
10
10
10
10
10
10
30
C0
ENDCHAR
STARTCHAR 3016
ENCODING 12310
SWIDTH 1000 0
DWIDTH 20 0
BBX 6 18 13 -1
BITMAP
FC
88
90
90
90
A0
A0
A0
A0
A0
A0
A0
A0
90
90
90
88
FC
ENDCHAR
STARTCHAR 3017
ENCODING 12311
SWIDTH 1000 0
DWIDTH 20 0
BBX 6 18 1 -1
BITMAP
FC
44
44
24
24
14
14
14
14
14
14
14
14
24
24
44
44
FC
ENDCHAR
STARTCHAR 3018
ENCODING 12312
SWIDTH 1000 0
DWIDTH 20 0
BBX 5 19 13 -2
BITMAP
08
18
68
98
A0
A0
A0
A0
A0
A0
A0
A0
A0
A0
B0
88
48
38
08
ENDCHAR
STARTCHAR 3019
ENCODING 12313
SWIDTH 1000 0
DWIDTH 20 0
BBX 5 18 2 -2
BITMAP
80
C0
B0
C8
28
28
28
28
28
28
28
28
28
28
68
88
90
E0
ENDCHAR
STARTCHAR 301C
ENCODING 12316
SWIDTH 1000 0
DWIDTH 20 0
BBX 16 5 2 5
BITMAP
1C00
6301
8181
00C6
0038
ENDCHAR
STARTCHAR 301D
ENCODING 12317
SWIDTH 1000 0
DWIDTH 20 0
BBX 6 9 13 8
BITMAP
80
C0
30
08
C4
60
10
08
04
ENDCHAR
STARTCHAR 301F
ENCODING 12319
SWIDTH 1000 0
DWIDTH 20 0
BBX 6 7 1 -1
BITMAP
C0
20
18
8C
60
10
0C
ENDCHAR
STARTCHAR 3020
ENCODING 12320
SWIDTH 1000 0
DWIDTH 20 0
BBX 18 14 1 0
BITMAP
3FFF00
3FFF00
000000
3FFF00
3FFF00
00C000
FCCEC0
94CA40
DCCEC0
44C900
241100
122200
0DCC00
03F000
ENDCHAR
STARTCHAR 3033
ENCODING 12339
SWIDTH 1000 0
DWIDTH 20 0
BBX 7 17 5 -2
BITMAP
04
06
06
06
0C
0C
08
18
10
10
20
20
20
40
40
40
80
ENDCHAR
STARTCHAR 3034
ENCODING 12340
SWIDTH 1000 0
DWIDTH 20 0
BBX 12 17 5 -2
BITMAP
0400
0600
0600
0600
0C00
0C00
0800
1800
1000
1060
2130
20D0
2040
4000
4000
4000
8000
ENDCHAR
STARTCHAR 3035
ENCODING 12341
SWIDTH 1000 0
DWIDTH 20 0
BBX 8 18 5 0
BITMAP
80
40
40
40
20
20
10
18
08
0C
04
06
06
02
03
03
03
01
ENDCHAR
STARTCHAR 303B
ENCODING 12347
SWIDTH 1000 0
DWIDTH 20 0
BBX 9 13 5 1
BITMAP
1000
1000
0C00
0600
0C00
1000
1000
0800
0600
0380
0D00
3000
C000
ENDCHAR
STARTCHAR 303C
ENCODING 12348
SWIDTH 1000 0
DWIDTH 20 0
BBX 17 17 2 -1
BITMAP
FFFF80
800180
800280
800480
800880
801080
802080
804080
808080
810080
820080
840080
880080
900080
A00080
C00080
FFFF80
ENDCHAR
STARTCHAR 303D
ENCODING 12349
SWIDTH 1000 0
DWIDTH 20 0
BBX 15 17 3 -1
BITMAP
3000
D180
0A80
0440
0040
0040
0020
0020
0020
0010
0010
0010
0008
0008
000C
0004
0006
ENDCHAR
STARTCHAR 3041
ENCODING 12353
SWIDTH 1000 0
DWIDTH 20 0
BBX 13 15 4 -1
BITMAP
0C00
0400
4580
3E00
0900
0FC0
1930
2908
4A08
8C08
8808
9810
E820
01C0
0200
ENDCHAR
STARTCHAR 3042
ENCODING 12354
SWIDTH 1000 0
DWIDTH 20 0
BBX 16 17 2 0
BITMAP
0700
0100
0230
23E0
1E00
0240
02F0
076C
1A42
22C1
4281
8301
8201
8E02
F204
0218
00E0
ENDCHAR
STARTCHAR 3043
ENCODING 12355
SWIDTH 1000 0
DWIDTH 20 0
BBX 14 11 3 1
BITMAP
C040
4020
4010
4008
400C
4404
4804
4800
3000
3000
0800
ENDCHAR
STARTCHAR 3044
ENCODING 12356
SWIDTH 1000 0
DWIDTH 20 0
BBX 16 12 2 2
BITMAP
C020
4018
4004
4006
4002
4403
4403
4401
4800
2800
3800
1800
ENDCHAR
STARTCHAR 3045
ENCODING 12357
SWIDTH 1000 0
DWIDTH 20 0
BBX 11 15 4 -1
BITMAP
1800
0700
0800
0000
0780
9840
6020
0020
0020
0020
0040
0080
0100
0E00
1000
ENDCHAR
STARTCHAR 3046
ENCODING 12358
SWIDTH 1000 0
DWIDTH 20 0
BBX 11 17 4 0
BITMAP
1000
0F00
0880
1000
0000
1F80
F840
C020
0020
0020
0020
0020
0040
0080
0100
0600
3800
ENDCHAR
STARTCHAR 3047
ENCODING 12359
SWIDTH 1000 0
DWIDTH 20 0
BBX 13 14 4 0
BITMAP
1800
0780
0800
0000
43C0
3D80
0300
0400
0F00
1900
3100
6100
C080
8078
ENDCHAR
STARTCHAR 3048
ENCODING 12360
SWIDTH 1000 0
DWIDTH 20 0
BBX 15 16 3 1
BITMAP
0800
0780
03C0
0C00
0040
43A0
3C40
0080
0300
0400
0B80
1C80
3040
6040
C040
803E
ENDCHAR
STARTCHAR 3049
ENCODING 12361
SWIDTH 1000 0
DWIDTH 20 0
BBX 13 13 4 0
BITMAP
2000
1040
1030
1618
FC08
1000
1000
17C0
3830
5010
9010
D030
73E0
ENDCHAR
STARTCHAR 304A
ENCODING 12362
SWIDTH 1000 0
DWIDTH 20 0
BBX 16 15 2 1
BITMAP
1800
081C
0806
0B83
FE01
0800
0800
09F8
0E04
1802
6802
8802
8802
4A0C
31F0
ENDCHAR
STARTCHAR 304B
ENCODING 12363
SWIDTH 1000 0
DWIDTH 20 0
BBX 17 15 2 1
BITMAP
0E0000
020000
041000
040C00
9F8200
E8C300
084100
084180
104F80
104080
204000
288000
448000
C30000
820000
ENDCHAR
STARTCHAR 304C
ENCODING 12364
SWIDTH 1000 0
DWIDTH 20 0
BBX 18 17 2 0
BITMAP
000100
0004C0
0E0340
020100
041000
040C00
9F8200
E8C300
084100
084180
104F80
104080
204000
288000
448000
C30000
820000
ENDCHAR
STARTCHAR 304D
ENCODING 12365
SWIDTH 1000 0
DWIDTH 20 0
BBX 13 16 4 0
BITMAP
1C00
0400
06C0
0380
FE00
0118
0170
8380
7C80
0040
0160
00E0
4020
4000
2000
1FC0
ENDCHAR
STARTCHAR 304E
ENCODING 12366
SWIDTH 1000 0
DWIDTH 20 0
BBX 15 17 4 0
BITMAP
0004
1C22
041E
06CC
0380
FE00
0118
0170
8380
7C80
0040
0160
00E0
4020
4000
2000
1FC0
ENDCHAR
STARTCHAR 304F
ENCODING 12367
SWIDTH 1000 0
DWIDTH 20 0
BBX 9 17 5 0
BITMAP
0300
0180
0700
0C00
1800
2000
4000
8000
C000
6000
1000
0C00
0600
0300
0300
0180
0080
ENDCHAR
STARTCHAR 3050
ENCODING 12368
SWIDTH 1000 0
DWIDTH 20 0
BBX 12 17 5 0
BITMAP
0300
0180
0700
0C00
1830
20D0
4060
8020
C000
6000
1000
0C00
0600
0300
0300
0180
0080
ENDCHAR
STARTCHAR 3051
ENCODING 12369
SWIDTH 1000 0
DWIDTH 20 0
BBX 15 18 3 -1
BITMAP
8060
6030
2010
2010
4816
443C
43D0
8010
8010
8010
A010
A010
A020
C020
4040
4080
0100
0200
ENDCHAR
STARTCHAR 3052
ENCODING 12370
SWIDTH 1000 0
DWIDTH 20 0
BBX 17 19 3 -2
BITMAP
000200
806980
603680
201200
201000
481600
443C00
43D000
801000
801000
801000
A01000
A01000
A02000
C02000
404000
408000
010000
020000
ENDCHAR
STARTCHAR 3053
ENCODING 12371
SWIDTH 1000 0
DWIDTH 20 0
BBX 13 13 3 2
BITMAP
3FE0
0180
0200
0400
0000
0000
0000
0000
0000
8000
4000
2038
1FF8
ENDCHAR
STARTCHAR 3054
ENCODING 12372
SWIDTH 1000 0
DWIDTH 20 0
BBX 16 16 3 2
BITMAP
0002
0009
000D
3FE4
0180
0200
0400
0000
0000
0000
0000
0000
8000
4000
2038
1FF8
ENDCHAR
STARTCHAR 3055
ENCODING 12373
SWIDTH 1000 0
DWIDTH 20 0
BBX 13 16 3 0
BITMAP
0E00
0200
0218
0130
81C0
7F80
0080
0040
0060
0120
00F0
4010
2000
2000
1800
07E0
ENDCHAR
STARTCHAR 3056
ENCODING 12374
SWIDTH 1000 0
DWIDTH 20 0
BBX 17 17 3 1
BITMAP
000300
0E0980
020680
021A00
013000
81C000
7F8000
008000
004000
006000
012000
00F000
401000
200000
200000
180000
07E000
ENDCHAR
STARTCHAR 3057
ENCODING 12375
SWIDTH 1000 0
DWIDTH 20 0
BBX 13 16 4 0
BITMAP
C000
6000
6000
6000
6000
4000
4000
4000
4000
4008
4008
4010
4010
2020
30C0
1F00
ENDCHAR
STARTCHAR 3058
ENCODING 12376
SWIDTH 1000 0
DWIDTH 20 0
BBX 13 16 4 0
BITMAP
C000
6000
6040
6230
61D0
4040
4000
4000
4000
4008
4008
4010
4010
2020
30C0
1F00
ENDCHAR
STARTCHAR 3059
ENCODING 12377
SWIDTH 1000 0
DWIDTH 20 0
BBX 17 19 1 -2
BITMAP
00C000
004000
004000
004000
807F80
FFC000
004000
03C000
024000
046000
046000
046000
04E000
03A000
004000
004000
008000
010000
020000
ENDCHAR
STARTCHAR 305A
ENCODING 12378
SWIDTH 1000 0
DWIDTH 20 0
BBX 18 19 1 -1
BITMAP
00C1C0
004640
004100
004000
807F80
FFC000
004000
03C000
024000
046000
046000
046000
04E000
03A000
004000
004000
008000
010000
020000
ENDCHAR
STARTCHAR 305B
ENCODING 12379
SWIDTH 1000 0
DWIDTH 20 0
BBX 19 16 1 0
BITMAP
000800
080400
040400
040400
040400
047FE0
8F8400
740800
040800
046800
041800
041000
040000
060000
030700
00FF00
ENDCHAR
STARTCHAR 305C
ENCODING 12380
SWIDTH 1000 0
DWIDTH 20 0
BBX 19 17 1 1
BITMAP
0000C0
000960
0805A0
040480
040400
040400
047FE0
8F8400
740800
040800
046800
041800
041000
040000
060000
030700
00FF00
ENDCHAR
STARTCHAR 305D
ENCODING 12381
SWIDTH 1000 0
DWIDTH 20 0
BBX 16 16 2 0
BITMAP
0010
10F8
0F30
00C0
0100
0200
0C3F
9FC0
6180
0100
0200
0200
0200
0200
0100
00F8
ENDCHAR
STARTCHAR 305E
ENCODING 12382
SWIDTH 1000 0
DWIDTH 20 0
BBX 17 17 2 1
BITMAP
000180
001480
10FB00
0F3100
00C000
010000
020000
0C3F00
9FC000
618000
010000
020000
020000
020000
020000
010000
00F800
ENDCHAR
STARTCHAR 305F
ENCODING 12383
SWIDTH 1000 0
DWIDTH 20 0
BBX 16 16 2 1
BITMAP
0600
0600
0600
06C0
4780
3C00
083E
08D8
1820
1000
3000
2000
6200
4100
C086
807F
ENDCHAR
STARTCHAR 3060
ENCODING 12384
SWIDTH 1000 0
DWIDTH 20 0
BBX 16 16 2 1
BITMAP
0606
0619
060C
06C4
4780
3C00
083E
08D8
1820
1000
3000
2000
6200
4100
C086
807F
ENDCHAR
STARTCHAR 3061
ENCODING 12385
SWIDTH 1000 0
DWIDTH 20 0
BBX 15 17 2 0
BITMAP
0C00
0C00
0C00
8CC0
7F00
0800
0800
1000
10F8
1306
1C02
1002
0002
0004
0018
00E0
0300
ENDCHAR
STARTCHAR 3062
ENCODING 12386
SWIDTH 1000 0
DWIDTH 20 0
BBX 15 18 2 -1
BITMAP
000C
0C26
0C1A
0C08
8CC0
7F00
0800
0800
1000
10F8
1306
1C02
1002
0002
0004
0018
00E0
0300
ENDCHAR
STARTCHAR 3063
ENCODING 12387
SWIDTH 1000 0
DWIDTH 20 0
BBX 14 10 3 0
BITMAP
03F0
9C08
6004
0004
0004
0004
0008
0030
01C0
0600
ENDCHAR
STARTCHAR 3064
ENCODING 12388
SWIDTH 1000 0
DWIDTH 20 0
BBX 17 12 1 1
BITMAP
007C00
038300
8C0100
700080
000080
000080
000080
000100
000200
000C00
007000
038000
ENDCHAR
STARTCHAR 3065
ENCODING 12389
SWIDTH 1000 0
DWIDTH 20 0
BBX 19 16 1 2
BITMAP
0000C0
000260
000180
000080
007C00
038300
8C0100
700080
000080
000080
000080
000100
000200
000C00
007000
038000
ENDCHAR
STARTCHAR 3066
ENCODING 12390
SWIDTH 1000 0
DWIDTH 20 0
BBX 16 15 1 0
BITMAP
000F
00FF
8F20
70C0
0080
0100
0200
0200
0200
0200
0200
0200
0100
0086
007E
ENDCHAR
STARTCHAR 3067
ENCODING 12391
SWIDTH 1000 0
DWIDTH 20 0
BBX 18 15 1 0
BITMAP
000F00
00FF00
8F2000
70C000
008180
010640
020300
020100
020000
020000
020000
020000
010000
008600
007E00
ENDCHAR
STARTCHAR 3068
ENCODING 12392
SWIDTH 1000 0
DWIDTH 20 0
BBX 12 16 4 0
BITMAP
7000
1000
1000
1040
1060
10E0
0B80
0E00
1800
2000
4000
8000
8000
8000
4070
3FE0
ENDCHAR
STARTCHAR 3069
ENCODING 12393
SWIDTH 1000 0
DWIDTH 20 0
BBX 15 17 4 0
BITMAP
0008
7006
1032
1008
1040
1060
10E0
0B80
0E00
1800
2000
4000
8000
8000
8000
4070
3FE0
ENDCHAR
STARTCHAR 306A
ENCODING 12394
SWIDTH 1000 0
DWIDTH 20 0
BBX 16 16 2 1
BITMAP
0600
0600
05A0
7F1C
0806
083A
1040
1020
2020
6020
C020
87E0
0C38
0826
0C23
03C0
ENDCHAR
STARTCHAR 306B
ENCODING 12395
SWIDTH 1000 0
DWIDTH 20 0
BBX 15 15 3 1
BITMAP
4000
2438
23F0
4040
4180
C000
8000
8000
A000
A000
A400
C200
C306
40FE
4000
ENDCHAR
STARTCHAR 306C
ENCODING 12396
SWIDTH 1000 0
DWIDTH 20 0
BBX 17 15 2 1
BITMAP
010000
208000
208000
10F000
178800
190400
310200
310100
520100
8A0100
8C0100
8C3A00
8C4600
964580
623980
ENDCHAR
STARTCHAR 306D
ENCODING 12397
SWIDTH 1000 0
DWIDTH 20 0
BBX 17 16 2 1
BITMAP
1C0000
040000
040000
040000
8E3800
76C400
050600
0E0200
180200
180200
280200
487A00
E8C600
988700
088D80
087880
ENDCHAR
STARTCHAR 306E
ENCODING 12398
SWIDTH 1000 0
DWIDTH 20 0
BBX 16 14 2 0
BITMAP
03F0
0D1C
1106
2102
4101
4101
8201
8201
8401
8402
8802
5004
6018
00E0
ENDCHAR
STARTCHAR 306F
ENCODING 12399
SWIDTH 1000 0
DWIDTH 20 0
BBX 16 16 3 0
BITMAP
8040
4020
4020
4020
4826
87F8
8020
8020
8020
8020
A020
C3E0
CC38
8826
8863
87C0
ENDCHAR
STARTCHAR 3070
ENCODING 12400
SWIDTH 1000 0
DWIDTH 20 0
BBX 16 17 3 1
BITMAP
0002
8049
4025
4024
4020
4826
87F8
8020
8020
8020
8020
A020
C3E0
CC38
8826
8863
87C0
ENDCHAR
STARTCHAR 3071
ENCODING 12401
SWIDTH 1000 0
DWIDTH 20 0
BBX 16 17 3 0
BITMAP
0006
8049
4029
4027
4020
4826
87F8
8020
8020
8020
8020
A020
C3E0
CC38
8826
8863
87C0
ENDCHAR
STARTCHAR 3072
ENCODING 12402
SWIDTH 1000 0
DWIDTH 20 0
BBX 16 16 2 0
BITMAP
0030
0310
1F18
F618
4C14
180E
100B
2009
2008
4008
4008
4018
4010
2030
30E0
0F80
ENDCHAR
STARTCHAR 3073
ENCODING 12403
SWIDTH 1000 0
DWIDTH 20 0
BBX 18 17 2 0
BITMAP
000100
0034C0
031340
1F1900
F61800
4C1400
180E00
100B00
200900
200800
400800
400800
401800
401000
203000
30E000
0F8000
ENDCHAR
STARTCHAR 3074
ENCODING 12404
SWIDTH 1000 0
DWIDTH 20 0
BBX 17 17 2 0
BITMAP
000300
003480
031480
1F1B80
F61800
4C1400
180E00
100B00
200900
200800
400800
400800
401800
401000
203000
30E000
0F8000
ENDCHAR
STARTCHAR 3075
ENCODING 12405
SWIDTH 1000 0
DWIDTH 20 0
BBX 18 16 1 0
BITMAP
020000
01E000
007000
008000
000000
000000
010000
008800
008600
044100
086080
1830C0
F01040
601000
043000
03E000
ENDCHAR
STARTCHAR 3076
ENCODING 12406
SWIDTH 1000 0
DWIDTH 20 0
BBX 18 16 1 0
BITMAP
020000
01E180
0074C0
008340
000100
000000
010000
008800
008600
044100
086080
1830C0
F01040
601000
043000
03E000
ENDCHAR
STARTCHAR 3077
ENCODING 12407
SWIDTH 1000 0
DWIDTH 20 0
BBX 18 16 1 0
BITMAP
020000
01E180
007240
008240
000180
000000
010000
008800
008600
044100
086080
1830C0
F01040
601000
043000
03E000
ENDCHAR
STARTCHAR 3078
ENCODING 12408
SWIDTH 1000 0
DWIDTH 20 0
BBX 16 10 2 3
BITMAP
0600
0500
0880
10C0
3060
2030
E018
C00C
0007
0001
ENDCHAR
STARTCHAR 3079
ENCODING 12409
SWIDTH 1000 0
DWIDTH 20 0
BBX 16 12 2 4
BITMAP
000C
0026
061A
0508
0880
10C0
3060
2030
E018
C00C
0007
0001
ENDCHAR
STARTCHAR 307A
ENCODING 12410
SWIDTH 1000 0
DWIDTH 20 0
BBX 16 12 2 3
BITMAP
000C
0012
0612
050C
0880
10C0
3060
2030
E018
C00C
0007
0001
ENDCHAR
STARTCHAR 307B
ENCODING 12411
SWIDTH 1000 0
DWIDTH 20 0
BBX 16 16 3 0
BITMAP
8000
440C
43F0
4020
4020
8020
8C3E
83E0
8020
8020
A020
C7E0
CC3C
C827
CC21
43C0
ENDCHAR
STARTCHAR 307C
ENCODING 12412
SWIDTH 1000 0
DWIDTH 20 0
BBX 17 17 3 1
BITMAP
000300
800C80
441600
43FA00
402000
402000
802000
8C3E00
83E000
802000
802000
A02000
C7E000
CC3C00
C82700
CC2100
43C000
ENDCHAR
STARTCHAR 307D
ENCODING 12413
SWIDTH 1000 0
DWIDTH 20 0
BBX 17 17 3 0
BITMAP
000300
800480
441480
43FB00
402000
402000
802000
8C3E00
83E000
802000
802000
A02000
C7E000
CC3C00
C82700
CC2100
43C000
ENDCHAR
STARTCHAR 307E
ENCODING 12414
SWIDTH 1000 0
DWIDTH 20 0
BBX 14 16 3 1
BITMAP
0300
0100
0100
8138
7FC0
0100
0100
4138
3FC0
0100
0100
1F00
61E0
4138
610C
3E00
ENDCHAR
STARTCHAR 307F
ENCODING 12415
SWIDTH 1000 0
DWIDTH 20 0
BBX 17 16 2 -1
BITMAP
10C000
1FC000
008000
008000
010000
010C00
030400
1FC400
643400
840C00
880F00
900980
E01880
001000
006000
008000
ENDCHAR
STARTCHAR 3080
ENCODING 12416
SWIDTH 1000 0
DWIDTH 20 0
BBX 16 16 2 1
BITMAP
1C00
0400
0580
FF0C
0802
0801
3801
480F
8801
8800
9810
F010
1008
1008
101C
0FF8
ENDCHAR
STARTCHAR 3081
ENCODING 12417
SWIDTH 1000 0
DWIDTH 20 0
BBX 16 17 2 0
BITMAP
01C0
2040
1040
10E0
1798
1884
3102
3101
4901
CA01
8A01
8401
8C02
9A06
620C
0030
01C0
ENDCHAR
STARTCHAR 3082
ENCODING 12418
SWIDTH 1000 0
DWIDTH 20 0
BBX 13 17 3 0
BITMAP
0C00
0C00
0C00
0800
8BC0
7C00
0800
1000
9080
7F08
1008
1008
1008
1008
1810
0830
07C0
ENDCHAR
STARTCHAR 3083
ENCODING 12419
SWIDTH 1000 0
DWIDTH 20 0
BBX 15 15 2 -1
BITMAP
0380
1040
2800
087C
0786
0C02
9C02
6206
027C
0200
0100
0100
0180
0080
0080
ENDCHAR
STARTCHAR 3084
ENCODING 12420
SWIDTH 1000 0
DWIDTH 20 0
BBX 17 17 1 -1
BITMAP
018000
006000
386000
080000
043E00
05C100
060080
9A0080
620080
012100
011E00
010000
008000
008000
00C000
004000
004000
ENDCHAR
STARTCHAR 3085
ENCODING 12421
SWIDTH 1000 0
DWIDTH 20 0
BBX 14 15 3 -1
BITMAP
0180
8080
40F0
4398
448C
4884
5084
6084
6084
6488
63B0
21E0
0100
0200
0400
ENDCHAR
STARTCHAR 3086
ENCODING 12422
SWIDTH 1000 0
DWIDTH 20 0
BBX 16 17 2 -1
BITMAP
00C0
8040
6040
20F8
6126
4622
4421
4821
5021
5021
7023
6246
61DC
20F8
2080
0100
0200
ENDCHAR
STARTCHAR 3087
ENCODING 12423
SWIDTH 1000 0
DWIDTH 20 0
BBX 12 14 4 0
BITMAP
0E00
0600
0600
0660
03C0
0200
0200
0200
0200
7E00
8380
82E0
C230
3C00
ENDCHAR
STARTCHAR 3088
ENCODING 12424
SWIDTH 1000 0
DWIDTH 20 0
BBX 14 16 3 0
BITMAP
0700
0300
0300
0300
0118
01F0
0100
0100
0100
0100
0100
3F00
C1E0
8138
C30C
3E00
ENDCHAR
STARTCHAR 3089
ENCODING 12425
SWIDTH 1000 0
DWIDTH 20 0
BBX 13 17 4 0
BITMAP
2000
1F00
1100
0000
4000
6000
6000
C000
87E0
B810
E008
C008
8008
0010
0020
01C0
0E00
ENDCHAR
STARTCHAR 308A
ENCODING 12426
SWIDTH 1000 0
DWIDTH 20 0
BBX 10 17 5 -1
BITMAP
0180
C280
4040
4040
4040
8040
A040
A040
C040
C040
C040
8080
0080
0100
0300
0400
1800
ENDCHAR
STARTCHAR 308B
ENCODING 12427
SWIDTH 1000 0
DWIDTH 20 0
BBX 13 16 3 0
BITMAP
0040
23E0
1CC0
0180
0200
0400
0800
17E0
3830
6018
C008
9C08
2308
2110
11A0
0FC0
ENDCHAR
STARTCHAR 308C
ENCODING 12428
SWIDTH 1000 0
DWIDTH 20 0
BBX 19 16 1 1
BITMAP
0E0000
060000
060000
041C00
4E2200
76C200
050200
060200
0C0600
140400
340460
640440
D40440
8C0480
0C0300
040000
ENDCHAR
STARTCHAR 308D
ENCODING 12429
SWIDTH 1000 0
DWIDTH 20 0
BBX 14 17 3 -1
BITMAP
0040
23E0
1CC0
0180
0200
0400
0800
13E0
2C18
700C
C004
8004
0004
0008
0030
03C0
0C00
ENDCHAR
STARTCHAR 308E
ENCODING 12430
SWIDTH 1000 0
DWIDTH 20 0
BBX 14 14 3 0
BITMAP
1800
0800
0800
0CF0
7D08
0A0C
0C04
1804
2804
4804
E808
9810
18E0
0800
ENDCHAR
STARTCHAR 308F
ENCODING 12431
SWIDTH 1000 0
DWIDTH 20 0
BBX 17 16 1 1
BITMAP
0E0000
060000
060000
040000
4E3C00
764300
058100
060080
0C0080
140080
340080
640080
D40100
CC0200
0C3C00
040000
ENDCHAR
STARTCHAR 3090
ENCODING 12432
SWIDTH 1000 0
DWIDTH 20 0
BBX 16 16 2 0
BITMAP
0080
13C0
1C80
0080
0180
01F8
070C
1B02
2201
4601
4401
8CE1
8931
9112
E18C
0078
ENDCHAR
STARTCHAR 3091
ENCODING 12433
SWIDTH 1000 0
DWIDTH 20 0
BBX 16 16 2 0
BITMAP
10E0
0F60
0080
0300
05F8
0E0C
3804
2704
0888
07F0
0300
0400
183C
3E46
E383
8181
ENDCHAR
STARTCHAR 3092
ENCODING 12434
SWIDTH 1000 0
DWIDTH 20 0
BBX 13 16 3 0
BITMAP
0600
0600
04C0
8780
7800
1800
1018
3E38
63E0
C380
8700
0900
1100
1000
1800
07F8
ENDCHAR
STARTCHAR 3093
ENCODING 12435
SWIDTH 1000 0
DWIDTH 20 0
BBX 16 16 2 0
BITMAP
0200
0180
0180
0300
0200
0600
0400
0800
1B00
1D81
3081
3081
6082
4082
C0C4
8078
ENDCHAR
STARTCHAR 3094
ENCODING 12436
SWIDTH 1000 0
DWIDTH 20 0
BBX 15 18 4 0
BITMAP
000C
1026
0F18
0898
1000
0000
1F80
F840
C020
0020
0020
0020
0020
0040
0080
0100
0600
3800
ENDCHAR
STARTCHAR 3095
ENCODING 12437
SWIDTH 1000 0
DWIDTH 20 0
BBX 15 13 3 0
BITMAP
0C00
0400
0440
0B30
9D88
6884
1082
109E
3082
2180
6900
C600
C600
ENDCHAR
STARTCHAR 3096
ENCODING 12438
SWIDTH 1000 0
DWIDTH 20 0
BBX 13 15 4 -1
BITMAP
80C0
4040
4060
4078
4FF0
8020
8020
8060
A060
A060
C040
C040
4080
4100
0200
ENDCHAR
STARTCHAR 3099
ENCODING 12441
SWIDTH 1000 0
DWIDTH 20 0
BBX 5 4 14 13
BITMAP
38
C8
60
20
ENDCHAR
STARTCHAR 309A
ENCODING 12442
SWIDTH 1000 0
DWIDTH 20 0
BBX 4 4 15 13
BITMAP
60
90
90
60
ENDCHAR
STARTCHAR 309B
ENCODING 12443
SWIDTH 1000 0
DWIDTH 20 0
BBX 5 4 1 13
BITMAP
38
C8
60
20
ENDCHAR
STARTCHAR 309C
ENCODING 12444
SWIDTH 1000 0
DWIDTH 20 0
BBX 4 4 1 13
BITMAP
60
90
90
60
ENDCHAR
STARTCHAR 309D
ENCODING 12445
SWIDTH 1000 0
DWIDTH 20 0
BBX 7 11 6 3
BITMAP
80
40
60
20
18
0C
06
06
0E
10
20
ENDCHAR
STARTCHAR 309E
ENCODING 12446
SWIDTH 1000 0
DWIDTH 20 0
BBX 10 12 6 3
BITMAP
0180
8640
4300
6100
2000
1800
0C00
0600
0600
0E00
1000
2000
ENDCHAR
STARTCHAR 309F
ENCODING 12447
SWIDTH 1000 0
DWIDTH 20 0
BBX 12 17 4 0
BITMAP
0600
0600
0400
07F0
0800
0800
1000
2780
38C0
6040
C040
8040
00C0
4080
4100
2300
1C00
ENDCHAR
STARTCHAR 30A0
ENCODING 12448
SWIDTH 1000 0
DWIDTH 20 0
BBX 9 3 6 6
BITMAP
FF80
0000
FF80
ENDCHAR
STARTCHAR 30A1
ENCODING 12449
SWIDTH 1000 0
DWIDTH 20 0
BBX 13 14 3 -2
BITMAP
8038
7FD8
0020
0040
0780
0300
0300
0200
0200
0600
0400
0800
1000
2000
ENDCHAR
STARTCHAR 30A2
ENCODING 12450
SWIDTH 1000 0
DWIDTH 20 0
BBX 14 16 3 -1
BITMAP
0008
80FC
7F18
0030
0040
0780
0300
0300
0300
0200
0200
0600
0400
0800
1000
2000
ENDCHAR
STARTCHAR 30A3
ENCODING 12451
SWIDTH 1000 0
DWIDTH 20 0
BBX 12 14 3 0
BITMAP
0020
0030
0060
00C0
0100
0700
1900
6100
8100
0100
0100
0100
0100
0100
ENDCHAR
STARTCHAR 30A4
ENCODING 12452
SWIDTH 1000 0
DWIDTH 20 0
BBX 13 17 2 -1
BITMAP
0010
0018
0030
0060
00C0
0180
0380
0C80
3080
C080
0080
0080
0080
0080
0080
0080
0080
ENDCHAR
STARTCHAR 30A5
ENCODING 12453
SWIDTH 1000 0
DWIDTH 20 0
BBX 12 14 3 0
BITMAP
0600
0200
8230
7FD0
2030
2020
2020
2020
0040
0040
0080
0100
0200
0C00
ENDCHAR
STARTCHAR 30A6
ENCODING 12454
SWIDTH 1000 0
DWIDTH 20 0
BBX 14 17 3 0
BITMAP
0700
0300
0300
C318
7FEC
6008
6018
6018
6010
6010
0020
0060
0040
0080
0100
0600
1800
ENDCHAR
STARTCHAR 30A7
ENCODING 12455
SWIDTH 1000 0
DWIDTH 20 0
BBX 15 10 2 1
BITMAP
4030
3FF8
0100
0100
0100
0100
0100
0100
81FE
7E00
ENDCHAR
STARTCHAR 30A8
ENCODING 12456
SWIDTH 1000 0
DWIDTH 20 0
BBX 17 11 1 2
BITMAP
200E00
1FF000
008000
008000
008000
008000
008000
008000
008000
80FF80
7F0000
ENDCHAR
STARTCHAR 30A9
ENCODING 12457
SWIDTH 1000 0
DWIDTH 20 0
BBX 14 14 3 0
BITMAP
01C0
00C0
00C0
805C
7FE0
0140
0240
0640
0440
0840
1040
6340
80C0
0040
ENDCHAR
STARTCHAR 30AA
ENCODING 12458
SWIDTH 1000 0
DWIDTH 20 0
BBX 17 16 1 1
BITMAP
003000
001000
001000
001000
401780
3FF800
005000
009000
019000
011000
021000
041000
081800
10D800
203800
C01800
ENDCHAR
STARTCHAR 30AB
ENCODING 12459
SWIDTH 1000 0
DWIDTH 20 0
BBX 15 17 2 0
BITMAP
0180
0180
0180
0180
418E
3FF2
0104
0104
0304
0204
0604
0408
0888
1868
3030
4030
8000
ENDCHAR
STARTCHAR 30AC
ENCODING 12460
SWIDTH 1000 0
DWIDTH 20 0
BBX 17 18 2 -1
BITMAP
000300
018980
018680
018200
018000
418E00
3FF200
010400
010400
030400
020400
060400
040800
088800
186800
303000
403000
800000
ENDCHAR
STARTCHAR 30AD
ENCODING 12461
SWIDTH 1000 0
DWIDTH 20 0
BBX 16 17 2 -1
BITMAP
0600
0300
0300
0118
017C
8780
7900
0080
0087
00F8
8F80
70C0
0040
0040
0060
0060
0020
ENDCHAR
STARTCHAR 30AE
ENCODING 12462
SWIDTH 1000 0
DWIDTH 20 0
BBX 17 18 2 -1
BITMAP
000200
060180
030E80
030200
011800
017C00
878000
790000
008000
008700
00F800
8F8000
70C000
004000
004000
006000
006000
002000
ENDCHAR
STARTCHAR 30AF
ENCODING 12463
SWIDTH 1000 0
DWIDTH 20 0
BBX 13 15 3 0
BITMAP
0600
0610
0FF8
0C10
1810
1010
2020
4040
8040
0080
0100
0200
0400
1800
6000
ENDCHAR
STARTCHAR 30B0
ENCODING 12464
SWIDTH 1000 0
DWIDTH 20 0
BBX 17 17 3 0
BITMAP
000300
000C80
060600
061200
0FF800
0C1000
181000
101000
202000
404000
804000
008000
010000
020000
040000
180000
600000
ENDCHAR
STARTCHAR 30B1
ENCODING 12465
SWIDTH 1000 0
DWIDTH 20 0
BBX 16 17 2 -1
BITMAP
0800
0C00
0C00
0800
18FF
1760
3060
2040
4040
8040
00C0
0080
0180
0100
0600
0800
1000
ENDCHAR
STARTCHAR 30B2
ENCODING 12466
SWIDTH 1000 0
DWIDTH 20 0
BBX 18 18 2 0
BITMAP
000180
080640
0C0300
0C0100
080000
18FF00
176000
306000
204000
404000
804000
00C000
008000
018000
010000
060000
080000
100000
ENDCHAR
STARTCHAR 30B3
ENCODING 12467
SWIDTH 1000 0
DWIDTH 20 0
BBX 13 12 3 1
BITMAP
4070
3F98
0010
0010
0010
0010
0010
0010
0010
8010
7FF8
3800
ENDCHAR
STARTCHAR 30B4
ENCODING 12468
SWIDTH 1000 0
DWIDTH 20 0
BBX 16 16 3 1
BITMAP
0002
0013
000D
0004
4070
3F98
0010
0010
0010
0010
0010
0010
0010
8010
7FF8
3800
ENDCHAR
STARTCHAR 30B5
ENCODING 12469
SWIDTH 1000 0
DWIDTH 20 0
BBX 17 17 1 -1
BITMAP
003800
0C1800
041800
041000
041000
84FF80
7F1000
041000
041000
041000
041000
003000
002000
004000
008000
030000
040000
ENDCHAR
STARTCHAR 30B6
ENCODING 12470
SWIDTH 1000 0
DWIDTH 20 0
BBX 18 18 1 0
BITMAP
000180
003EC0
0C1B40
041900
041000
041000
84FF80
7F1000
041000
041000
041000
041000
003000
002000
004000
008000
030000
040000
ENDCHAR
STARTCHAR 30B7
ENCODING 12471
SWIDTH 1000 0
DWIDTH 20 0
BBX 16 15 2 1
BITMAP
1C00
0300
0101
0001
F002
1802
0804
0008
0010
0020
0040
0180
2700
3C00
1800
ENDCHAR
STARTCHAR 30B8
ENCODING 12472
SWIDTH 1000 0
DWIDTH 20 0
BBX 16 17 2 1
BITMAP
0003
0009
1C04
0304
0101
0001
F002
1802
0804
0008
0010
0020
0040
0180
2700
3C00
1800
ENDCHAR
STARTCHAR 30B9
ENCODING 12473
SWIDTH 1000 0
DWIDTH 20 0
BBX 16 14 2 0
BITMAP
2030
1FF8
0030
0020
0060
0040
0080
01C0
0330
060C
0C06
1003
6001
8000
ENDCHAR
STARTCHAR 30BA
ENCODING 12474
SWIDTH 1000 0
DWIDTH 20 0
BBX 17 17 2 1
BITMAP
000300
000980
000680
203200
1FF800
003000
002000
006000
004000
008000
01C000
033000
060C00
0C0600
100300
600100
800000
ENDCHAR
STARTCHAR 30BB
ENCODING 12475
SWIDTH 1000 0
DWIDTH 20 0
BBX 16 15 1 1
BITMAP
0600
0200
0200
0202
027F
8786
7A04
0208
0210
0220
0200
0200
0200
0106
00FE
ENDCHAR
STARTCHAR 30BC
ENCODING 12476
SWIDTH 1000 0
DWIDTH 20 0
BBX 19 17 1 0
BITMAP
000080
000260
0601A0
020080
020000
020200
027F00
878600
7A0400
020800
021000
022000
020000
020000
020000
010600
00FE00
ENDCHAR
STARTCHAR 30BD
ENCODING 12477
SWIDTH 1000 0
DWIDTH 20 0
BBX 14 15 3 -1
BITMAP
0018
800C
400C
2008
3018
3018
1030
0030
0060
0040
0080
0100
0200
0C00
3000
ENDCHAR
STARTCHAR 30BE
ENCODING 12478
SWIDTH 1000 0
DWIDTH 20 0
BBX 17 17 3 0
BITMAP
000380
000E80
001A00
800C00
400C00
200C00
301800
301800
103000
003000
006000
004000
008000
010000
020000
0C0000
300000
ENDCHAR
STARTCHAR 30BF
ENCODING 12479
SWIDTH 1000 0
DWIDTH 20 0
BBX 13 17 3 -1
BITMAP
0400
0600
0618
0FE8
0C10
1810
1030
2C20
4360
80C0
00E0
01B0
0310
0600
0800
3000
4000
ENDCHAR
STARTCHAR 30C0
ENCODING 12480
SWIDTH 1000 0
DWIDTH 20 0
BBX 17 18 3 0
BITMAP
000380
040C80
060600
061A00
0FE800
0C1000
181000
103000
2C2000
436000
80C000
00E000
01B000
031000
060000
080000
300000
400000
ENDCHAR
STARTCHAR 30C1
ENCODING 12481
SWIDTH 1000 0
DWIDTH 20 0
BBX 16 17 2 -1
BITMAP
0010
0038
00F0
1F80
6080
0080
0086
83FF
7C80
0080
0180
0100
0100
0200
0400
0800
3000
ENDCHAR
STARTCHAR 30C2
ENCODING 12482
SWIDTH 1000 0
DWIDTH 20 0
BBX 18 18 2 0
BITMAP
000180
0016C0
003B00
00F100
1F8000
608000
008000
008600
83FF00
7C8000
008000
018000
010000
010000
020000
040000
080000
300000
ENDCHAR
STARTCHAR 30C3
ENCODING 12483
SWIDTH 1000 0
DWIDTH 20 0
BBX 13 13 3 0
BITMAP
0818
8418
4218
6210
2230
2020
0060
0040
0080
0100
0200
0C00
3000
ENDCHAR
STARTCHAR 30C4
ENCODING 12484
SWIDTH 1000 0
DWIDTH 20 0
BBX 15 16 2 -1
BITMAP
0404
0206
C206
6306
330C
310C
3018
0018
0030
0020
0060
00C0
0100
0600
0800
1000
ENDCHAR
STARTCHAR 30C5
ENCODING 12485
SWIDTH 1000 0
DWIDTH 20 0
BBX 18 18 2 0
BITMAP
0001C0
000240
040900
020700
C20600
630600
330400
310C00
300800
001800
001000
002000
006000
00C000
010000
060000
080000
100000
ENDCHAR
STARTCHAR 30C6
ENCODING 12486
SWIDTH 1000 0
DWIDTH 20 0
BBX 17 16 1 -1
BITMAP
101C00
0FE000
000000
000000
000000
800F80
7FF000
004000
004000
004000
00C000
008000
008000
010000
020000
0C0000
ENDCHAR
STARTCHAR 30C7
ENCODING 12487
SWIDTH 1000 0
DWIDTH 20 0
BBX 19 18 1 0
BITMAP
0000E0
000320
101D80
0FE080
000000
000000
000000
800F80
7FF000
004000
004000
004000
00C000
008000
008000
010000
020000
0C0000
ENDCHAR
STARTCHAR 30C8
ENCODING 12488
SWIDTH 1000 0
DWIDTH 20 0
BBX 9 17 7 -1
BITMAP
8000
4000
4000
4000
4000
4000
6000
5C00
4700
4180
4080
4000
4000
4000
4000
4000
4000
ENDCHAR
STARTCHAR 30C9
ENCODING 12489
SWIDTH 1000 0
DWIDTH 20 0
BBX 10 17 7 -1
BITMAP
8000
4100
40C0
4640
4100
4000
6000
5C00
4700
4180
4080
4000
4000
4000
4000
4000
4000
ENDCHAR
STARTCHAR 30CA
ENCODING 12490
SWIDTH 1000 0
DWIDTH 20 0
BBX 16 18 2 -1
BITMAP
0100
00C0
00C0
00C0
00C0
00C0
81FF
7E80
0080
0080
0080
0180
0100
0300
0200
0400
1800
2000
ENDCHAR
STARTCHAR 30CB
ENCODING 12491
SWIDTH 1000 0
DWIDTH 20 0
BBX 17 10 1 2
BITMAP
000400
1FFE00
000000
000000
000000
000000
000000
000000
800700
7FF980
ENDCHAR
STARTCHAR 30CC
ENCODING 12492
SWIDTH 1000 0
DWIDTH 20 0
BBX 13 15 3 0
BITMAP
0010
40F8
3F30
0020
0020
1040
0C40
0380
01C0
0330
0618
0C08
1800
2000
C000
ENDCHAR
STARTCHAR 30CD
ENCODING 12493
SWIDTH 1000 0
DWIDTH 20 0
BBX 15 17 2 0
BITMAP
0780
00C0
0040
0020
20F0
1F30
0060
00C0
01C0
02B8
0C8C
1086
6082
8080
0080
0080
0080
ENDCHAR
STARTCHAR 30CE
ENCODING 12494
SWIDTH 1000 0
DWIDTH 20 0
BBX 12 15 3 0
BITMAP
0060
0030
0030
0020
0060
0060
00C0
00C0
0180
0300
0600
0C00
1800
2000
C000
ENDCHAR
STARTCHAR 30CF
ENCODING 12495
SWIDTH 1000 0
DWIDTH 20 0
BBX 18 12 1 2
BITMAP
071000
030800
030400
060200
060300
0C0180
080180
1800C0
1000C0
2000C0
400000
800000
ENDCHAR
STARTCHAR 30D0
ENCODING 12496
SWIDTH 1000 0
DWIDTH 20 0
BBX 18 16 1 1
BITMAP
000100
000580
000680
000200
071000
030800
030400
060200
060300
0C0180
080180
1800C0
1000C0
2000C0
400000
800000
ENDCHAR
STARTCHAR 30D1
ENCODING 12497
SWIDTH 1000 0
DWIDTH 20 0
BBX 18 16 1 1
BITMAP
000300
000480
000480
000380
071000
030800
030400
060200
060300
0C0180
080180
1800C0
1000C0
2000C0
400000
800000
ENDCHAR
STARTCHAR 30D2
ENCODING 12498
SWIDTH 1000 0
DWIDTH 20 0
BBX 14 15 3 1
BITMAP
E000
2000
2030
2018
2070
20C0
2700
3800
2000
2000
2000
2000
2000
101C
0FF8
ENDCHAR
STARTCHAR 30D3
ENCODING 12499
SWIDTH 1000 0
DWIDTH 20 0
BBX 16 17 3 0
BITMAP
0004
0013
E00D
2004
2030
2018
2070
20C0
2700
3800
2000
2000
2000
2000
2000
101C
0FF8
ENDCHAR
STARTCHAR 30D4
ENCODING 12500
SWIDTH 1000 0
DWIDTH 20 0
BBX 16 17 3 0
BITMAP
0006
0009
E009
2006
2030
2018
2070
20C0
2700
3800
2000
2000
2000
2000
2000
101C
0FF8
ENDCHAR
STARTCHAR 30D5
ENCODING 12501
SWIDTH 1000 0
DWIDTH 20 0
BBX 14 14 3 -1
BITMAP
8018
7FEC
0008
0018
0018
0030
0020
0060
0040
0080
0100
0600
0800
3000
ENDCHAR
STARTCHAR 30D6
ENCODING 12502
SWIDTH 1000 0
DWIDTH 20 0
BBX 17 17 3 0
BITMAP
000380
000C80
000600
801A00
7FEC00
000800
001800
001800
003000
002000
006000
004000
008000
010000
060000
080000
300000
ENDCHAR
STARTCHAR 30D7
ENCODING 12503
SWIDTH 1000 0
DWIDTH 20 0
BBX 17 17 3 -1
BITMAP
000300
000480
000480
801B00
7FEC00
000800
001800
001800
003000
002000
006000
00C000
008000
010000
060000
080000
300000
ENDCHAR
STARTCHAR 30D8
ENCODING 12504
SWIDTH 1000 0
DWIDTH 20 0
BBX 18 10 1 3
BITMAP
010000
028000
044000
0C2000
181800
300C00
F00600
600300
0001C0
000040
ENDCHAR
STARTCHAR 30D9
ENCODING 12505
SWIDTH 1000 0
DWIDTH 20 0
BBX 18 12 1 3
BITMAP
000600
001300
010D00
028400
044000
0C2000
181800
300C00
F00600
600300
0001C0
000040
ENDCHAR
STARTCHAR 30DA
ENCODING 12506
SWIDTH 1000 0
DWIDTH 20 0
BBX 18 12 1 3
BITMAP
000600
000900
010900
028600
044000
0C2000
181800
300C00
F00600
600300
0001C0
000040
ENDCHAR
STARTCHAR 30DB
ENCODING 12507
SWIDTH 1000 0
DWIDTH 20 0
BBX 16 17 2 -1
BITMAP
0380
0080
0080
0080
0086
41FF
3E80
0080
1088
1084
1082
2083
6083
C481
C380
0180
0080
ENDCHAR
STARTCHAR 30DC
ENCODING 12508
SWIDTH 1000 0
DWIDTH 20 0
BBX 18 18 2 -1
BITMAP
000100
0388C0
008640
008100
008000
008600
41FF00
3E8000
008000
108800
108400
108200
208300
608300
C48100
C38000
018000
008000
ENDCHAR
STARTCHAR 30DD
ENCODING 12509
SWIDTH 1000 0
DWIDTH 20 0
BBX 17 17 2 0
BITMAP
038380
008480
008480
008300
008600
41FF00
3E8000
008000
108800
108400
108200
208300
608300
C48100
C38000
018000
008000
ENDCHAR
STARTCHAR 30DE
ENCODING 12510
SWIDTH 1000 0
DWIDTH 20 0
BBX 15 12 2 1
BITMAP
8004
7FFE
000C
0008
0010
1820
0440
0380
0180
00C0
00C0
0040
ENDCHAR
STARTCHAR 30DF
ENCODING 12511
SWIDTH 1000 0
DWIDTH 20 0
BBX 11 14 4 1
BITMAP
3F80
00C0
0000
0000
7E00
0380
0180
0000
0000
FC00
0700
01C0
00E0
0020
ENDCHAR
STARTCHAR 30E0
ENCODING 12512
SWIDTH 1000 0
DWIDTH 20 0
BBX 15 15 2 1
BITMAP
0300
0180
0180
0300
0300
0200
0640
0420
0810
0808
1004
107C
AF86
7002
0002
ENDCHAR
STARTCHAR 30E1
ENCODING 12513
SWIDTH 1000 0
DWIDTH 20 0
BBX 12 15 3 1
BITMAP
0070
0030
0020
0060
1060
0CC0
0380
01C0
0160
0230
0410
0800
1000
6000
8000
ENDCHAR
STARTCHAR 30E2
ENCODING 12514
SWIDTH 1000 0
DWIDTH 20 0
BBX 16 13 2 1
BITMAP
4038
3FC0
0200
0200
0200
82FF
7F00
0200
0200
0200
0200
0300
01FE
ENDCHAR
STARTCHAR 30E3
ENCODING 12515
SWIDTH 1000 0
DWIDTH 20 0
BBX 13 14 3 -1
BITMAP
1800
0C00
0400
0418
07F0
FC20
0420
0240
0200
0200
0200
0300
0100
0100
ENDCHAR
STARTCHAR 30E4
ENCODING 12516
SWIDTH 1000 0
DWIDTH 20 0
BBX 16 17 2 -1
BITMAP
1C00
0400
0400
0402
021F
03E6
FE0C
0208
0210
0120
0100
0100
0100
0180
0180
0180
0080
ENDCHAR
STARTCHAR 30E5
ENCODING 12517
SWIDTH 1000 0
DWIDTH 20 0
BBX 15 9 2 2
BITMAP
2030
1FD0
0010
0020
0020
0020
0020
8026
7FFE
ENDCHAR
STARTCHAR 30E6
ENCODING 12518
SWIDTH 1000 0
DWIDTH 20 0
BBX 18 11 1 2
BITMAP
100800
0FFC00
000800
000800
000800
000800
000800
000800
000800
C03FC0
3FC000
ENDCHAR
STARTCHAR 30E7
ENCODING 12519
SWIDTH 1000 0
DWIDTH 20 0
BBX 11 11 4 1
BITMAP
0020
7FE0
0020
0040
0040
3FC0
0040
0040
0040
8060
7F80
ENDCHAR
STARTCHAR 30E8
ENCODING 12520
SWIDTH 1000 0
DWIDTH 20 0
BBX 13 13 3 1
BITMAP
8010
7FF8
0010
0010
0010
2030
1FD0
0010
0010
0010
0010
40F8
3F00
ENDCHAR
STARTCHAR 30E9
ENCODING 12521
SWIDTH 1000 0
DWIDTH 20 0
BBX 13 16 3 -1
BITMAP
20E0
1F00
0000
0000
8018
7FF8
0018
0010
0020
0060
0040
0080
0100
0600
0800
3000
ENDCHAR
STARTCHAR 30EA
ENCODING 12522
SWIDTH 1000 0
DWIDTH 20 0
BBX 9 17 5 -1
BITMAP
0100
8080
4080
4080
4080
4080
4080
4080
4080
4080
4100
0100
0100
0200
0400
1800
2000
ENDCHAR
STARTCHAR 30EB
ENCODING 12523
SWIDTH 1000 0
DWIDTH 20 0
BBX 18 15 1 1
BITMAP
00E000
0C2000
062000
062000
062000
062040
062040
042080
0C2100
0C2300
082600
102C00
203800
407000
806000
ENDCHAR
STARTCHAR 30EC
ENCODING 12524
SWIDTH 1000 0
DWIDTH 20 0
BBX 14 15 4 0
BITMAP
C000
6000
6000
6000
6004
6008
6010
6020
6040
6080
4300
4600
5800
7000
2000
ENDCHAR
STARTCHAR 30ED
ENCODING 12525
SWIDTH 1000 0
DWIDTH 20 0
BBX 14 13 3 2
BITMAP
C038
7FCC
4008
4008
4008
4018
4018
4010
4010
4010
7FF8
6000
6000
ENDCHAR
STARTCHAR 30EE
ENCODING 12526
SWIDTH 1000 0
DWIDTH 20 0
BBX 12 13 4 -1
BITMAP
8020
7FF0
4020
4020
6060
6040
6040
0080
0180
0100
0200
0C00
1000
ENDCHAR
STARTCHAR 30EF
ENCODING 12527
SWIDTH 1000 0
DWIDTH 20 0
BBX 14 16 3 -1
BITMAP
0008
C1FC
7E08
6008
6018
6018
6010
6030
6020
0060
0040
0080
0100
0200
0C00
1000
ENDCHAR
STARTCHAR 30F0
ENCODING 12528
SWIDTH 1000 0
DWIDTH 20 0
BBX 16 17 2 -1
BITMAP
00C0
0040
0040
0040
7FFE
0840
0840
0840
0840
0840
887F
7FC0
0040
0040
0040
0040
0040
ENDCHAR
STARTCHAR 30F1
ENCODING 12529
SWIDTH 1000 0
DWIDTH 20 0
BBX 17 12 1 1
BITMAP
000400
3FFE00
000800
003000
014000
008000
008000
008000
008000
008000
808300
7FFF80
ENDCHAR
STARTCHAR 30F2
ENCODING 12530
SWIDTH 1000 0
DWIDTH 20 0
BBX 14 16 3 -1
BITMAP
0008
403C
3FC8
0008
0018
8070
7F90
0030
0020
0040
00C0
0180
0100
0600
0800
1000
ENDCHAR
STARTCHAR 30F3
ENCODING 12531
SWIDTH 1000 0
DWIDTH 20 0
BBX 15 14 3 1
BITMAP
8000
6000
3000
1802
0804
0008
0018
0030
0060
00C0
0380
0F00
7C00
7000
ENDCHAR
STARTCHAR 30F4
ENCODING 12532
SWIDTH 1000 0
DWIDTH 20 0
BBX 17 18 3 0
BITMAP
000300
070980
030680
030200
C31800
7FEC00
600800
601800
601800
601000
601000
002000
006000
004000
008000
010000
060000
180000
ENDCHAR
STARTCHAR 30F5
ENCODING 12533
SWIDTH 1000 0
DWIDTH 20 0
BBX 13 14 3 0
BITMAP
0300
0100
0100
0118
7FE8
0208
0210
0610
0410
0C10
09A0
1060
2040
C000
ENDCHAR
STARTCHAR 30F6
ENCODING 12534
SWIDTH 1000 0
DWIDTH 20 0
BBX 14 14 3 0
BITMAP
1C00
0C00
0800
18FC
1780
2080
4080
8080
0100
0100
0200
0600
0800
1000
ENDCHAR
STARTCHAR 30F7
ENCODING 12535
SWIDTH 1000 0
DWIDTH 20 0
BBX 17 18 3 0
BITMAP
000380
000C80
000600
C07A00
7F8C00
600C00
601800
601800
601800
603000
603000
006000
004000
008000
010000
020000
0C0000
100000
ENDCHAR
STARTCHAR 30F8
ENCODING 12536
SWIDTH 1000 0
DWIDTH 20 0
BBX 17 18 2 -1
BITMAP
000100
00C480
004680
004200
004000
7FFE00
084000
084000
084000
084000
084000
887F00
7FC000
004000
004000
004000
004000
004000
ENDCHAR
STARTCHAR 30F9
ENCODING 12537
SWIDTH 1000 0
DWIDTH 20 0
BBX 18 15 1 2
BITMAP
000080
000240
000180
000480
3FFE00
000800
003000
014000
008000
008000
008000
008000
008000
808300
7FFF80
ENDCHAR
STARTCHAR 30FA
ENCODING 12538
SWIDTH 1000 0
DWIDTH 20 0
BBX 17 18 3 0
BITMAP
000380
000C80
000600
403A00
3FCC00
000C00
001800
807800
7F9000
003000
002000
006000
00C000
018000
010000
060000
080000
100000
ENDCHAR
STARTCHAR 30FB
ENCODING 12539
SWIDTH 1000 0
DWIDTH 20 0
BBX 3 3 9 6
BITMAP
E0
E0
C0
ENDCHAR
STARTCHAR 30FC
ENCODING 12540
SWIDTH 1000 0
DWIDTH 20 0
BBX 16 2 2 8
BITMAP
800F
7FF0
ENDCHAR
STARTCHAR 30FD
ENCODING 12541
SWIDTH 1000 0
DWIDTH 20 0
BBX 9 10 5 3
BITMAP
8000
6000
1000
0800
0400
0200
0300
0180
0180
0080
ENDCHAR
STARTCHAR 30FE
ENCODING 12542
SWIDTH 1000 0
DWIDTH 20 0
BBX 12 12 5 3
BITMAP
0040
0030
8190
6040
1000
0800
0400
0200
0300
0180
0180
0080
ENDCHAR
STARTCHAR 30FF
ENCODING 12543
SWIDTH 1000 0
DWIDTH 20 0
BBX 13 16 3 -1
BITMAP
0010
80F8
7F10
0010
0010
0010
0010
0010
0010
0010
0010
0010
0010
0010
0010
0010
ENDCHAR
STARTCHAR 31F0
ENCODING 12784
SWIDTH 1000 0
DWIDTH 20 0
BBX 11 14 4 -1
BITMAP
0800
0C00
0C60
1FA0
1840
3040
6080
8080
0100
0200
0400
0800
3000
C000
ENDCHAR
STARTCHAR 31F1
ENCODING 12785
SWIDTH 1000 0
DWIDTH 20 0
BBX 13 12 4 1
BITMAP
3000
0C00
0408
C010
3010
1020
0040
0080
0100
0200
4C00
3000
ENDCHAR
STARTCHAR 31F2
ENCODING 12786
SWIDTH 1000 0
DWIDTH 20 0
BBX 13 12 3 -1
BITMAP
21E0
1E40
00C0
0080
0180
0100
02C0
0460
0830
3018
4008
8000
ENDCHAR
STARTCHAR 31F3
ENCODING 12787
SWIDTH 1000 0
DWIDTH 20 0
BBX 8 14 7 0
BITMAP
C0
40
40
40
40
70
4E
43
41
40
40
40
40
40
ENDCHAR
STARTCHAR 31F4
ENCODING 12788
SWIDTH 1000 0
DWIDTH 20 0
BBX 11 13 4 -1
BITMAP
0060
7FE0
00C0
00C0
2080
1D00
0300
0380
0460
0820
3000
4000
8000
ENDCHAR
STARTCHAR 31F5
ENCODING 12789
SWIDTH 1000 0
DWIDTH 20 0
BBX 15 10 2 0
BITMAP
0440
0E20
0610
0C08
0C0C
0806
1006
2006
4000
8000
ENDCHAR
STARTCHAR 31F6
ENCODING 12790
SWIDTH 1000 0
DWIDTH 20 0
BBX 11 12 5 1
BITMAP
C000
4000
40C0
41C0
4700
5800
6000
4000
4000
4000
6060
3FE0
ENDCHAR
STARTCHAR 31F7
ENCODING 12791
SWIDTH 1000 0
DWIDTH 20 0
BBX 12 12 4 -1
BITMAP
8020
7FF0
0020
0060
0040
0080
0080
0100
0200
0400
1800
2000
ENDCHAR
STARTCHAR 31F8
ENCODING 12792
SWIDTH 1000 0
DWIDTH 20 0
BBX 14 8 3 2
BITMAP
0600
0B00
1980
30C0
2060
E030
401C
0004
ENDCHAR
STARTCHAR 31F9
ENCODING 12793
SWIDTH 1000 0
DWIDTH 20 0
BBX 13 14 4 -1
BITMAP
0600
0200
0200
0238
FFF8
0200
2240
2220
2210
4218
C208
9E00
0600
0200
ENDCHAR
STARTCHAR 31FA
ENCODING 12794
SWIDTH 1000 0
DWIDTH 20 0
BBX 13 12 3 1
BITMAP
0700
0100
0200
0200
0400
04C0
0820
1020
1010
23F8
FC08
0008
ENDCHAR
STARTCHAR 31FB
ENCODING 12795
SWIDTH 1000 0
DWIDTH 20 0
BBX 11 13 4 0
BITMAP
3FC0
0000
0000
8060
7FE0
0040
0040
0080
0100
0300
0400
1800
2000
ENDCHAR
STARTCHAR 31FC
ENCODING 12796
SWIDTH 1000 0
DWIDTH 20 0
BBX 8 14 5 -1
BITMAP
03
C1
41
41
41
41
41
41
41
02
02
04
18
20
ENDCHAR
STARTCHAR 31FD
ENCODING 12797
SWIDTH 1000 0
DWIDTH 20 0
BBX 15 12 3 -1
BITMAP
0380
1180
0980
0980
0984
0986
0908
1108
1110
2160
41C0
8180
ENDCHAR
STARTCHAR 31FE
ENCODING 12798
SWIDTH 1000 0
DWIDTH 20 0
BBX 11 12 5 0
BITMAP
E000
6000
6000
6020
6020
4040
4080
4100
4200
4C00
7000
6000
ENDCHAR
STARTCHAR 31FF
ENCODING 12799
SWIDTH 1000 0
DWIDTH 20 0
BBX 12 11 4 0
BITMAP
C060
7FF0
4020
4020
4020
4020
4020
4040
4040
7FE0
6000
ENDCHAR
STARTCHAR 3231
ENCODING 12849
SWIDTH 1000 0
DWIDTH 20 0
BBX 18 18 1 -1
BITMAP
200100
261900
447080
445080
465280
85FE40
9F9040
849040
851240
8FFF40
953040
953840
A45440
645680
449380
451080
241100
200100
ENDCHAR
STARTCHAR 3232
ENCODING 12850
SWIDTH 1000 0
DWIDTH 20 0
BBX 18 18 1 -1
BITMAP
200100
210100
418080
410480
410280
9FFE40
820040
83FC40
860840
860840
8BF840
920840
A3F840
420880
420880
420880
427900
200100
ENDCHAR
STARTCHAR 3239
ENCODING 12857
SWIDTH 1000 0
DWIDTH 20 0
BBX 17 18 1 -1
BITMAP
600200
466100
445900
444D00
884480
884480
8C4E80
9BF080
A86080
A82080
C82080
882080
883480
881480
481D00
480D00
480700
400200
ENDCHAR
STARTCHAR 3251
ENCODING 12881
SWIDTH 1000 0
DWIDTH 20 0
BBX 18 18 1 -1
BITMAP
03F000
0C0C00
100600
2F0900
599980
588880
988840
808840
810840
820840
840840
840840
888880
508880
5F9D00
300200
0C0400
03F800
ENDCHAR
STARTCHAR 3252
ENCODING 12882
SWIDTH 1000 0
DWIDTH 20 0
BBX 18 18 1 -1
BITMAP
03F000
0C0C00
100600
2F1D00
59A380
58B280
98B240
808240
810440
820440
840840
841040
889280
50A280
3FBF00
100200
0C0400
03F800
ENDCHAR
STARTCHAR 3253
ENCODING 12883
SWIDTH 1000 0
DWIDTH 20 0
BBX 18 17 1 -1
BITMAP
03F000
1C0C00
200200
6F1D00
50A280
D8A280
808240
810440
811840
820440
840240
88A280
50A680
5F9D00
300200
0C0400
03F800
ENDCHAR
STARTCHAR 3254
ENCODING 12884
SWIDTH 1000 0
DWIDTH 20 0
BBX 18 17 1 -1
BITMAP
03F000
0C0E00
300300
2E0500
510C80
590C80
811440
822440
822440
844440
887E40
890480
510480
3F0D00
100200
0C0400
03F800
ENDCHAR
STARTCHAR 3255
ENCODING 12885
SWIDTH 1000 0
DWIDTH 20 0
BBX 19 17 1 -1
BITMAP
03F800
0C0E00
300300
2F1E80
50A040
D8A040
80A020
812E20
813320
820120
840120
88B140
50B240
3F9C80
100100
0C0600
03F800
ENDCHAR
STARTCHAR 3256
ENCODING 12886
SWIDTH 1000 0
DWIDTH 20 0
BBX 18 18 1 -1
BITMAP
03E000
0C1800
100600
2E1900
512500
592480
994040
814040
825C40
826640
844240
884240
894280
512480
3F3D00
100200
0C0400
03F800
ENDCHAR
STARTCHAR 3257
ENCODING 12887
SWIDTH 1000 0
DWIDTH 20 0
BBX 18 17 1 -1
BITMAP
03F000
0C0C00
300300
2E7F00
514280
D94480
810440
820840
820840
840840
881840
891880
511880
3F1100
100200
0C0400
03F800
ENDCHAR
STARTCHAR 3258
ENCODING 12888
SWIDTH 1000 0
DWIDTH 20 0
BBX 18 18 1 -1
BITMAP
03E000
0C1800
100600
2E3900
516500
594480
994440
812440
823840
822C40
844440
884240
894280
516680
3F3D00
100200
0C0400
03F800
ENDCHAR
STARTCHAR 3259
ENCODING 12889
SWIDTH 1000 0
DWIDTH 20 0
BBX 18 18 1 -1
BITMAP
03E000
0C1800
100600
2E3D00
512500
594280
994240
814240
824240
826640
843E40
880640
896480
516C80
3F3900
100200
0C0400
03F800
ENDCHAR
STARTCHAR 325A
ENCODING 12890
SWIDTH 1000 0
DWIDTH 20 0
BBX 18 18 1 -2
BITMAP
07F000
181C00
200600
5E1900
732580
F14280
814240
824240
8C4240
824240
814240
814240
B14280
732480
5E1900
300200
0C0C00
03F000
ENDCHAR
STARTCHAR 325B
ENCODING 12891
SWIDTH 1000 0
DWIDTH 20 0
BBX 18 17 1 -1
BITMAP
03F800
0C0E00
100300
2F1900
588880
D888C0
808840
810840
860840
810840
808840
588880
598880
2F1D00
100200
0C0400
03F800
ENDCHAR
STARTCHAR 325C
ENCODING 12892
SWIDTH 1000 0
DWIDTH 20 0
BBX 18 17 1 -1
BITMAP
03F800
0C0E00
100300
2E3D00
594280
5962C0
810240
810440
860440
830840
811040
592280
514280
2E7F00
100200
0C0400
03F800
ENDCHAR
STARTCHAR 325D
ENCODING 12893
SWIDTH 1000 0
DWIDTH 20 0
BBX 18 18 1 -2
BITMAP
03F000
0C0C00
100200
2F1D00
592280
592280
810240
810440
861840
810440
808240
808240
58E280
59E680
2F3D00
100200
0C0C00
03F000
ENDCHAR
STARTCHAR 325E
ENCODING 12894
SWIDTH 1000 0
DWIDTH 20 0
BBX 18 17 1 -1
BITMAP
03F000
0C0C00
100300
2E0500
590C80
590C80
811440
812440
862440
834440
817E40
590480
510480
2E0D00
101200
0C0400
03F800
ENDCHAR
STARTCHAR 325F
ENCODING 12895
SWIDTH 1000 0
DWIDTH 20 0
BBX 19 18 1 -2
BITMAP
03F800
0C0E00
100300
2F1E80
58A0C0
58A040
80A020
812E20
863220
812120
808120
808120
58B140
59A240
2F1C80
180100
0E0600
03F800
ENDCHAR
STARTCHAR 32A4
ENCODING 12964
SWIDTH 1000 0
DWIDTH 20 0
BBX 18 17 1 -1
BITMAP
03F000
0C0C00
30C200
208100
408080
808080
808840
80FC40
808040
808040
808040
408480
5FFE80
200100
100200
0C0C00
03F000
ENDCHAR
STARTCHAR 32A5
ENCODING 12965
SWIDTH 1000 0
DWIDTH 20 0
BBX 18 18 1 -1
BITMAP
03E000
0C1800
110600
20C300
408180
608480
9FFE40
908440
908440
908440
908440
9FFC40
808080
808080
408100
208200
1C0400
03F800
ENDCHAR
STARTCHAR 32A6
ENCODING 12966
SWIDTH 1000 0
DWIDTH 20 0
BBX 18 18 1 -1
BITMAP
03E000
0C1800
100600
200100
400500
7FFE80
808040
808040
80C040
80B040
808C40
808440
808080
408080
408100
308200
0C0400
03F800
ENDCHAR
STARTCHAR 32A7
ENCODING 12967
SWIDTH 1000 0
DWIDTH 20 0
BBX 18 17 1 -1
BITMAP
03F000
0C0C00
118200
210100
410680
5FFE80
820040
820840
83FC40
844040
884040
904080
604480
2FFF00
100200
0C0400
03F800
ENDCHAR
STARTCHAR 32A8
ENCODING 12968
SWIDTH 1000 0
DWIDTH 20 0
BBX 18 19 1 -2
BITMAP
03F000
0C0C00
108600
218100
410380
5FFF80
8100C0
820040
820440
87FE40
8E0440
CA0440
720440
43FC80
620480
320100
180200
0E0C00
03F000
ENDCHAR
STARTCHAR 32B1
ENCODING 12977
SWIDTH 1000 0
DWIDTH 20 0
BBX 19 18 1 -2
BITMAP
03F800
0C0E00
100300
2F0C80
5892C0
589240
80A020
812C20
863220
812220
80A220
80A220
58A240
599440
2F1C80
180100
0E0600
03F800
ENDCHAR
STARTCHAR 32B2
ENCODING 12978
SWIDTH 1000 0
DWIDTH 20 0
BBX 18 18 1 -2
BITMAP
03F000
0C0C00
100200
2E7F00
594280
594480
810440
810440
860840
830840
810840
811840
591880
5B1880
2E1100
100200
0C0C00
03F000
ENDCHAR
STARTCHAR 32B3
ENCODING 12979
SWIDTH 1000 0
DWIDTH 20 0
BBX 19 18 1 -2
BITMAP
03F800
0C0E00
100300
2F1C80
59A2C0
58A240
80A220
811C20
860C20
811620
80A120
80A120
58A140
59B340
2F1E80
180100
0E0600
03F800
ENDCHAR
STARTCHAR 32B4
ENCODING 12980
SWIDTH 1000 0
DWIDTH 20 0
BBX 18 18 1 -2
BITMAP
03F800
0C0E00
100300
2F1F00
58A280
58A180
80A140
812140
863340
811F40
808340
808340
58B280
59A680
2F1D00
100200
0C0400
03F800
ENDCHAR
STARTCHAR 32B5
ENCODING 12981
SWIDTH 1000 0
DWIDTH 20 0
BBX 18 17 1 -1
BITMAP
03F000
0C0C00
100200
223D00
462480
464280
8A4240
924240
924240
A24240
BF4240
824280
422480
463D00
310200
0C0400
03F800
ENDCHAR
STARTCHAR 32B6
ENCODING 12982
SWIDTH 1000 0
DWIDTH 20 0
BBX 18 17 1 -1
BITMAP
03F000
0C0C00
300200
221900
460880
C60880
8A0840
920840
920840
A20840
BF8840
820880
820880
471D00
300200
0C0400
03F800
ENDCHAR
STARTCHAR 32B7
ENCODING 12983
SWIDTH 1000 0
DWIDTH 20 0
BBX 18 17 1 -1
BITMAP
03F000
0C0C00
100200
223D00
464280
466280
8A0240
920440
920440
A20840
BF1040
822280
424280
467F00
310200
0C0400
03F800
ENDCHAR
STARTCHAR 32B8
ENCODING 12984
SWIDTH 1000 0
DWIDTH 20 0
BBX 18 17 1 -1
BITMAP
03F000
0C0C00
100200
223D00
466680
466280
8A0240
920440
921840
A20440
BF0240
826280
424680
263D00
110200
0C0400
03F800
ENDCHAR
STARTCHAR 32B9
ENCODING 12985
SWIDTH 1000 0
DWIDTH 20 0
BBX 18 17 1 -1
BITMAP
03F000
0C0C00
100300
220500
460C80
460C80
8A1440
922440
922440
A24440
BF7E40
820480
420480
260D00
110200
0C0400
03F800
ENDCHAR
STARTCHAR 32BA
ENCODING 12986
SWIDTH 1000 0
DWIDTH 20 0
BBX 18 17 1 -1
BITMAP
03F000
0C0C00
100200
223D00
462080
462080
8A4040
925C40
922640
A20240
BF0240
826280
426480
263D00
110200
0C0400
03F800
ENDCHAR
STARTCHAR 32BB
ENCODING 12987
SWIDTH 1000 0
DWIDTH 20 0
BBX 18 17 1 -1
BITMAP
03F000
0C0C00
100200
221D00
462480
462480
8A6040
925C40
926640
A24240
BF4240
824280
422680
461D00
310200
0C0400
03F800
ENDCHAR
STARTCHAR 32BC
ENCODING 12988
SWIDTH 1000 0
DWIDTH 20 0
BBX 18 17 1 -1
BITMAP
03F000
0C0C00
300300
227F00
464280
C64480
8A0440
920840
920840
A20840
BF1840
821880
821880
461100
310200
0C0400
03F800
ENDCHAR
STARTCHAR 32BD
ENCODING 12989
SWIDTH 1000 0
DWIDTH 20 0
BBX 18 17 1 -1
BITMAP
03F000
0C0C00
100200
221D00
462280
462280
8A2240
921C40
921840
A26440
BF4240
824280
426680
463D00
310200
0C0400
03F800
ENDCHAR
STARTCHAR 32BE
ENCODING 12990
SWIDTH 1000 0
DWIDTH 20 0
BBX 18 17 1 -1
BITMAP
03F000
0C0C00
100200
223D00
464480
464280
8A4240
924240
926640
A23E40
BF0640
826480
426C80
463900
310200
0C0400
03F800
ENDCHAR
STARTCHAR 32BF
ENCODING 12991
SWIDTH 1000 0
DWIDTH 20 0
BBX 18 18 1 -2
BITMAP
03F000
0C0C00
100200
3F1D00
501480
502280
902240
972240
992240
80A240
80A240
98A240
58A280
511480
2E1D00
100200
0C0C00
03F000
ENDCHAR
STARTCHAR 32D0
ENCODING 13008
SWIDTH 1000 0
DWIDTH 20 0
BBX 18 18 1 -1
BITMAP
03F000
040800
180600
200100
500780
4FFE80
800840
801040
80E040
804040
804040
804040
808080
408080
210100
120200
0C0400
03F800
ENDCHAR
STARTCHAR 32D1
ENCODING 13009
SWIDTH 1000 0
DWIDTH 20 0
BBX 18 18 1 -1
BITMAP
03F000
040800
180600
201100
401980
403080
806040
80C040
83C040
864040
984040
A04040
804080
404080
204100
104200
0C0400
03F800
ENDCHAR
STARTCHAR 32D2
ENCODING 13010
SWIDTH 1000 0
DWIDTH 20 0
BBX 18 18 1 -1
BITMAP
03F000
040800
180600
20C100
404180
504480
8FFE40
840440
840440
840C40
840840
800840
801080
403080
206100
108200
0F0400
03F800
ENDCHAR
STARTCHAR 32D3
ENCODING 13011
SWIDTH 1000 0
DWIDTH 20 0
BBX 18 18 1 -1
BITMAP
03E000
0C1800
100400
200300
400100
501C80
8FE040
808040
808040
808040
808040
808040
C08E80
BFFE80
400100
200200
180400
07F800
ENDCHAR
STARTCHAR 32D4
ENCODING 13012
SWIDTH 1000 0
DWIDTH 20 0
BBX 18 18 1 -1
BITMAP
03F000
040800
186600
202100
402180
402780
9FFF40
806040
80A040
80A040
812040
821040
841080
48D080
303100
101200
0C0400
03F800
ENDCHAR
STARTCHAR 32D5
ENCODING 13013
SWIDTH 1000 0
DWIDTH 20 0
BBX 18 18 1 -1
BITMAP
03F000
040800
188600
204100
404180
404680
887E40
87C640
808440
808440
808440
810440
834880
422880
241900
181200
0C0400
03F800
ENDCHAR
STARTCHAR 32D6
ENCODING 13014
SWIDTH 1000 0
DWIDTH 20 0
BBX 18 18 1 -1
BITMAP
03F000
040800
180600
238100
408180
408C80
80FC40
9F8040
804040
804740
80F840
9F4040
804080
402080
202100
102200
0C0400
03F800
ENDCHAR
STARTCHAR 32D7
ENCODING 13015
SWIDTH 1000 0
DWIDTH 20 0
BBX 18 18 1 -1
BITMAP
03F000
040800
180600
20C100
404780
40FE80
810440
810C40
820840
841840
981040
802040
804080
408080
230100
1C0200
0C0400
03F800
ENDCHAR
STARTCHAR 32D8
ENCODING 13016
SWIDTH 1000 0
DWIDTH 20 0
BBX 18 18 1 -1
BITMAP
03F000
040800
180600
230100
410180
420080
83FF40
843040
842040
882040
902040
806040
804080
40C080
218100
120200
0C0400
03F800
ENDCHAR
STARTCHAR 32D9
ENCODING 13017
SWIDTH 1000 0
DWIDTH 20 0
BBX 18 18 1 -1
BITMAP
03F000
040800
180600
200100
400180
480C80
87FC40
800C40
800840
800840
800840
800840
800880
4FFC80
200100
100200
0C0400
03F800
ENDCHAR
STARTCHAR 32DA
ENCODING 13018
SWIDTH 1000 0
DWIDTH 20 0
BBX 18 18 1 -1
BITMAP
03E000
0C1800
100600
203100
461100
421080
821040
A2FF40
9F1040
821040
821040
821040
802080
802080
404100
218200
1E0400
03F800
ENDCHAR
STARTCHAR 32DB
ENCODING 13019
SWIDTH 1000 0
DWIDTH 20 0
BBX 18 18 1 -1
BITMAP
03F000
040800
180600
200100
430180
40C080
804140
9C0240
860240
820440
800840
801040
802080
404080
298100
160200
0C0400
03F800
ENDCHAR
STARTCHAR 32DC
ENCODING 13020
SWIDTH 1000 0
DWIDTH 20 0
BBX 18 18 1 -1
BITMAP
03F000
040800
180600
200100
441980
43F880
801040
803040
802040
804040
80F040
818C40
820680
440280
380100
100200
0C0400
03F800
ENDCHAR
STARTCHAR 32DD
ENCODING 13021
SWIDTH 1000 0
DWIDTH 20 0
BBX 18 18 1 -1
BITMAP
03F000
0C0800
100600
260100
420180
420080
820640
83FE40
BE0840
821040
822040
820040
820080
430080
41FD00
300200
0C0400
03F800
ENDCHAR
STARTCHAR 32DE
ENCODING 13022
SWIDTH 1000 0
DWIDTH 20 0
BBX 18 18 1 -1
BITMAP
03F000
040800
180600
200100
400F80
480680
840640
860C40
820C40
800840
801840
803040
802080
404080
218100
120200
0C0400
03F800
ENDCHAR
STARTCHAR 32DF
ENCODING 13023
SWIDTH 1000 0
DWIDTH 20 0
BBX 18 18 1 -1
BITMAP
03F000
040800
180600
20C100
404D80
40FC80
810840
810840
830840
84D040
983040
803040
804880
408080
210100
160200
0C0400
03F800
ENDCHAR
STARTCHAR 32E0
ENCODING 13024
SWIDTH 1000 0
DWIDTH 20 0
BBX 18 18 1 -1
BITMAP
03F000
040800
180600
201900
403980
41C080
8E4040
804040
804F40
9FF040
804040
804040
808080
408080
210100
160200
0C0400
03F800
ENDCHAR
STARTCHAR 32E1
ENCODING 13025
SWIDTH 1000 0
DWIDTH 20 0
BBX 18 18 1 -1
BITMAP
03F000
040800
180600
200100
410580
508680
88C640
8CC440
84CC40
840840
801840
801040
803080
406080
208100
110200
0E0400
03F800
ENDCHAR
STARTCHAR 32E2
ENCODING 13026
SWIDTH 1000 0
DWIDTH 20 0
BBX 18 18 1 -1
BITMAP
03F000
040800
180600
200100
47F980
400080
800040
800340
9FFF40
804040
804040
804040
804080
408080
218100
120200
0C0400
03F800
ENDCHAR
STARTCHAR 32E3
ENCODING 13027
SWIDTH 1000 0
DWIDTH 20 0
BBX 18 18 1 -1
BITMAP
03F000
040800
180600
230100
410180
410080
810040
818040
816040
811840
810C40
810440
810080
410080
210100
110200
0C0400
03F800
ENDCHAR
STARTCHAR 32E5
ENCODING 13029
SWIDTH 1000 0
DWIDTH 20 0
BBX 18 18 1 -1
BITMAP
03F000
040800
180600
200100
400180
481C80
87E440
800040
800040
800040
800040
A00F40
9FF080
400080
200100
100200
0C0400
03F800
ENDCHAR
STARTCHAR 32E9
ENCODING 13033
SWIDTH 1000 0
DWIDTH 20 0
BBX 18 18 1 -1
BITMAP
03F000
040800
180600
200100
400180
433080
830840
820440
860640
840240
8C0340
880340
900180
600080
200100
100200
0C0400
03F800
ENDCHAR
STARTCHAR 32EC
ENCODING 13036
SWIDTH 1000 0
DWIDTH 20 0
BBX 18 18 1 -1
BITMAP
03F000
040800
180600
200100
400180
418080
82C040
846040
8C3040
981840
B00C40
800740
800180
400080
200100
100200
0C0400
03F800
ENDCHAR
STARTCHAR 32ED
ENCODING 13037
SWIDTH 1000 0
DWIDTH 20 0
BBX 18 18 1 -1
BITMAP
03F000
040C00
190600
20C100
604180
404080
907F40
8FC040
805040
844840
844440
8C4640
984280
534280
20C100
104200
0C0400
03F800
ENDCHAR
STARTCHAR 32FA
ENCODING 13050
SWIDTH 1000 0
DWIDTH 20 0
BBX 18 18 1 -1
BITMAP
03F000
040800
180600
200100
400180
4C7C80
878440
840440
840440
840C40
840840
840840
840880
47FC80
240100
100200
0C0400
03F800
ENDCHAR
STARTCHAR 3303
ENCODING 13059
SWIDTH 1000 0
DWIDTH 20 0
BBX 18 17 1 -2
BITMAP
7F8000
010000
120000
0C80C0
087FC0
080000
080000
100000
200000
0C0000
340000
144000
144000
148000
250000
460000
840000
ENDCHAR
STARTCHAR 330D
ENCODING 13069
SWIDTH 1000 0
DWIDTH 20 0
BBX 19 19 0 -2
BITMAP
0C0000
042000
459FC0
3A9040
089040
089040
111040
170FC0
230800
C00000
330000
110000
110000
114060
113F80
110000
020000
040000
180000
ENDCHAR
STARTCHAR 3314
ENCODING 13076
SWIDTH 1000 0
DWIDTH 20 0
BBX 18 17 1 0
BITMAP
180000
080000
0F8000
780000
08C000
070000
FC0000
040000
040000
0240C0
003FC0
002080
002080
002080
002080
002380
003C00
ENDCHAR
STARTCHAR 3318
ENCODING 13080
SWIDTH 1000 0
DWIDTH 20 0
BBX 18 18 1 0
BITMAP
00C000
19DF00
130000
1D00C0
223FC0
420080
840100
080300
180600
200800
481000
080000
100000
140000
120000
210000
C68000
788000
ENDCHAR
STARTCHAR 3322
ENCODING 13090
SWIDTH 1000 0
DWIDTH 20 0
BBX 19 19 1 -2
BITMAP
200000
103000
118C20
9E8440
710080
120080
100100
101600
0F8800
010000
018000
3E0000
040000
7FC000
040000
040000
080000
100000
200000
ENDCHAR
STARTCHAR 3323
ENCODING 13091
SWIDTH 1000 0
DWIDTH 20 0
BBX 19 19 1 -2
BITMAP
200000
103000
118C40
9E8460
710080
120080
100100
102600
0F9800
100000
080000
100000
080000
160000
090000
090000
080000
180000
180000
ENDCHAR
STARTCHAR 3326
ENCODING 13094
SWIDTH 1000 0
DWIDTH 20 0
BBX 16 17 3 0
BITMAP
C800
4C00
4800
4000
7000
4C00
4400
4000
4030
40D0
0050
0051
0051
0092
0094
0118
0610
ENDCHAR
STARTCHAR 3327
ENCODING 13095
SWIDTH 1000 0
DWIDTH 20 0
BBX 17 17 2 0
BITMAP
C00000
400000
400000
600000
580000
460000
420000
400000
408000
406000
002180
000100
000200
000400
000800
009000
006000
ENDCHAR
STARTCHAR 332B
ENCODING 13099
SWIDTH 1000 0
DWIDTH 20 0
BBX 19 19 0 -2
BITMAP
00E000
00A000
094000
088000
10DFE0
104000
206000
402000
800000
000200
30C100
116500
1F2500
7209C0
140920
101120
103100
0F6100
000100
ENDCHAR
STARTCHAR 3336
ENCODING 13110
SWIDTH 1000 0
DWIDTH 20 0
BBX 19 19 0 -2
BITMAP
000600
0802C0
140540
220880
211080
40E100
004200
000400
000800
101000
120300
1E0500
240500
55F520
880540
0C0940
140980
201100
400000
ENDCHAR
STARTCHAR 333B
ENCODING 13115
SWIDTH 1000 0
DWIDTH 20 0
BBX 19 17 0 -1
BITMAP
018000
0D8000
0A0000
113FE0
A08000
606000
002000
000000
016000
188000
044000
704000
108000
010000
020000
040000
180000
ENDCHAR
STARTCHAR 3349
ENCODING 13129
SWIDTH 1000 0
DWIDTH 20 0
BBX 15 18 2 -2
BITMAP
7800
0400
0000
F000
0800
0000
F000
0C46
0422
0022
0022
0022
0062
0002
0004
0008
0010
0020
ENDCHAR
STARTCHAR 334A
ENCODING 13130
SWIDTH 1000 0
DWIDTH 20 0
BBX 19 18 0 -2
BITMAP
000180
1E1880
000880
3C0880
020880
000880
3C0180
030100
010200
000400
070300
420500
340500
131520
23E540
210940
410980
801100
ENDCHAR
STARTCHAR 334D
ENCODING 13133
SWIDTH 1000 0
DWIDTH 20 0
BBX 18 19 1 -2
BITMAP
020000
020000
020000
340000
0C80C0
0E7F00
120000
200000
C00000
200000
100C00
103400
101440
1E1440
131480
102500
104600
108400
100000
ENDCHAR
STARTCHAR 3351
ENCODING 13137
SWIDTH 1000 0
DWIDTH 20 0
BBX 17 19 2 -2
BITMAP
0C0000
C40000
442300
44D100
445200
440200
0C0400
080800
103000
200000
401800
406800
602800
582880
442900
444A00
408C00
410800
400000
ENDCHAR
STARTCHAR 3357
ENCODING 13143
SWIDTH 1000 0
DWIDTH 20 0
BBX 17 18 1 -1
BITMAP
DF0000
615180
422880
422900
420100
040200
080400
101800
000000
300000
100000
100000
1C0000
130000
110000
100000
100000
100000
ENDCHAR
STARTCHAR 337B
ENCODING 13179
SWIDTH 1000 0
DWIDTH 20 0
BBX 19 19 0 -2
BITMAP
000400
018380
7F8240
080240
49BFE0
492200
292100
2A2960
2A3D40
2C2540
08A540
FFA580
082580
0824A0
085DA0
084AE0
084260
088420
000800
ENDCHAR
STARTCHAR 337C
ENCODING 13180
SWIDTH 1000 0
DWIDTH 20 0
BBX 18 18 1 -1
BITMAP
010800
3F8C00
E53440
A5D3C0
A51240
A51A40
A97E40
A91240
F71240
B03A40
AFB640
A95640
A95240
A99240
E99240
A913C0
0F1240
091000
ENDCHAR
STARTCHAR 337D
ENCODING 13181
SWIDTH 1000 0
DWIDTH 20 0
BBX 18 18 1 -1
BITMAP
0C0000
080080
087FC0
080400
090400
FF8400
082400
083400
082480
0C2780
1C2400
142400
122400
122400
232400
41A480
41FFC0
800000
ENDCHAR
STARTCHAR 337E
ENCODING 13182
SWIDTH 1000 0
DWIDTH 20 0
BBX 18 18 1 -2
BITMAP
110200
1FA300
F91200
991200
990B00
994D00
9F6C80
F935C0
991E40
991840
993080
9F2780
F96480
992480
192480
112480
112780
2F2480
ENDCHAR
STARTCHAR 338E
ENCODING 13198
SWIDTH 1000 0
DWIDTH 20 0
BBX 19 13 1 -2
BITMAP
530EE0
EC9960
489080
489080
489180
488F00
489000
489000
488F80
CDF0C0
302040
0030C0
001F80
ENDCHAR
STARTCHAR 338F
ENCODING 13199
SWIDTH 1000 0
DWIDTH 20 0
BBX 18 17 1 -2
BITMAP
400000
C00000
400000
400000
400000
4F3FC0
446300
484100
504100
682300
485E00
444000
423E00
E74180
084080
006180
003F00
ENDCHAR
STARTCHAR 339C
ENCODING 13212
SWIDTH 1000 0
DWIDTH 20 0
BBX 18 10 1 1
BITMAP
572B80
E97480
492480
492480
492480
492480
492480
492480
492480
FF7FC0
ENDCHAR
STARTCHAR 339D
ENCODING 13213
SWIDTH 1000 0
DWIDTH 20 0
BBX 18 10 1 1
BITMAP
3C5B80
42E480
C64480
804480
804480
804480
804480
C24480
424480
3CECC0
ENDCHAR
STARTCHAR 339E
ENCODING 13214
SWIDTH 1000 0
DWIDTH 20 0
BBX 18 14 1 1
BITMAP
400000
C00000
400000
400000
400000
4EFF80
484480
504480
504480
684480
484480
4C4480
444480
E6ECC0
ENDCHAR
STARTCHAR 33A1
ENCODING 13217
SWIDTH 1000 0
DWIDTH 20 0
BBX 17 15 2 2
BITMAP
000F80
000480
000100
000680
000780
000000
EF3800
31CC00
208400
208400
208400
208400
208400
208400
71CE00
ENDCHAR
STARTCHAR 33C4
ENCODING 13252
SWIDTH 1000 0
DWIDTH 20 0
BBX 16 10 2 1
BITMAP
3C1C
4662
C646
8080
8080
8080
8080
C2C3
4242
3C3C
ENDCHAR
STARTCHAR 33CB
ENCODING 13259
SWIDTH 1000 0
DWIDTH 20 0
BBX 17 14 2 1
BITMAP
F9FE00
204100
204080
204080
204080
204100
3FFE00
204000
204000
204000
204000
204000
204000
70F000
ENDCHAR
STARTCHAR 33CD
ENCODING 13261
SWIDTH 1000 0
DWIDTH 20 0
BBX 18 14 1 1
BITMAP
EE7700
482400
482400
502800
502800
502800
703800
502800
482400
482400
482400
442200
45A2C0
EFF7C0
ENDCHAR
STARTCHAR 3402
ENCODING 13314
SWIDTH 1000 0
DWIDTH 20 0
BBX 18 17 1 -1
BITMAP
060000
040200
040F00
0FF000
740400
040400
040400
07FE00
000000
180C00
108840
17CB80
F87C00
110880
110880
118880
1F8FC0
ENDCHAR
STARTCHAR 3406
ENCODING 13318
SWIDTH 1000 0
DWIDTH 20 0
BBX 13 19 3 -2
BITMAP
0020
01F0
1E00
1010
1FF8
1010
1010
1FF0
1010
1FF0
1000
1010
1FF8
1010
2010
2010
2030
43E0
8000
ENDCHAR
STARTCHAR 342C
ENCODING 13356
SWIDTH 1000 0
DWIDTH 20 0
BBX 18 18 2 -2
BITMAP
018000
010000
010100
FFFF80
030000
023000
040C00
043E00
7FC300
400100
180C00
110800
110800
110880
110880
210880
6108C0
800F80
ENDCHAR
STARTCHAR 342E
ENCODING 13358
SWIDTH 1000 0
DWIDTH 20 0
BBX 19 19 0 -2
BITMAP
006000
0040C0
7FFFC0
011000
0E8F80
710CC0
3FFF80
010900
3FFF80
010800
010840
7FFFE0
00A100
071180
3A1A00
C20E00
03F380
1C00E0
100000
ENDCHAR
STARTCHAR 3468
ENCODING 13416
SWIDTH 1000 0
DWIDTH 20 0
BBX 19 18 0 -1
BITMAP
0D0080
08FFC0
088080
188080
108080
10FF80
386000
30C080
50FFC0
518800
920840
13FFE0
100C00
101400
102300
1041C0
138060
040000
ENDCHAR
STARTCHAR 346A
ENCODING 13418
SWIDTH 1000 0
DWIDTH 20 0
BBX 18 18 1 -2
BITMAP
101000
0C1800
081080
0FFFC0
188600
104400
102800
381800
306700
5383C0
548200
90FE00
108200
10FE00
108200
110200
110200
160200
ENDCHAR
STARTCHAR 3492
ENCODING 13458
SWIDTH 1000 0
DWIDTH 20 0
BBX 18 18 1 -1
BITMAP
102C00
0E2980
092900
08AA00
18AA80
17FFC0
104600
382880
33FF80
501100
91FF80
901080
17FFC0
103800
105400
109300
1310C0
1C1000
ENDCHAR
STARTCHAR 34B5
ENCODING 13493
SWIDTH 1000 0
DWIDTH 20 0
BBX 17 18 1 -1
BITMAP
00C000
018000
110200
1FFF00
100200
100200
1FFE00
100200
100200
100200
1FFE00
100200
023000
070C00
0C0300
100180
600080
800000
ENDCHAR
STARTCHAR 34BC
ENCODING 13500
SWIDTH 1000 0
DWIDTH 20 0
BBX 18 17 1 0
BITMAP
061800
041180
FFFFC0
041000
07F000
408100
3FFF80
208100
249100
2CB900
249100
249900
2A9900
2BA700
30C100
208100
209F00
ENDCHAR
STARTCHAR 34C1
ENCODING 13505
SWIDTH 1000 0
DWIDTH 20 0
BBX 18 10 1 3
BITMAP
400080
3FFFC0
202180
632100
C22300
442080
0C2080
182080
203F80
400000
ENDCHAR
STARTCHAR 34C7
ENCODING 13511
SWIDTH 1000 0
DWIDTH 20 0
BBX 18 18 1 -1
BITMAP
000700
603800
35D000
161000
081000
081000
0810C0
13FFC0
101000
101800
202800
E02400
202400
204200
308300
310180
3200C0
040000
ENDCHAR
STARTCHAR 34DB
ENCODING 13531
SWIDTH 1000 0
DWIDTH 20 0
BBX 18 18 1 -2
BITMAP
000080
03FFC0
021080
FF1080
101080
101080
101080
101080
101080
101080
102080
112080
1E2080
F04080
C08180
008180
011F00
060200
ENDCHAR
STARTCHAR 351F
ENCODING 13599
SWIDTH 1000 0
DWIDTH 20 0
BBX 18 19 1 -2
BITMAP
0C0C00
280800
6A0900
49FF00
7F0900
480900
8A7900
7F1940
081540
0924C0
FEC0C0
81C100
7FFF80
010100
010100
020100
044300
383E00
C00000
ENDCHAR
STARTCHAR 355D
ENCODING 13661
SWIDTH 1000 0
DWIDTH 20 0
BBX 18 19 1 -2
BITMAP
010000
00C000
008080
FFFFC0
008000
208200
1FFF00
100200
100200
1FFE00
000400
3FFE00
040C00
021800
016000
01E000
073E00
3803C0
C00000
ENDCHAR
STARTCHAR 355E
ENCODING 13662
SWIDTH 1000 0
DWIDTH 20 0
BBX 20 17 0 -1
BITMAP
404000
3FE040
205FE0
204840
3FC440
204440
210440
214480
2FF280
292280
292300
492100
492380
492280
49C440
811830
012020
ENDCHAR
STARTCHAR 3563
ENCODING 13667
SWIDTH 1000 0
DWIDTH 20 0
BBX 20 17 0 0
BITMAP
000400
00FE00
020400
070400
040200
0C0100
1800C0
300070
700100
8FFF80
080100
080100
080100
080100
080100
0FFF00
080100
ENDCHAR
STARTCHAR 356E
ENCODING 13678
SWIDTH 1000 0
DWIDTH 20 0
BBX 17 18 2 -2
BITMAP
008000
08CC00
FC8200
888300
890100
890980
8A8680
8C8C00
884800
884800
883800
F83000
883000
804800
008600
010380
020180
040000
ENDCHAR
STARTCHAR 35A6
ENCODING 13734
SWIDTH 1000 0
DWIDTH 20 0
BBX 17 18 2 -1
BITMAP
002000
003000
082100
FFFF80
882000
8C2200
8BFF00
8A2200
8BFE00
8A2200
8A2200
8BFE00
F87000
88E800
80A400
012300
062180
082000
ENDCHAR
STARTCHAR 35A8
ENCODING 13736
SWIDTH 1000 0
DWIDTH 20 0
BBX 17 19 2 -2
BITMAP
008000
00C800
08FC00
FC8C00
898800
89F800
890900
8FFF80
882000
8A3300
89B200
88AC00
F86800
88A400
832600
062380
002100
01E000
008000
ENDCHAR
STARTCHAR 35C5
ENCODING 13765
SWIDTH 1000 0
DWIDTH 20 0
BBX 17 17 2 -1
BITMAP
019100
010F80
F90900
912900
9FF900
910F00
910900
910900
994900
97E900
944F00
F44900
945100
87D100
045100
042100
004F00
ENDCHAR
STARTCHAR 35DA
ENCODING 13786
SWIDTH 1000 0
DWIDTH 20 0
BBX 18 17 2 0
BITMAP
000180
07FF80
F84800
904900
93FF80
924900
924900
924900
93FF00
902000
902080
FFFF80
907000
80A800
012600
0621C0
182000
ENDCHAR
STARTCHAR 35F4
ENCODING 13812
SWIDTH 1000 0
DWIDTH 20 0
BBX 17 17 2 -1
BITMAP
045100
03EF80
FA4900
93CF00
924900
924900
93CF00
920900
92FD00
928900
928900
F2F900
928900
82F900
028900
020100
020700
ENDCHAR
STARTCHAR 3605
ENCODING 13829
SWIDTH 1000 0
DWIDTH 20 0
BBX 18 18 2 -1
BITMAP
026000
066080
245F80
F49800
A88800
B39000
A3F080
A54FC0
A45100
AFF900
AC4100
B55900
E55100
A55100
856100
047900
05C100
050F00
ENDCHAR
STARTCHAR 364A
ENCODING 13898
SWIDTH 1000 0
DWIDTH 20 0
BBX 18 18 1 -2
BITMAP
190100
10FF80
108200
10FF00
148000
FE8200
10FF00
108000
108080
17FFC0
109000
109180
128A00
1C8C00
E08400
809A00
01E180
0200C0
ENDCHAR
STARTCHAR 3691
ENCODING 13969
SWIDTH 1000 0
DWIDTH 20 0
BBX 18 19 1 -3
BITMAP
000200
1FFF00
000200
000240
FFFFC0
000200
000200
1FFE00
000200
00C000
0080C0
FFFFC0
00C000
012000
013000
020C00
0C0780
7000C0
800000
ENDCHAR
STARTCHAR 3696
ENCODING 13974
SWIDTH 1000 0
DWIDTH 20 0
BBX 18 19 1 -2
BITMAP
010000
00C000
210200
1FFF00
100200
100200
1FFE00
100200
100200
1FFE00
10C000
008080
FFFFC0
00C000
012000
031000
060E00
1803C0
E00000
ENDCHAR
STARTCHAR 3699
ENCODING 13977
SWIDTH 1000 0
DWIDTH 20 0
BBX 18 20 1 -3
BITMAP
0C0000
082080
089FC0
7F9080
091080
091080
111080
111F80
271080
C0C000
008000
008080
7FFFC0
00C000
01A000
013000
021C00
0C0780
3001C0
400000
ENDCHAR
STARTCHAR 36CF
ENCODING 14031
SWIDTH 1000 0
DWIDTH 20 0
BBX 19 17 0 -1
BITMAP
180E00
100980
100880
140840
FFFFE0
320800
228880
244CC0
246D80
242A00
640A00
543900
08C980
0F88C0
130860
300800
407800
ENDCHAR
STARTCHAR 3761
ENCODING 14177
SWIDTH 1000 0
DWIDTH 20 0
BBX 16 19 2 -2
BITMAP
0200
0180
4102
7FFF
4002
8104
FF82
23FF
2242
3E44
2244
2224
3E28
2218
2218
3E3C
C246
0281
0100
ENDCHAR
STARTCHAR 3762
ENCODING 14178
SWIDTH 1000 0
DWIDTH 20 0
BBX 17 17 2 0
BITMAP
018000
410100
7FFF80
C00B00
87F400
390400
3FFC00
210400
210400
3FFC00
810200
7FFF00
412200
411200
5FEA00
500200
403E00
ENDCHAR
STARTCHAR 376B
ENCODING 14187
SWIDTH 1000 0
DWIDTH 20 0
BBX 18 17 1 0
BITMAP
00C000
408080
7FFFC0
400180
C86200
FCFE00
498400
4A7800
546E00
4985C0
46FE00
459A00
45FF80
7D1200
5AFF00
401100
47FF80
ENDCHAR
STARTCHAR 376C
ENCODING 14188
SWIDTH 1000 0
DWIDTH 20 0
BBX 19 18 1 -1
BITMAP
0C0400
080600
888400
7FC400
888480
8D3FC0
0F8400
F90400
7F0480
0804C0
FFFFC0
080400
410A00
7F8A00
410900
4110C0
7F20E0
414040
ENDCHAR
STARTCHAR 3775
ENCODING 14197
SWIDTH 1000 0
DWIDTH 20 0
BBX 18 17 1 -2
BITMAP
200200
1FFF00
100200
1FFE00
100200
1FFE00
100200
000180
7FFF80
000800
000880
FFFFC0
100800
0E0800
030800
000800
00F800
ENDCHAR
STARTCHAR 378D
ENCODING 14221
SWIDTH 1000 0
DWIDTH 20 0
BBX 19 19 0 -3
BITMAP
200080
1FFFC0
100080
100080
100080
1FFF80
106000
104000
104400
17FE00
104400
104400
274400
20C440
20E440
411440
420460
8C07E0
100000
ENDCHAR
STARTCHAR 37C1
ENCODING 14273
SWIDTH 1000 0
DWIDTH 20 0
BBX 17 17 2 0
BITMAP
320180
21FF80
210000
ED0100
A97F00
A90800
A90800
A90800
A90900
A9FF80
A90800
A90800
FA0800
8A0800
8A0800
840800
080800
ENDCHAR
STARTCHAR 37E2
ENCODING 14306
SWIDTH 1000 0
DWIDTH 20 0
BBX 18 17 1 -1
BITMAP
30C180
208100
208100
3FFF00
008100
7FFF80
010000
02FC00
7C06C0
FFFFC0
000400
1FC400
108400
108400
1F8400
108400
003C00
ENDCHAR
STARTCHAR 37E8
ENCODING 14312
SWIDTH 1000 0
DWIDTH 20 0
BBX 17 18 2 -2
BITMAP
001000
319100
211100
211100
ED1100
A9FF00
A90000
A80080
ABFF80
A82000
A9FF80
A94900
A94900
F94900
894900
894900
814900
014F00
ENDCHAR
STARTCHAR 37F4
ENCODING 14324
SWIDTH 1000 0
DWIDTH 20 0
BBX 18 19 2 -2
BITMAP
001000
302000
222100
21FF80
ED1100
A91100
A9FF00
A91100
A91100
A91100
A9FF00
A85200
A85600
F85580
885F80
889980
819080
021FC0
040000
ENDCHAR
STARTCHAR 37FD
ENCODING 14333
SWIDTH 1000 0
DWIDTH 20 0
BBX 17 17 2 -1
BITMAP
300180
23FF80
204800
AA4900
EDFF80
A94900
A94900
A9FF00
A80200
A9FF00
A80100
ABFF80
F91400
899300
891100
821180
04F080
ENDCHAR
STARTCHAR 3800
ENCODING 14336
SWIDTH 1000 0
DWIDTH 20 0
BBX 18 18 1 -1
BITMAP
010000
220400
1FFE00
100400
1FFC00
1FFC00
100040
1FFFC0
1FFFC0
489080
44C880
CC0F80
00C200
308180
208100
208100
3FFF00
200100
ENDCHAR
STARTCHAR 382F
ENCODING 14383
SWIDTH 1000 0
DWIDTH 20 0
BBX 13 17 4 -1
BITMAP
0020
FFF0
8020
8020
8020
8020
FFE0
8020
8000
8010
FFF8
8010
8010
8010
8010
FFF0
8010
ENDCHAR
STARTCHAR 3836
ENCODING 14390
SWIDTH 1000 0
DWIDTH 20 0
BBX 18 17 1 0
BITMAP
181800
101000
10A600
FF7C00
924400
924400
924400
924400
924400
924400
924400
924400
9E8480
968480
110480
110480
1207C0
ENDCHAR
STARTCHAR 3840
ENCODING 14400
SWIDTH 1000 0
DWIDTH 20 0
BBX 18 17 1 -1
BITMAP
00C000
088000
0C9800
188600
108100
208180
7FFFC0
A08140
208100
26B100
248900
248D00
288D00
288100
208100
20A100
209F00
ENDCHAR
STARTCHAR 385C
ENCODING 14428
SWIDTH 1000 0
DWIDTH 20 0
BBX 19 18 1 -1
BITMAP
186000
105480
10FFC0
149480
FF5280
953300
96A100
94E100
944280
94BFC0
950060
960080
95FF80
940800
9CCB00
1188C0
110840
167800
ENDCHAR
STARTCHAR 3861
ENCODING 14433
SWIDTH 1000 0
DWIDTH 20 0
BBX 19 17 1 0
BITMAP
320080
21FFC0
210880
FF0CC0
A5FC80
A50080
A5F8C0
A58FE0
A58880
A5FC80
A58280
A50A80
A68A80
BE5080
225C80
24E080
250380
ENDCHAR
STARTCHAR 38FA
ENCODING 14586
SWIDTH 1000 0
DWIDTH 20 0
BBX 18 17 1 -1
BITMAP
020000
030000
020000
020000
020000
228400
224200
222100
223100
421080
4218C0
C218C0
820840
020000
020000
3E0000
060000
ENDCHAR
STARTCHAR 3917
ENCODING 14615
SWIDTH 1000 0
DWIDTH 20 0
BBX 19 17 1 -1
BITMAP
00C000
008180
7FFF80
018200
1FFF00
012000
021080
7FFFC0
040800
0CC400
188300
2088C0
44A660
889100
189980
308880
078000
ENDCHAR
STARTCHAR 391A
ENCODING 14618
SWIDTH 1000 0
DWIDTH 20 0
BBX 18 17 1 0
BITMAP
184000
104100
109F80
190000
554000
566000
564080
52BFC0
D18200
D1C200
128200
148200
108200
108200
108200
108200
109E00
ENDCHAR
STARTCHAR 396F
ENCODING 14703
SWIDTH 1000 0
DWIDTH 20 0
BBX 19 17 1 0
BITMAP
001F00
1FE400
10C300
2044C0
3FFEC0
408100
3FFF80
000200
1FFF00
FFFFE0
000200
3FFE00
268200
246180
2424C0
440440
C7FE00
ENDCHAR
STARTCHAR 3A6E
ENCODING 14958
SWIDTH 1000 0
DWIDTH 20 0
BBX 19 17 0 -1
BITMAP
187C80
119DC0
115480
15FD80
7F0480
11FD80
1114C0
17FFE0
184200
F09F80
51E9C0
12FF60
140880
13FFC0
100800
100800
707800
ENDCHAR
STARTCHAR 3A73
ENCODING 14963
SWIDTH 1000 0
DWIDTH 20 0
BBX 18 19 1 -2
BITMAP
328A00
214500
22AA80
23EFC0
2A8A00
FFFF80
2AAA00
22AA80
23EF80
2EAA80
73EFC0
A00200
23FF00
208200
204400
203800
206E00
E183C0
060000
ENDCHAR
STARTCHAR 3AD6
ENCODING 15062
SWIDTH 1000 0
DWIDTH 20 0
BBX 18 18 1 -1
BITMAP
010000
00C000
008000
008100
00FF80
008000
008000
008080
FFFFC0
000000
200200
1FFF00
100200
1FFE00
100200
100200
1FFE00
100200
ENDCHAR
STARTCHAR 3AD7
ENCODING 15063
SWIDTH 1000 0
DWIDTH 20 0
BBX 18 17 1 -2
BITMAP
200200
1FFF00
100200
1FFE00
100200
100200
1FFE00
000400
3FFE00
000C00
00F000
008080
FFFFC0
004000
004000
004000
07C000
ENDCHAR
STARTCHAR 3AEA
ENCODING 15082
SWIDTH 1000 0
DWIDTH 20 0
BBX 19 17 1 0
BITMAP
01C000
010180
7FFF80
010200
3FFF00
022080
FFFFC0
0C0800
100600
2DFF80
4902E0
890200
09FE00
090200
090200
09FE00
090200
ENDCHAR
STARTCHAR 3B0E
ENCODING 15118
SWIDTH 1000 0
DWIDTH 20 0
BBX 16 19 2 -2
BITMAP
4004
3FFE
2004
3FFC
2004
2004
3FFC
1808
1010
E6E6
282C
343A
3F3F
C1C1
0888
2446
6223
C221
C000
ENDCHAR
STARTCHAR 3B1A
ENCODING 15130
SWIDTH 1000 0
DWIDTH 20 0
BBX 17 17 2 -1
BITMAP
018C00
110800
FFE880
930880
928F80
926900
9FB100
F81B00
97EA00
946A00
97CA00
944400
F7C600
944600
944900
065180
05E080
ENDCHAR
STARTCHAR 3B1C
ENCODING 15132
SWIDTH 1000 0
DWIDTH 20 0
BBX 18 18 1 -1
BITMAP
010080
FFFFC0
100C00
230980
FFBEC0
8C2400
090480
FF3F80
080400
098480
FE7FC0
800200
1FFF00
100200
1FFE00
100200
1FFE00
100200
ENDCHAR
STARTCHAR 3B22
ENCODING 15138
SWIDTH 1000 0
DWIDTH 20 0
BBX 17 18 2 -1
BITMAP
018600
084800
FFFF80
882200
89FF00
882100
8FFF80
F80000
884C00
8BAB00
888980
8FFF80
F8E900
8F8680
808680
008B80
03B180
004000
ENDCHAR
STARTCHAR 3B6D
ENCODING 15213
SWIDTH 1000 0
DWIDTH 20 0
BBX 19 17 0 0
BITMAP
1A1060
11F840
111040
151340
FF1240
111240
11F240
384240
345240
52FA40
509240
509240
909240
111040
111040
131040
14E3C0
ENDCHAR
STARTCHAR 3B77
ENCODING 15223
SWIDTH 1000 0
DWIDTH 20 0
BBX 19 18 0 -1
BITMAP
0C8040
087FE0
084440
094440
7F7FC0
084440
084440
1C7FC0
1A4440
2B0600
290440
48FFE0
480420
880860
081840
082040
08C380
010000
ENDCHAR
STARTCHAR 3B87
ENCODING 15239
SWIDTH 1000 0
DWIDTH 20 0
BBX 20 17 0 0
BITMAP
0C01C0
080F00
08F800
0A0800
7F0820
09FFE0
081200
1C3100
1A2080
194C60
288830
2B4A80
484A40
884920
084920
088900
087800
ENDCHAR
STARTCHAR 3B88
ENCODING 15240
SWIDTH 1000 0
DWIDTH 20 0
BBX 18 17 1 0
BITMAP
183000
102000
102080
17FFC0
FC6800
104400
188A00
35FD00
3500C0
360100
53FF80
501000
919600
911100
121180
141080
10F000
ENDCHAR
STARTCHAR 3B8D
ENCODING 15245
SWIDTH 1000 0
DWIDTH 20 0
BBX 18 18 1 -1
BITMAP
001000
0F0C00
031080
FFFFC0
010100
3F9980
289100
269100
2E9100
208100
278F00
218200
00C080
FFFFC0
01E000
069C00
1883C0
E08000
ENDCHAR
STARTCHAR 3BA4
ENCODING 15268
SWIDTH 1000 0
DWIDTH 20 0
BBX 19 18 0 0
BITMAP
006000
104040
1FFFE0
2190C0
631040
0CFFC0
31B000
020C00
0FFF00
3C02E0
C40200
07FE00
004040
7FFFE0
00F000
034C00
0C43E0
704000
ENDCHAR
STARTCHAR 3BB6
ENCODING 15286
SWIDTH 1000 0
DWIDTH 20 0
BBX 19 17 0 0
BITMAP
191C40
1193E0
109240
14A640
7FFE40
1043C0
114E40
394A40
354A40
374A40
534BC0
51FA40
914240
904640
108440
108440
1309C0
ENDCHAR
STARTCHAR 3BC3
ENCODING 15299
SWIDTH 1000 0
DWIDTH 20 0
BBX 19 17 0 0
BITMAP
0C0C00
080840
09FFE0
0A1800
7F2F00
084880
088840
1F1800
1B3600
296D80
288960
4B6980
482A00
883F00
08C880
090840
083800
ENDCHAR
STARTCHAR 3BCD
ENCODING 15309
SWIDTH 1000 0
DWIDTH 20 0
BBX 19 18 0 -1
BITMAP
183300
11A240
1127E0
112440
1527C0
7D2980
11F780
112300
3826C0
3428C0
57E0A0
55BFE0
51A080
912C80
912280
112080
122080
142780
ENDCHAR
STARTCHAR 3BF0
ENCODING 15344
SWIDTH 1000 0
DWIDTH 20 0
BBX 18 18 1 -1
BITMAP
1A0080
11FFC0
112480
152480
15FF80
FD0800
101880
13FFC0
301000
3C3F00
57A100
533F00
913F00
912100
113F00
112100
11FFC0
110000
ENDCHAR
STARTCHAR 3C0F
ENCODING 15375
SWIDTH 1000 0
DWIDTH 20 0
BBX 19 18 0 0
BITMAP
18C300
109240
11FFE0
114500
162D80
FE08C0
13FFE0
187F00
3C4180
364100
527F00
51FFE0
913E40
912240
112240
113E40
110040
1103C0
ENDCHAR
STARTCHAR 3C26
ENCODING 15398
SWIDTH 1000 0
DWIDTH 20 0
BBX 18 19 1 -2
BITMAP
083000
0C3000
082000
092080
09BFC0
FFA8C0
084880
084900
088900
FF8800
080C00
181C00
121400
111200
27A100
F8A100
404080
0080C0
010000
ENDCHAR
STARTCHAR 3CC3
ENCODING 15555
SWIDTH 1000 0
DWIDTH 20 0
BBX 17 17 2 0
BITMAP
406000
304000
104800
03FC00
044800
C44900
288900
088F80
1B3000
142000
302100
F7FF80
602000
202000
202000
602000
602000
ENDCHAR
STARTCHAR 3CD2
ENCODING 15570
SWIDTH 1000 0
DWIDTH 20 0
BBX 18 19 1 -2
BITMAP
002000
301800
183000
082080
03FFC0
046800
C44400
688200
29A100
0930C0
122040
142000
304400
E04200
208100
208700
23F980
220080
200000
ENDCHAR
STARTCHAR 3D11
ENCODING 15633
SWIDTH 1000 0
DWIDTH 20 0
BBX 18 19 1 -2
BITMAP
000800
600800
340840
13FFC0
0A0000
8A2380
6A1240
32FFC0
120800
1268C0
224880
224880
E27F80
424880
444800
441000
641000
682000
704000
ENDCHAR
STARTCHAR 3D1E
ENCODING 15646
SWIDTH 1000 0
DWIDTH 20 0
BBX 18 17 1 -1
BITMAP
400100
301F80
13E100
0221C0
0D1100
E99900
288A00
124080
133FC0
222080
222080
223F80
C22080
422080
622080
623F80
622080
ENDCHAR
STARTCHAR 3D64
ENCODING 15716
SWIDTH 1000 0
DWIDTH 20 0
BBX 18 19 1 -2
BITMAP
402080
27FFC0
10A280
10E680
05A980
CAF280
692480
2A0880
0C1080
13FFC0
101400
119300
211300
E3DC80
226880
242400
20C300
2301C0
2C0000
ENDCHAR
STARTCHAR 3D9A
ENCODING 15770
SWIDTH 1000 0
DWIDTH 20 0
BBX 18 17 1 -1
BITMAP
800080
6FFFC0
204900
07FF80
0C4880
D7FF80
534080
125780
2FF480
23C480
208780
47E480
C7E780
44A480
4FF880
608880
609180
ENDCHAR
STARTCHAR 3DC0
ENCODING 15808
SWIDTH 1000 0
DWIDTH 20 0
BBX 17 17 2 0
BITMAP
081800
2A9700
2C9C00
699000
1C3800
162600
62C200
810800
7FFC00
000C00
060400
042400
FFF480
040480
040280
040380
040180
ENDCHAR
STARTCHAR 3DD4
ENCODING 15828
SWIDTH 1000 0
DWIDTH 20 0
BBX 18 17 1 0
BITMAP
180180
101F00
13E100
171180
548900
58C900
504A00
512080
D19FC0
D11080
111080
191F80
291080
251080
251080
411F80
811080
ENDCHAR
STARTCHAR 3E05
ENCODING 15877
SWIDTH 1000 0
DWIDTH 20 0
BBX 19 18 0 -1
BITMAP
000400
18C300
109240
15FFE0
174500
552880
5A4440
51FBE0
511240
D1F240
911240
11F240
198240
153240
27C240
2113C0
41FA00
800200
ENDCHAR
STARTCHAR 3E3F
ENCODING 15935
SWIDTH 1000 0
DWIDTH 20 0
BBX 20 19 0 -2
BITMAP
0C0E00
280800
380840
29FFE0
2A0800
7F0880
48FFC0
480000
488040
48FFE0
8B8040
1D9380
691200
081200
081220
082220
084220
0983F0
020000
ENDCHAR
STARTCHAR 3E60
ENCODING 15968
SWIDTH 1000 0
DWIDTH 20 0
BBX 19 17 0 -1
BITMAP
440C00
260880
140BC0
183C00
1BC800
2808C0
48C880
0C8880
0C8880
148880
248880
44FF80
848840
040840
040840
0C0860
380FE0
ENDCHAR
STARTCHAR 3E66
ENCODING 15974
SWIDTH 1000 0
DWIDTH 20 0
BBX 18 17 0 0
BITMAP
260080
24FFC0
1C0880
181880
181880
281080
483080
0C6780
0CC100
158080
247FC0
444080
844080
044080
044080
487F80
384080
ENDCHAR
STARTCHAR 3E68
ENCODING 15976
SWIDTH 1000 0
DWIDTH 20 0
BBX 18 17 1 -1
BITMAP
441800
481000
281000
121080
31FFC0
791080
891080
191080
1D1080
25FF80
451080
451080
851080
051080
051080
09FF80
710080
ENDCHAR
STARTCHAR 3E83
ENCODING 16003
SWIDTH 1000 0
DWIDTH 20 0
BBX 18 17 1 -1
BITMAP
486600
4C4480
2BFFC0
108400
30C000
588100
48FF80
890100
1D0900
36F900
248900
448900
84F900
048900
040100
082300
781E00
ENDCHAR
STARTCHAR 3E94
ENCODING 16020
SWIDTH 1000 0
DWIDTH 20 0
BBX 19 17 0 -1
BITMAP
440F00
26F000
289300
111880
110A80
29FE00
4A8200
088300
1CFF80
148100
24FFE0
448440
856B40
055540
0554C0
0AD080
7A8780
ENDCHAR
STARTCHAR 3F57
ENCODING 16215
SWIDTH 1000 0
DWIDTH 20 0
BBX 17 17 2 0
BITMAP
043000
FE2000
942000
942000
942000
942000
942000
FC2000
943000
947000
945000
944800
FC8C00
848400
810200
020380
040100
ENDCHAR
STARTCHAR 3F72
ENCODING 16242
SWIDTH 1000 0
DWIDTH 20 0
BBX 19 17 0 -2
BITMAP
001800
001000
101060
0FFFE0
880000
480040
2BFFE0
282000
086100
187F80
68C180
C80180
100180
100100
100100
204300
403E00
ENDCHAR
STARTCHAR 3F75
ENCODING 16245
SWIDTH 1000 0
DWIDTH 20 0
BBX 19 17 0 0
BITMAP
001000
001000
101040
0FFFE0
480000
481800
281000
281000
081100
1BFF80
681000
C81000
101000
101000
1010C0
27FFE0
400000
ENDCHAR
STARTCHAR 3F77
ENCODING 16247
SWIDTH 1000 0
DWIDTH 20 0
BBX 19 18 0 -1
BITMAP
001000
001000
101040
0FFFE0
880000
481800
281000
2850C0
0FF900
085A00
38D400
C89400
499200
131180
1610E0
281040
20F000
400000
ENDCHAR
STARTCHAR 3FAE
ENCODING 16302
SWIDTH 1000 0
DWIDTH 20 0
BBX 18 19 1 -2
BITMAP
004000
002000
202080
1FFFC0
102000
903200
53FF00
520200
53FE00
120200
73FE00
900100
9FFF80
102200
27FF00
202000
402080
4FFFC0
800000
ENDCHAR
STARTCHAR 3FC9
ENCODING 16329
SWIDTH 1000 0
DWIDTH 20 0
BBX 18 18 1 -1
BITMAP
002000
202080
1FFFC0
103000
93FE00
522200
53FE00
502080
1FFFC0
33FE00
520300
93FE00
13FE00
23FE00
220200
40CE00
470100
880000
ENDCHAR
STARTCHAR 3FD7
ENCODING 16343
SWIDTH 1000 0
DWIDTH 20 0
BBX 19 19 0 -2
BITMAP
002000
001000
101060
0FFFE0
882040
49DFE0
2A9200
2FFA40
288FE0
09C840
1ABFC0
6C8840
496FC0
094840
114FC0
117800
2246C0
248820
401000
ENDCHAR
STARTCHAR 4039
ENCODING 16441
SWIDTH 1000 0
DWIDTH 20 0
BBX 18 19 2 -2
BITMAP
001800
081000
FC1000
881080
8BFFC0
881000
F8D300
899200
891200
899300
F95500
8A5C80
8C3880
882400
F86400
884200
808300
0301C0
040080
ENDCHAR
STARTCHAR 4058
ENCODING 16472
SWIDTH 1000 0
DWIDTH 20 0
BBX 17 18 2 -1
BITMAP
001000
083A00
FC6200
8CFF00
89A600
8A9C00
FC5000
886000
898200
8EFE00
F91000
8A1100
8BFF80
881000
F99300
891200
81FE00
010200
ENDCHAR
STARTCHAR 4093
ENCODING 16531
SWIDTH 1000 0
DWIDTH 20 0
BBX 18 18 1 -1
BITMAP
308100
307F80
224100
3F4100
287F00
484100
484100
897F00
7F4100
084100
087F00
0C1400
121400
132480
212480
204480
4187C0
820000
ENDCHAR
STARTCHAR 4105
ENCODING 16645
SWIDTH 1000 0
DWIDTH 20 0
BBX 18 17 1 -1
BITMAP
104400
08C600
048800
049100
3FFF80
011080
7FFFC0
060400
0C1200
1BF980
600240
9FFF00
004000
0E4C00
184300
304180
43C080
ENDCHAR
STARTCHAR 4148
ENCODING 16712
SWIDTH 1000 0
DWIDTH 20 0
BBX 18 17 1 0
BITMAP
10C800
088C00
0D9000
052200
7FFF00
021100
FFFFC0
040C00
083600
37C180
C084C0
3FFE00
01C000
02B000
0C8E00
308380
C08000
ENDCHAR
STARTCHAR 414F
ENCODING 16719
SWIDTH 1000 0
DWIDTH 20 0
BBX 19 17 1 -1
BITMAP
0E0080
19FFC0
F10080
110080
15FF80
FF0200
110F00
117800
398880
350F00
55F800
5108C0
923F00
92C840
120840
140860
140FC0
ENDCHAR
STARTCHAR 4163
ENCODING 16739
SWIDTH 1000 0
DWIDTH 20 0
BBX 18 18 1 -1
BITMAP
002000
0E1000
312100
D0FF80
108100
148100
FEFF00
108100
30FF00
388000
360080
53FFC0
501000
90FF80
901000
101000
1010C0
13FFC0
ENDCHAR
STARTCHAR 41B4
ENCODING 16820
SWIDTH 1000 0
DWIDTH 20 0
BBX 18 18 1 -1
BITMAP
00C000
408080
7FFFC0
432180
CC3FC0
764000
0FF000
1FFF00
308200
DFFE00
1FFE00
208100
3FFF80
3FFF00
208100
3FFF40
008040
00FFC0
ENDCHAR
STARTCHAR 41BF
ENCODING 16831
SWIDTH 1000 0
DWIDTH 20 0
BBX 18 18 1 -1
BITMAP
00C000
208080
3FFFC0
432180
CC3F80
701000
361900
24FF80
24FF00
248100
3CFF00
048100
FCFF80
25FFC0
241C00
242B00
44C9C0
470800
ENDCHAR
STARTCHAR 41E6
ENCODING 16870
SWIDTH 1000 0
DWIDTH 20 0
BBX 18 18 1 -1
BITMAP
183800
112080
3FBFC0
284800
458C00
84C400
208200
1FFF00
108200
108200
108240
FFFFC0
00C000
012000
031000
060E00
1803C0
E00080
ENDCHAR
STARTCHAR 41EE
ENCODING 16878
SWIDTH 1000 0
DWIDTH 20 0
BBX 18 17 1 0
BITMAP
181800
10B080
3FBFC0
246800
424400
888000
0C0F00
08F000
131000
181000
301080
57FFC0
901000
101000
101000
101080
13FF80
ENDCHAR
STARTCHAR 41F3
ENCODING 16883
SWIDTH 1000 0
DWIDTH 20 0
BBX 18 19 1 -2
BITMAP
183000
11A080
3FBFC0
284800
448400
81F000
010A00
01FF00
7F0200
07FF00
398080
00FFC0
FFC400
004E00
007880
00F880
070F80
3803C0
C00000
ENDCHAR
STARTCHAR 4207
ENCODING 16903
SWIDTH 1000 0
DWIDTH 20 0
BBX 18 18 1 0
BITMAP
183000
112080
3FBFC0
284800
448400
80C100
00FF80
008200
1FFF00
100200
1FFE00
100200
1FFE00
1080C0
FFFFC0
008000
008000
008000
ENDCHAR
STARTCHAR 420E
ENCODING 16910
SWIDTH 1000 0
DWIDTH 20 0
BBX 19 18 1 -1
BITMAP
083800
1120C0
1FBFC0
244C00
628400
8C8600
0884C0
7FFFC0
088400
08FC00
080080
0FFF80
7FFFC0
01C000
02B000
0C8F00
3081E0
C08000
ENDCHAR
STARTCHAR 4264
ENCODING 16996
SWIDTH 1000 0
DWIDTH 20 0
BBX 19 19 1 -2
BITMAP
081000
109840
1FFFC0
262400
624200
C68C00
34C800
159840
7FDFE0
0E3180
35B100
4C4900
7FE600
110600
330600
2E0900
0590C0
38A060
404000
ENDCHAR
STARTCHAR 42C6
ENCODING 17094
SWIDTH 1000 0
DWIDTH 20 0
BBX 18 17 1 0
BITMAP
180000
100080
25FFC0
A60000
680100
28FF80
188100
248100
FA8100
928100
10FF00
748000
568000
928000
910000
910000
120000
ENDCHAR
STARTCHAR 42D6
ENCODING 17110
SWIDTH 1000 0
DWIDTH 20 0
BBX 18 18 1 -1
BITMAP
102000
181800
101100
A6FF80
4C1100
681140
3BFFC0
181100
261100
3EFF00
D01080
75FF80
541000
5610C0
93FFC0
921000
901000
101000
ENDCHAR
STARTCHAR 42DD
ENCODING 17117
SWIDTH 1000 0
DWIDTH 20 0
BBX 18 18 1 0
BITMAP
182100
1210C0
259980
E69900
68C900
28C200
181400
242000
FE2080
D3FFC0
924200
584200
74C600
56C400
933C00
921E00
903300
11C180
ENDCHAR
ENDFONT
